<?xml version="1.0" encoding="UTF-8"?>
<svg width="367px" height="173px" viewBox="0 0 367 173" version="1.1" xmlns="http://www.w3.org/2000/svg" xmlns:xlink="http://www.w3.org/1999/xlink">
    <!-- Generator: Sketch 56.3 (81716) - https://sketch.com -->
    <title>modal/burbuja</title>
    <desc>Created with Sketch.</desc>
    <g id="Symbols" stroke="none" stroke-width="1" fill="none" fill-rule="evenodd">
        <g id="Pop-UP" transform="translate(-23.000000, -156.000000)">
            <g id="modal/burbuja" transform="translate(206.500000, 242.500000) scale(-1, 1) translate(-206.500000, -242.500000) translate(23.000000, 156.000000)">
                <g transform="translate(0.000000, 0.000000)" id="Combined-Shape">
                    <path d="M6.13553652e-12,155.23064 L6.13553652e-12,128.76936 C2.5642147,127.021697 5.66279224,126 9,126 C13.2609592,126 17.1328968,127.665599 20.000251,130.381236 C20.064236,115.248037 32.3517769,103 47.5,103 C55.8780039,103 63.3809688,106.746487 68.4249293,112.655495 C72.6621607,98.3980925 85.8667781,88 101.5,88 C119.817363,88 134.800572,102.275214 135.931456,120.307471 C139.640873,118.202151 143.930048,117 148.5,117 C154.890597,117 160.732132,119.350815 165.207018,123.234859 C168.768021,119.399708 173.85377,117 179.5,117 C179.699733,117 179.898765,117.003003 180.097053,117.008966 C181.366962,100.776473 194.941428,88 211.5,88 C227.523487,88 240.752613,99.9640795 242.741605,115.446465 C246.609066,112.648927 251.361969,111 256.5,111 C259.188869,111 261.772263,111.451593 264.178474,112.283072 C264.060724,111.372028 264,110.443106 264,109.5 C264,97.6258779 273.625878,88 285.5,88 C297.374122,88 307,97.6258779 307,109.5 C307,111.885124 306.611618,114.179537 305.894646,116.323446 C308.174038,116.84176 310.225717,117.959085 311.875383,119.501116 C316.511912,113.13648 324.022893,109 332.5,109 C342.574768,109 351.284925,114.842594 355.427048,123.324359 C357.866982,118.520768 361.9805,114.710424 367,112.660926 L367,154.339074 C362.306042,152.422497 358.404361,148.966068 355.922686,144.597516 C352.011315,153.658331 342.996245,160 332.5,160 C320.686189,160 310.748749,151.966299 307.852786,141.064003 C306.353367,141.667717 304.715488,142 303,142 C296.330934,142 290.83478,136.978165 290.086719,130.509673 C288.608784,130.830828 287.074148,131 285.5,131 C283.455481,131 281.477616,130.714623 279.604065,130.181528 C279.864075,131.581378 280,133.024815 280,134.5 C280,147.478692 269.478692,158 256.5,158 C245.954652,158 237.031611,151.054081 234.056377,141.487743 C228.335116,147.356029 220.343106,151 211.5,151 C205.85928,151 200.564849,149.517365 195.985149,146.920539 C192.528589,152.377329 186.437354,156 179.5,156 C176.528248,156 173.711759,155.335238 171.191125,154.146304 C166.960337,162.372793 158.387321,168 148.5,168 C136.602417,168 126.607911,159.851962 123.792244,148.831648 C123.211922,149.323437 122.615128,149.796387 122.002807,150.249552 C122.648286,152.045589 123,153.981721 123,156 C123,165.388841 115.388841,173 106,173 C96.6111593,173 89,165.388841 89,156 C89,155.557599 89.0168989,155.119145 89.0500864,154.685249 C82.3298649,152.083952 76.627782,147.438573 72.7065776,141.511853 C68.4603123,151.217998 58.7721668,158 47.5,158 C37.9276286,158 29.4975707,153.109174 24.5723855,145.690083 C22.906328,152.747696 16.5665346,158 9,158 C5.66279224,158 2.5642147,156.978303 1.16218146e-12,155.23064 Z" fill="#F0CAB0"></path>
                    <path d="M7.2191142e-12,151.003797 L7.2191142e-12,120.996203 L7.2191142e-12,41 L3.33084058,41 C6.66116881,35.749324 12.2048484,32.0409741 18.6495366,31.187293 C15.3212936,29.7099253 13,26.3760462 13,22.5 C13,17.2532949 17.2532949,13 22.5,13 C27.7467051,13 32,17.2532949 32,22.5 C32,26.5988207 29.4042072,30.0913616 25.7668649,31.4233791 C26.0775406,31.4859318 26.3857919,31.5551816 26.6914619,31.6309714 C28.9510824,29.3866666 32.0636046,28 35.5,28 C38.3208634,28 40.9234876,28.9343937 43.0152445,30.5105532 C43.5379033,13.5714261 57.4340634,0 74.5,0 C87.6556408,0 98.9276656,8.06471914 103.641905,19.5199887 C106.691372,17.3057873 110.443194,16 114.5,16 C116.870543,16 119.136949,16.4458611 121.219934,17.2582987 C122.530876,9.17307424 129.544538,3 138,3 C146.53537,3 153.601562,9.29030364 154.815702,17.4880393 C159.39738,13.4498 165.412599,11 172,11 C185.529629,11 196.645591,21.3341367 197.885109,34.5396338 C202.889129,29.862706 209.610254,27 217,27 C219.42583,27 221.779608,27.3084881 224.024246,27.8883745 C224.008152,27.5942943 224,27.2980992 224,27 C224,18.163444 231.163444,11 240,11 C247.113838,11 253.143332,15.6426259 255.2239,22.0632951 C257.358403,21.3729739 259.635645,21 262,21 C273.476085,21 282.899856,29.787 283.910314,41 L284.087824,41 C286.628572,36.8041798 291.23681,34 296.5,34 C301.76319,34 306.371428,36.8041798 308.912176,41 L310.790458,41 C313.429597,31.2070401 322.373151,24 333,24 C340.718496,24 347.548984,27.8020103 351.72082,33.6353846 C352.90447,33.223708 354.17611,33 355.5,33 C360.630876,33 364.976942,36.3601676 366.457697,41 L367,41 L367,106.953141 L367,150.046859 C361.417243,148.365029 356.749041,144.572817 353.922686,139.597516 C350.011315,148.658331 340.996245,155 330.5,155 C318.686189,155 308.748749,146.966299 305.852786,136.064003 C304.353367,136.667717 302.715488,137 301,137 C294.330934,137 288.83478,131.978165 288.086719,125.509673 C286.608784,125.830828 285.074148,126 283.5,126 C281.455481,126 279.477616,125.714623 277.604065,125.181528 C277.864075,126.581378 278,128.024815 278,129.5 C278,142.478692 267.478692,153 254.5,153 C243.954652,153 235.031611,146.054081 232.056377,136.487743 C226.335116,142.356029 218.343106,146 209.5,146 C203.85928,146 198.564849,144.517365 193.985149,141.920539 C190.528589,147.377329 184.437354,151 177.5,151 C174.528248,151 171.711759,150.335238 169.191125,149.146304 C164.960337,157.372793 156.387321,163 146.5,163 C134.602417,163 124.607911,154.851962 121.792244,143.831648 C121.211922,144.323437 120.615128,144.796387 120.002807,145.249552 C120.648286,147.045589 121,148.981721 121,151 C121,160.388841 113.388841,168 104,168 C94.6111593,168 87,160.388841 87,151 C87,150.557599 87.0168989,150.119145 87.0500864,149.685249 C80.3298649,147.083952 74.627782,142.438573 70.7065776,136.511853 C66.4603123,146.217998 56.7721668,153 45.5,153 C36.6646411,153 28.8024654,148.833307 23.7712633,142.357712 C21.2536754,148.597008 15.1410247,153 8,153 C5.10780511,153 2.38429858,152.277759 7.14162063e-12,151.003797 Z" fill="#F6F0E9"></path>
                </g>
            </g>
        </g>
    </g>
</svg>