<?xml version="1.0" encoding="UTF-8"?>
<svg width="580px" height="200px" viewBox="0 0 580 200" version="1.1" xmlns="http://www.w3.org/2000/svg" xmlns:xlink="http://www.w3.org/1999/xlink">
    <!-- Generator: Sketch 56.3 (81716) - https://sketch.com -->
    <title>logo/LOGO MALSTERS</title>
    <desc>Created with Sketch.</desc>
    <defs>
        <linearGradient x1="50%" y1="11.430509%" x2="50%" y2="36.1829642%" id="linearGradient-1">
            <stop stop-color="#F4E7D9" offset="0.0448690878%"></stop>
            <stop stop-color="#2E2516" offset="99.9788851%"></stop>
        </linearGradient>
        <polygon id="path-2" points="2 85 2 197.173655 545.459089 198.899818 567.870193 190.333939 577.191406 163.694417 577 85"></polygon>
        <linearGradient x1="50%" y1="50.5923596%" x2="52.1127962%" y2="62.768738%" id="linearGradient-3">
            <stop stop-color="#F7B500" offset="0%"></stop>
            <stop stop-color="#000000" stop-opacity="0.5" offset="100%"></stop>
        </linearGradient>
        <path d="M5.38163101,30.1796875 L31.6182477,30.1796875 C33.0657852,30.1796875 34.6037937,34.7937132 36.2322734,43.9312935 C38.4940507,51.5308652 44.8270272,78.1293663 55.3216738,123.817268 L55.7740293,123.817268 C65.9972627,79.6673749 73.4158922,48.9072036 77.8489758,31.4462828 L79.4774554,30.1796875 L106.528312,30.1796875 C107.885378,30.8129851 108.609147,32.2605226 108.609147,34.3413577 L108.609147,195.018017 C108.609147,197.098852 107.885378,198.54639 106.528312,199.179688 L81.1059351,199.179688 C79.2060421,199.179688 78.2108601,197.913092 78.2108601,195.470373 L78.2108601,149.239645 L77.8489758,149.239645 C75.2253141,163.081722 71.6969415,179.366518 67.4448002,197.913092 L65.7258494,199.179688 L46.9983334,199.179688 C44.9174982,199.179688 43.4699608,196.827439 42.8366631,192.122942 C36.7751,163.986433 33.6990828,149.601529 33.6990828,148.787289 L33.2467274,148.787289 L33.2467274,159.64382 C33.2467274,170.047996 33.1562563,182.80442 32.884843,197.913092 L31.1658922,199.179688 L5.38163101,199.179688 C3.48173807,199.179688 2.48655606,198.184505 2.48655606,196.284613 L2.48655606,33.1652335 C2.48655606,31.1748695 3.48173807,30.1796875 5.38163101,30.1796875 Z M131.706731,85.2807882 L132.408654,85 L162.591346,85 C163.731971,85 164.697115,88.2992611 165.399038,94.8275862 C173.646635,134.910099 179.876202,168.955665 184,197.034483 C183.561298,198.227833 183.034856,198.859606 182.245192,199 L158.730769,199 C157.414663,199 156.361779,194.858374 155.572115,186.64532 C154.34375,179.555419 153.554087,175.975369 153.115385,175.975369 L141.182692,175.975369 C139.164663,191.137931 137.673077,198.719212 136.620192,198.719212 C136.18149,198.929803 135.742788,199 135.216346,199 L112.403846,199 C112.052885,199 111.614183,198.649015 111,197.876847 C114.772837,171.903941 120.739183,137.858374 128.899038,95.6699507 C130.127404,89.703202 131.092548,86.1933498 131.706731,85.2807882 Z M147.172414,126 L146.827586,126 C146.568966,130.957207 144.931034,141.290541 142,157 L152,157 C149.844828,144.222973 148.206897,133.88964 147.172414,126 Z M188.351563,85 L189.757812,84.953125 L212.960937,84.953125 C214.103516,85.4445043 214.71875,86.2166718 214.71875,87.1994304 L214.71875,177.894012 L243.546875,177.894012 C244.513672,178.104603 244.953125,178.946967 244.953125,180.421105 L244.953125,196.145243 C244.953125,197.619381 244.337891,198.531943 243.195312,198.953125 L189.757812,198.953125 L188.351562,198.11076 C188.087891,188.563962 188,180.140317 188,172.839825 L188,115.839825 C188,107.205588 188.087891,96.4421182 188.351563,85 Z M308.875,109.818182 L308.875,124.818182 C308.875,125.772727 308.435547,126.386364 307.46875,126.727273 L283.914062,126.727273 C282.771484,126.25 282.15625,125.5 282.15625,124.545455 L282.15625,109.272727 C282.15625,106.75 280.662109,105.454545 277.585938,105.454545 L277.234375,105.454545 C274.685547,105.454545 273.367188,107.022727 273.367188,110.090909 L273.367188,118.545455 C273.367188,123.181818 279.958984,129.113636 293.054688,136.272727 C303.601562,143.159091 308.875,151.477273 308.875,161.363636 L308.875,174.181818 C308.875,190.75 298.767578,199 278.640625,199 L276.882812,199 C262.908203,199 253.679688,194.704545 249.109375,186.181818 C247.703125,183.454545 247,179.977273 247,175.818182 L247,158.363636 C247,158.090909 247.439453,157.75 248.40625,157.272727 L271.960938,157.272727 C272.3125,157.272727 272.751953,157.613636 273.367188,158.363636 L273.367188,173.909091 C273.367188,176.977273 275.037109,178.545455 278.289062,178.545455 C280.837891,178.545455 282.15625,177.25 282.15625,174.727273 L282.15625,161.909091 C282.15625,157.75 275.388672,151.886364 261.765625,144.181818 C251.921875,137.159091 247,129.590909 247,121.545455 L247,108.181818 C247,100.75 249.548828,95.0227273 254.734375,91 C259.919922,86.9772727 267.478516,85 277.585938,85 C298.416016,85 308.875,93.25 308.875,109.818182 Z M313.757812,85 L372.820312,85 C373.171875,85 373.611328,85.3509852 374.226562,86.1231527 L374.226562,104.935961 C374.226562,105.216749 373.787109,105.567734 372.820312,106.059113 L356.648438,106.059113 L356.648438,197.034483 C356.648438,198.368227 355.857422,199 354.1875,199 L332.390625,199 C330.720703,199 329.929688,198.368227 329.929688,197.034483 L329.929688,106.059113 L313.40625,106.059113 C312.439453,105.848522 312,105.006158 312,103.53202 L312,87.8078818 C312,86.3337438 312.615234,85.4211823 313.757812,85 Z M381.460937,85 L434.195312,85 C434.546875,85 434.986328,85.3509852 435.601562,86.1231527 L435.601562,104.935961 C435.601562,105.216749 435.162109,105.567734 434.195312,106.059113 L405.71875,106.059113 L405.71875,131.610837 L429.976562,131.610837 C430.328125,131.610837 430.767578,131.961823 431.382812,132.73399 L431.382812,151.26601 C431.382812,151.546798 430.943359,151.897783 429.976562,152.389163 L405.71875,152.389163 L405.71875,177.940887 L434.195312,177.940887 C434.546875,177.940887 434.986328,178.291872 435.601562,179.064039 L435.601562,197.876847 C435.601562,198.157635 435.162109,198.508621 434.195312,199 L381.460937,199 C379.791016,199 379,198.157635 379,196.472906 L379,87.5270936 C379,85.8423645 379.791016,85 381.460937,85 Z M441.455497,85 L466.361257,85 C480.655759,85 489.776178,87.8078818 493.722513,93.4236453 C497.230366,96.7931034 498.984293,102.689655 498.984293,111.1133 L498.984293,127.399015 C498.984293,137.366995 494.424084,144.035714 485.303665,147.334975 L485.303665,147.615764 C496.528796,173.799261 503.456806,190.506158 506,197.596059 C505.649215,198.508621 504.859948,199 503.544503,199 L478.989529,199 C477.937173,199 475.569372,193.384236 471.973822,182.152709 C471.710733,182.082512 469.606021,176.185961 465.659686,164.463054 L465.308901,164.463054 L465.308901,197.034483 C465.308901,198.368227 464.519634,199 462.853403,199 L441.455497,199 C439.789267,199 439,198.368227 439,197.034483 L439,86.9655172 C439,85.6317734 439.789267,85 441.455497,85 Z M467.322581,107 L462,107 L462,135 L464.483871,135 C470.16129,135 473,132.851485 473,128.623762 L473,113.376238 C473,109.148515 471.137097,107 467.322581,107 Z M579.191406,66.8261719 L579.191406,89.0625 C579.191406,90.5566406 578.664062,91.4355469 577.521484,91.875 L550.451172,91.875 C549.132812,91.171875 548.429688,90.1171875 548.429688,88.6230469 L548.429688,66.0351562 C548.429688,62.2558594 546.671875,60.3222656 543.15625,60.3222656 L542.804688,60.3222656 C539.816406,60.3222656 538.322266,62.6074219 538.322266,67.1777344 L538.322266,79.7460938 C538.322266,86.6015625 545.880859,95.390625 560.998047,106.025391 C573.126953,116.308594 579.191406,128.701172 579.191406,143.203125 L579.191406,162.1875 C579.191406,186.708984 567.589844,199.013672 544.386719,199.013672 L542.365234,199.013672 C526.28125,199.013672 515.646484,192.685547 510.460938,180.029297 C508.791016,176.074219 508,170.888672 508,164.648438 L508,138.808594 C508,138.369141 508.527344,137.841797 509.582031,137.138672 L536.740234,137.138672 C537.179688,137.138672 537.707031,137.666016 538.322266,138.808594 L538.322266,161.835938 C538.322266,166.40625 540.167969,168.691406 543.947266,168.691406 C546.935547,168.691406 548.429688,166.845703 548.429688,163.066406 L548.429688,143.994141 C548.429688,137.929688 540.607422,129.140625 524.962891,117.714844 C513.625,107.34375 508,96.1816406 508,84.2285156 L508,64.3652344 C508,53.4667969 510.988281,44.9414062 516.876953,38.8769531 C522.941406,32.9882812 531.730469,30 543.15625,30 C567.150391,30 579.191406,42.3046875 579.191406,66.8261719 Z" id="path-4"></path>
    </defs>
    <g id="logo/LOGO-MALSTERS" stroke="none" stroke-width="1" fill="none" fill-rule="evenodd">
        <g id="logo">
            <g id="ESPUMA" transform="translate(2.000000, 0.000000)">
                <path d="M515.716667,24.8491186 C522.212,18.7649563 531.19732,15 541.124352,15 C560.937925,15 577,29.9984609 577,48.5 C577,51.2119581 576.654895,53.84865 576.003454,56.3738723 L576.003454,125 L0.996545769,125 L0.996545769,50 L1.67922137,50 C0.577129445,47.4101805 0,44.7356335 0,42 C0,18.8040405 41.4936926,0 92.6787565,0 C122.068745,0 148.263536,6.19959758 165.242705,15.8704659 C178.595066,9.11534633 196.312669,5 215.752159,5 C243.824835,5 268.306619,13.582312 281.236788,26.3031045 C296.113368,15.8970706 322.14904,9 351.780656,9 C379.316315,9 403.746746,14.9558659 419.002872,24.1487961 C430.233915,16.1336126 447.508018,11 466.881693,11 C486.813877,11 504.523691,16.4338655 515.716667,24.8491186 Z" id="Combined-Shape" fill="#F4E7D9"></path>
                <g id="Path-4">
                    <use fill="#2E2516" xlink:href="#path-2"></use>
                    <use fill="url(#linearGradient-1)" xlink:href="#path-2"></use>
                </g>
            </g>
            <g id="Combined-Shape">
                <use fill="#F7B500" xlink:href="#path-4"></use>
                <use fill="url(#linearGradient-3)" xlink:href="#path-4"></use>
            </g>
        </g>
    </g>
</svg>