<?xml version="1.0" encoding="UTF-8"?>
<svg width="366px" height="77px" viewBox="0 0 366 77" version="1.1" xmlns="http://www.w3.org/2000/svg" xmlns:xlink="http://www.w3.org/1999/xlink">
    <!-- Generator: Sketch 56.3 (81716) - https://sketch.com -->
    <title>TOP CARD SOLID</title>
    <desc>Created with Sketch.</desc>
    <g id="TOP-CARD-SOLID" stroke="none" stroke-width="1" fill="none" fill-rule="evenodd">
        <path d="M0,29 L0,26 C0,11.6405965 26.3848462,0 58.9322034,0 C77.4252408,0 93.9287837,3.75803024 104.733388,9.63753978 C113.1517,5.5103425 124.276887,3 136.474576,3 C154.427918,3 170.057806,8.43836564 178.152847,16.4661017 C187.650659,10.1655646 204.101701,6 222.805085,6 C240.337957,6 255.891583,9.66049369 265.593575,15.3087683 C272.687544,10.2526353 283.764722,7 296.211864,7 C308.662166,7 319.741808,10.2542865 326.835554,15.3126184 C330.975363,11.422085 336.800959,9 343.254237,9 C355.630924,9 365.698805,17.9091732 365.993367,29 L366,29 L366,77 L0,77 L0,29 Z" id="TOP-CARD" fill="#E08817"></path>
    </g>
</svg>