<?xml version="1.0" encoding="UTF-8"?>
<svg width="512px" height="512px" viewBox="0 0 512 512" version="1.1" xmlns="http://www.w3.org/2000/svg" xmlns:xlink="http://www.w3.org/1999/xlink">
    <!-- Generator: Sketch 56.3 (81716) - https://sketch.com -->
    <title>icon / add photo</title>
    <desc>Created with Sketch.</desc>
    <g id="icon-/-add-photo" stroke="none" stroke-width="1" fill="none" fill-rule="evenodd">
        <g id="photo" transform="translate(0.000000, 51.000000)" fill="#F4E7D9" fill-rule="nonzero">
            <path d="M311.653,49.535 L79.59,49.535 C75.391,49.535 71.986,52.94 71.986,57.139 C71.986,61.338 75.391,64.743 79.59,64.743 L311.653,64.743 C315.852,64.743 319.257,61.338 319.257,57.139 C319.257,52.94 315.852,49.535 311.653,49.535 Z" id="Path"></path>
            <path d="M438.487,197.833 C434.288,197.833 430.883,201.238 430.883,205.437 L430.883,374.106 C430.883,385.213 421.846,394.25 410.739,394.25 L35.352,394.25 C24.245,394.25 15.209,385.214 15.209,374.106 L15.209,84.886 C15.209,73.778 24.246,64.743 35.352,64.743 L54.242,64.743 C58.441,64.743 61.846,61.338 61.846,57.139 C61.846,52.94 58.441,49.535 54.242,49.535 L35.352,49.535 C15.859,49.535 0,65.394 0,84.887 L0,374.107 C0,393.6 15.859,409.459 35.352,409.459 L410.74,409.459 C430.234,409.459 446.092,393.6 446.092,374.107 L446.092,205.437 C446.092,201.238 442.687,197.833 438.487,197.833 Z" id="Path"></path>
            <path d="M408.071,327.854 C403.872,327.854 400.467,331.259 400.467,335.458 L400.467,363.834 L45.624,363.834 L45.624,97.704 L305.286,97.704 C309.485,97.704 312.89,94.299 312.89,90.1 C312.89,85.901 309.485,82.496 305.286,82.496 L38.02,82.496 C33.821,82.496 30.416,85.901 30.416,90.1 L30.416,371.438 C30.416,375.637 33.821,379.042 38.02,379.042 L408.071,379.042 C412.27,379.042 415.675,375.637 415.675,371.438 L415.675,335.458 C415.675,331.258 412.271,327.854 408.071,327.854 Z" id="Path"></path>
            <path d="M408.071,199.334 C403.872,199.334 400.467,202.739 400.467,206.938 L400.467,310.109 C400.467,314.309 403.872,317.713 408.071,317.713 C412.27,317.713 415.675,314.308 415.675,310.109 L415.675,206.938 C415.675,202.739 412.271,199.334 408.071,199.334 Z" id="Path"></path>
            <path d="M285.703,183.88 C281.925,183.88 278.546,181.627 277.093,178.14 L275.377,174.021 C271.713,165.229 263.19,159.547 253.665,159.547 L192.426,159.547 C182.901,159.547 174.378,165.229 170.713,174.022 L168.998,178.14 C167.545,181.627 164.165,183.88 160.388,183.88 C147.419,183.88 136.866,194.431 136.866,207.402 L136.866,282.024 C136.866,294.993 147.417,305.546 160.388,305.546 L285.703,305.546 C298.672,305.546 309.225,294.995 309.225,282.024 L309.225,207.402 C309.225,194.431 298.673,183.88 285.703,183.88 Z M295.032,282.022 L295.03,282.022 C295.03,287.165 290.846,291.35 285.702,291.35 L160.389,291.35 C155.246,291.35 151.061,287.166 151.061,282.022 L151.061,207.4 C151.061,202.257 155.245,198.072 160.389,198.072 C169.914,198.072 178.437,192.39 182.102,183.597 L183.817,179.479 C185.27,175.992 188.65,173.738 192.427,173.738 L253.666,173.738 C257.444,173.738 260.823,175.991 262.276,179.478 L263.992,183.597 C267.655,192.389 276.178,198.071 285.704,198.071 C290.847,198.071 295.032,202.255 295.032,207.399 L295.032,282.022 L295.032,282.022 Z" id="Shape"></path>
            <path d="M223.046,198.916 C201.708,198.916 184.349,216.275 184.349,237.613 C184.349,258.951 201.708,276.31 223.046,276.31 C244.384,276.31 261.743,258.951 261.743,237.613 C261.743,216.276 244.384,198.916 223.046,198.916 Z M223.046,262.117 C209.534,262.117 198.543,251.125 198.543,237.614 C198.543,224.103 209.535,213.111 223.046,213.111 C236.557,213.111 247.549,224.103 247.549,237.614 C247.549,251.125 236.557,262.117 223.046,262.117 Z" id="Shape"></path>
            <path d="M417.714,0.542 C365.725,0.542 323.428,42.839 323.428,94.828 C323.428,146.817 365.725,189.114 417.714,189.114 C469.703,189.114 512,146.817 512,94.828 C512,42.839 469.703,0.542 417.714,0.542 Z M417.714,173.904 C374.111,173.904 338.636,138.43 338.636,94.826 C338.636,51.222 374.11,15.748 417.714,15.748 C461.317,15.748 496.792,51.222 496.792,94.826 C496.792,138.43 461.318,173.904 417.714,173.904 Z" id="Shape"></path>
            <path d="M463.336,87.224 L425.318,87.224 L425.318,49.206 C425.318,45.007 421.913,41.602 417.714,41.602 C413.515,41.602 410.11,45.007 410.11,49.206 L410.11,87.224 L372.092,87.224 C367.893,87.224 364.488,90.629 364.488,94.828 C364.488,99.027 367.893,102.432 372.092,102.432 L410.11,102.432 L410.11,140.45 C410.11,144.649 413.515,148.054 417.714,148.054 C421.913,148.054 425.318,144.649 425.318,140.45 L425.318,102.432 L463.336,102.432 C467.535,102.432 470.94,99.027 470.94,94.828 C470.94,90.628 467.536,87.224 463.336,87.224 Z" id="Path"></path>
        </g>
    </g>
</svg>