<?xml version="1.0" encoding="UTF-8"?>
<svg width="55px" height="55px" viewBox="0 0 55 55" version="1.1" xmlns="http://www.w3.org/2000/svg" xmlns:xlink="http://www.w3.org/1999/xlink">
    <!-- Generator: Sketch 56.3 (81716) - https://sketch.com -->
    <title>Icon / arrowup</title>
    <desc>Created with Sketch.</desc>
    <g id="Icon-/-arrowup" stroke="none" stroke-width="1" fill="none" fill-rule="evenodd">
        <g id="download" transform="translate(27.500000, 27.500000) rotate(180.000000) translate(-27.500000, -27.500000) " fill="#F4E7D9" fill-rule="nonzero">
            <path d="M48.2067487,9.15954506 C43.8666275,4.170059 37.9050238,0.919620648 31.4199294,0.00772733778 C30.9817361,-0.0534027978 30.574902,0.254777458 30.5138559,0.697865767 C30.4528099,1.14053252 30.7588763,1.54947217 31.1979058,1.61102387 C37.3016717,2.46937577 42.9137242,5.52925655 46.9996263,10.2270042 C51.1231596,14.9681752 53.394406,21.0567395 53.394406,27.3708529 C53.394406,34.318612 50.7117262,40.8502645 45.8401701,45.7630216 C40.968614,50.6757788 34.491464,53.3811047 27.6024626,53.3811047 C20.7159697,53.3811047 14.2409103,50.6774652 9.37019054,45.7689239 C9.05659803,45.4527333 8.54815994,45.4527333 8.23498552,45.7689239 C7.9213929,46.0851144 7.921811,46.5977646 8.23540362,46.9135335 C13.4092628,52.1281471 20.2873932,55 27.6024626,55 C34.9204587,55 41.8006797,52.1260392 46.9753752,46.9076312 C52.1500707,41.6892233 55,34.750739 55,27.3708529 C55,20.6638201 52.5874278,14.1962489 48.2067487,9.15954506 Z" id="Path"></path>
            <path d="M1.59416422,27.7543338 C1.59416422,20.7750946 4.25774693,14.2138475 9.09462386,9.27883084 C13.9315008,4.34381409 20.3625418,1.6262305 27.2029179,1.6262305 C27.6429735,1.6262305 28,1.26202263 28,0.813115249 C28,0.364207872 27.6429735,0 27.2029179,0 C19.9366011,0 13.1053583,2.8869826 7.96749991,8.12903503 C2.82964149,13.3710873 0,20.3410097 0,27.7543338 C0,33.9412091 1.95202093,39.7952155 5.6447528,44.683224 C5.8016784,44.8911612 6.03789697,45 6.27660649,45 C6.44640155,45 6.61744209,44.9449454 6.76232834,44.8310246 C7.11105176,44.5570216 7.17581469,44.0462837 6.9072147,43.6905458 C3.43118936,39.0896686 1.59416422,33.5786953 1.59416422,27.7543338 L1.59416422,27.7543338 Z" id="Path"></path>
            <path d="M27.4977798,13 C24.9083882,13 22.8015209,15.1043755 22.8015209,17.6915492 L22.8015209,26.3113784 L22.0149345,25.5257225 C21.1281217,24.6395362 19.9486651,24.1512468 18.6939331,24.1512468 C17.4396238,24.1512468 16.26059,24.6395362 15.3733544,25.5257225 C13.5422152,27.3546959 13.5422152,30.3308961 15.3733544,32.1598695 L23.6490043,40.4274207 C24.6639544,41.4411704 26.0138381,42 27.4491467,42 C28.8853012,42 30.234762,41.4411704 31.2497122,40.4274207 L34.5990477,37.0816243 C34.9162197,36.7648276 34.9162197,36.2511944 34.5990477,35.9348199 C34.2818757,35.6180232 33.7680573,35.6176007 33.4508853,35.9348199 L30.1015498,39.2806164 C29.3931991,39.9881292 28.4509872,40.3780005 27.4491467,40.3780005 C26.4477293,40.3780005 25.5055172,39.9881292 24.7971667,39.2806164 L16.5215168,31.0130651 C15.3238756,29.8164181 15.3238756,27.8691738 16.5215168,26.6725268 C17.1017299,26.0925775 17.8735149,25.7732463 18.6939331,25.7732463 C19.514774,25.7732463 20.2861361,26.0925775 20.8663493,26.6725268 L23.0391883,28.842796 C23.2709353,29.0746912 23.6202473,29.1439641 23.9238865,29.0185126 C24.2275259,28.893061 24.4250183,28.5973841 24.4250183,28.2691826 L24.4250183,17.6911267 C24.4250183,15.9990096 25.8032359,14.6219995 27.4973569,14.6219995 C29.1919008,14.6219995 30.5696956,15.9985872 30.5696956,17.6911267 L30.5696956,28.1728763 C30.5696956,28.5010778 30.7676109,28.7967549 31.0712501,28.9222064 C31.3748894,29.0480803 31.7237785,28.978385 31.9559484,28.7464898 L34.1368225,26.5677726 C34.7149211,25.9903577 35.4837459,25.6722937 36.3012036,25.6722937 C37.1186615,25.6722937 37.8870633,25.9903577 38.4664306,26.5690399 L38.4820779,26.5842461 C39.67549,27.7766692 39.6750672,29.7163103 38.4816549,30.9087334 L36.0432372,33.3451119 C35.7260652,33.6619086 35.7260652,34.1751195 36.0432372,34.4919162 C36.3604091,34.808713 36.8746505,34.808713 37.1913995,34.4919162 L39.6302401,32.0555377 C41.4567276,30.2307883 41.4567276,27.2621912 39.6293944,25.436597 L39.6137472,25.4209684 C38.7286261,24.5373164 37.5525526,24.0502942 36.3012036,24.0502942 C35.0494318,24.0502942 33.8733583,24.5373164 32.9882372,25.4209684 L32.1936158,26.2150723 L32.1936158,17.6911267 C32.1940387,15.1043755 30.0871714,13 27.4977798,13 L27.4977798,13 Z" id="Path"></path>
        </g>
    </g>
</svg>