<?xml version="1.0" encoding="UTF-8"?>
<svg width="512px" height="512px" viewBox="0 0 512 512" version="1.1" xmlns="http://www.w3.org/2000/svg" xmlns:xlink="http://www.w3.org/1999/xlink">
    <!-- Generator: Sketch 56.3 (81716) - https://sketch.com -->
    <title>icon / barcode</title>
    <desc>Created with Sketch.</desc>
    <g id="icon-/-barcode" stroke="none" stroke-width="1" fill="none" fill-rule="evenodd">
        <path d="M502,222 L458,222 L458,106 C458,100.477 453.523,96 448,96 L400,96 C394.477,96 390,100.477 390,106 L390,222 L370.569,222 L370.569,106 C370.569,100.477 366.092,96 360.569,96 C355.046,96 350.569,100.477 350.569,106 L350.569,222 L330.569,222 L330.569,106 C330.569,100.477 326.092,96 320.569,96 C315.046,96 310.569,100.477 310.569,106 L310.569,222 L289.89,222 L289.89,106 C289.89,100.477 285.413,96 279.89,96 L241.89,96 C236.367,96 231.89,100.477 231.89,106 L231.89,222 L211.89,222 L211.89,106 C211.89,100.477 207.413,96 201.89,96 C196.367,96 191.89,100.477 191.89,106 L191.89,222 L170,222 L170,106 C170,100.477 165.523,96 160,96 L112,96 C106.477,96 102,100.477 102,106 L102,222 L74,222 L74,139.667 C74,134.144 69.523,129.667 64,129.667 C58.477,129.667 54,134.144 54,139.667 L54,222 L10,222 C4.477,222 0,226.477 0,232 L0,280 C0,285.523 4.477,290 10,290 L54,290 L54,406 C54,411.523 58.477,416 64,416 C69.523,416 74,411.523 74,406 L74,290 L102,290 L102,406 C102,411.523 106.477,416 112,416 L160,416 C165.523,416 170,411.523 170,406 L170,290 L191.89,290 L191.89,406 C191.89,411.523 196.367,416 201.89,416 C207.413,416 211.89,411.523 211.89,406 L211.89,290 L231.89,290 L231.89,406 C231.89,411.523 236.367,416 241.89,416 L279.89,416 C285.413,416 289.89,411.523 289.89,406 L289.89,290 L310.569,290 L310.569,406 C310.569,411.523 315.046,416 320.569,416 C326.092,416 330.569,411.523 330.569,406 L330.569,290 L350.569,290 L350.569,370.5 C350.569,376.023 355.046,380.5 360.569,380.5 C366.092,380.5 370.569,376.023 370.569,370.5 L370.569,290 L390,290 L390,406 C390,411.523 394.477,416 400,416 L448,416 C453.523,416 458,411.523 458,406 L458,290 L502,290 C507.523,290 512,285.523 512,280 L512,232 C512,226.477 507.523,222 502,222 Z M410,116 L438,116 L438,222 L410,222 L410,116 Z M251.89,116 L269.89,116 L269.89,222 L251.89,222 L251.89,116 Z M122,116 L150,116 L150,222 L122,222 L122,116 Z M150,396 L122,396 L122,290 L150,290 L150,396 Z M269.89,396 L251.89,396 L251.89,290 L269.89,290 L269.89,396 Z M438,396 L410,396 L410,290 L438,290 L438,396 Z M492,270 L20,270 L20,242 L492,242 L492,270 Z M367.64,398.93 C369.5,400.79 370.57,403.37 370.57,406 C370.57,408.63 369.5,411.21 367.64,413.07 C365.78,414.93 363.2,416 360.57,416 C357.94,416 355.36,414.93 353.5,413.07 C351.64,411.21 350.57,408.63 350.57,406 C350.57,403.37 351.64,400.79 353.5,398.93 C355.36,397.07 357.94,396 360.57,396 C363.2,396 365.78,397.07 367.64,398.93 Z M64.012,0 C69.535,0 74.012,4.477 74.012,10 C74.012,15.523 69.535,20 64.012,20 L20,20 L20,64.012 C20,69.535 15.523,74.012 10,74.012 C4.477,74.012 0,69.535 0,64.012 L0,10 C0,4.477 4.477,0 10,0 L64.012,0 Z M502,0 C507.523,0 512,4.477 512,10 L512,64.012 C512,69.535 507.523,74.012 502,74.012 C496.477,74.012 492,69.535 492,64.012 L492,20 L447.988,20 C442.465,20 437.988,15.523 437.988,10 C437.988,4.477 442.465,0 447.988,0 L502,0 Z M502,437.988 C507.523,437.988 512,442.465 512,447.988 L512,502 C512,507.523 507.523,512 502,512 L447.988,512 C442.465,512 437.988,507.523 437.988,502 C437.988,496.477 442.465,492 447.988,492 L492,492 L492,447.988 C492,442.465 496.477,437.988 502,437.988 Z M64.012,492 C69.535,492 74.012,496.477 74.012,502 C74.012,507.523 69.535,512 64.012,512 L10,512 C4.477,512 0,507.523 0,502 L0,447.988 C0,442.465 4.477,437.988 10,437.988 C15.523,437.988 20,442.465 20,447.988 L20,492 L64.012,492 Z M71.07,98.93 C72.93,100.79 74,103.37 74,106 C74,108.63 72.93,111.21 71.07,113.07 C69.21,114.93 66.63,116 64,116 C61.37,116 58.79,114.93 56.93,113.07 C55.07,111.21 54,108.63 54,106 C54,103.37 55.07,100.79 56.93,98.93 C58.79,97.07 61.37,96 64,96 C66.63,96 69.21,97.07 71.07,98.93 Z" id="Shape" fill="#F4E7D9" fill-rule="nonzero"></path>
    </g>
</svg>