<?xml version="1.0" encoding="UTF-8"?>
<svg width="512px" height="512px" viewBox="0 0 512 512" version="1.1" xmlns="http://www.w3.org/2000/svg" xmlns:xlink="http://www.w3.org/1999/xlink">
    <!-- Generator: Sketch 56.3 (81716) - https://sketch.com -->
    <title>icon / beer pint</title>
    <desc>Created with Sketch.</desc>
    <g id="icon-/-beer-pint" stroke="none" stroke-width="1" fill="none" fill-rule="evenodd">
        <path d="M390.984104,131.422425 C389.404968,128.011286 390.335885,113.546429 391.08349,101.903634 C391.779194,91.0734346 392.568762,78.79752 392.568762,65.5724765 C392.568762,61.0118129 388.860552,57.3143942 384.286578,57.3143942 L360.871188,57.3143942 C357.028254,38.6940703 340.456156,24.648724 320.655111,24.648724 C315.334636,24.648724 310.141154,25.6639176 305.290003,27.627139 C294.938378,10.5956701 276.437083,0 255.995549,0 C235.558431,0 217.058241,10.5978723 206.706615,27.6260379 C201.856569,25.6639176 196.663087,24.6476229 191.342612,24.6476229 C171.542671,24.6476229 154.972782,38.6929692 151.129848,57.3132931 L127.710041,57.3132931 C123.136066,57.3132931 119.427857,61.0107119 119.427857,65.5713754 C119.427857,78.7964189 120.217425,91.0723335 120.914233,101.903634 C121.662942,113.545328 122.593859,128.010185 121.014723,131.421323 C101.176132,157.361612 100.991715,190.489734 120.491289,220.17699 C122.75619,226.959628 125.804034,267.517823 129.028564,310.420212 C132.613093,358.112288 137.073326,417.468081 143.493675,479.050252 C144.675266,490.363824 157.539154,498.736419 182.819693,504.644801 C202.820615,509.318876 229.493664,512 255.996653,512 C281.485902,512 307.936989,509.32328 328.568462,504.658014 C355.011819,498.678062 368.434478,490.299962 369.605027,479.049151 C376.3147,414.716488 380.759472,350.833064 384.004984,304.187011 C386.776755,264.344517 389.397238,226.679954 391.519685,220.160473 C411.010425,190.472117 410.818278,157.353904 390.984104,131.422425 Z M191.341508,41.1648885 C196.414622,41.1648885 201.298901,42.7196101 205.466496,45.6605885 C207.527104,47.1151121 210.140961,47.5522399 212.567089,46.8486513 C214.992112,46.1439616 216.961063,44.3756309 217.91738,42.0446496 C224.27368,26.535971 239.219157,16.5161646 255.995549,16.5161646 C272.774149,16.5161646 287.722939,26.535971 294.079239,42.0435485 C295.034451,44.3745298 297.004506,46.1439616 299.428426,46.8475502 C301.854553,47.5522399 304.467306,47.1151121 306.529018,45.6594874 C310.697717,42.7185091 315.581997,41.1637874 320.655111,41.1637874 C331.252994,41.1637874 340.297138,47.9067869 343.700564,57.3132931 L168.298263,57.3132931 C171.702793,47.907888 180.745834,41.1648885 191.341508,41.1648885 Z M377.381445,211.53353 C373.771517,216.96955 372.379006,232.597145 367.478162,303.045194 C364.064798,352.100405 359.818798,413.130936 353.153296,477.094738 C352.094281,478.953357 344.705469,484.416904 321.90296,489.206592 C302.902526,493.196897 278.880879,495.486038 255.994444,495.486038 C231.590713,495.486038 207.828575,493.227727 189.083232,489.128415 C167.542928,484.416904 160.729452,478.878484 159.952031,477.203745 C153.56481,415.907854 149.11783,356.740346 145.544343,309.187005 C139.87933,233.806129 138.314549,217.106084 134.611861,211.530227 C118.606264,187.452962 118.485896,161.858413 134.283886,141.306799 C139.599944,134.386526 138.78829,121.76267 137.443263,100.8466 C136.912099,92.5885174 136.32572,83.4704935 136.093819,73.8294577 L375.902799,73.8294577 C375.670898,83.4693924 375.08452,92.5874163 374.553356,100.8466 C373.208329,121.761569 372.396675,134.384323 377.713837,141.309001 C393.511827,161.857312 393.390355,187.451861 377.381445,211.53353 Z" id="Shape" fill="#F4E7D9" fill-rule="nonzero"></path>
        <path d="M357.171292,99.8129888 L357.173499,99.7832656 C357.464798,95.2323133 354.003416,91.322061 349.441939,91.0314342 C344.894806,90.7551185 340.945719,94.2074133 340.65442,98.7583656 C339.963688,109.523669 339.351298,119.081329 339.715422,127.755 L171.15152,127.755 C171.280619,120.634642 170.766432,113.000182 170.205902,104.737132 C170.073494,102.787511 169.937775,100.785048 169.805366,98.7275416 C169.512964,94.1765892 165.578221,90.735303 161.017847,91.0160221 C156.45637,91.3088507 152.996091,95.234515 153.289597,99.7843665 C153.423109,101.862789 153.559931,103.885067 153.693443,105.852303 C154.498929,117.73718 155.119043,127.031735 154.178942,134.771877 C154.14584,134.99315 154.119358,135.217725 154.10391,135.444502 C153.28077,141.547666 151.43367,146.675468 147.852016,151.34091 C136.086407,166.654964 136.048891,184.785016 147.742779,202.387756 C153.865575,211.612957 154.810089,222.154786 160.353597,301.899933 C160.65593,306.254932 164.290547,309.585032 168.600448,309.585032 C168.79244,309.585032 168.986639,309.578426 169.181942,309.564115 C173.741212,309.248169 177.18163,305.304891 176.864952,300.75614 C171.056628,217.214129 170.310726,206.47965 161.539758,193.267137 C153.833576,181.666281 153.6471,170.940609 160.989159,161.38405 C165.120308,156.00415 167.682414,150.330321 169.20401,144.26899 L342.085536,144.26899 C343.758298,150.336927 346.429642,155.986536 350.566308,161.375243 C357.618171,170.553107 357.081916,180.981547 348.924441,193.259431 C340.14906,206.480751 339.403158,217.210827 333.59704,300.718711 C332.997891,309.336237 332.445085,317.546446 331.904416,325.590425 C329.697606,358.40594 327.607757,389.469988 323.169861,434.50394 C310.213677,437.251685 281.733686,440.48711 255.226583,440.48711 C228.720583,440.48711 200.239488,437.251685 187.283304,434.502839 C183.247048,393.542066 181.18368,364.561945 179.104865,333.784121 C178.798118,329.234269 174.850135,325.78858 170.291968,326.101224 C165.731594,326.407263 162.284556,330.343935 162.591303,334.893787 C164.774942,367.229327 166.943133,397.596531 171.382132,441.858781 C171.70543,445.087601 173.895689,447.82764 176.978603,448.862448 C188.424225,452.703346 224.317996,457 255.226583,457 C286.135169,457 322.02894,452.705548 333.474562,448.86465 C336.557476,447.829842 338.746632,445.089803 339.071033,441.860983 C343.929326,393.437485 346.109655,361.018279 348.419082,326.695688 C348.95975,318.663818 349.511453,310.465719 350.109499,301.860302 C355.651903,222.149281 356.595314,211.611856 362.723627,202.377848 C374.745226,184.283024 375.092799,166.154073 363.705657,151.331002 C354.625736,139.501168 355.583492,124.562508 357.171292,99.8129888 Z" id="Path" fill="#F4E7D9" fill-rule="nonzero"></path>
    </g>
</svg>