<?xml version="1.0" encoding="UTF-8"?>
<svg width="512px" height="512px" viewBox="0 0 512 512" version="1.1" xmlns="http://www.w3.org/2000/svg" xmlns:xlink="http://www.w3.org/1999/xlink">
    <!-- Generator: Sketch 56.3 (81716) - https://sketch.com -->
    <title>icon / beer</title>
    <desc>Created with Sketch.</desc>
    <g id="icon-/-beer" stroke="none" stroke-width="1" fill="none" fill-rule="evenodd">
        <path d="M136.49905,141.980469 C136.49905,146.027344 136.570312,150.054688 136.703125,153.988281 C136.390625,155.515625 136.421875,157.148438 136.902344,158.800781 C138.65625,197.511719 146.414062,235.542969 160.003906,271.882812 C161.890625,279.339844 210.316406,376.191406 178.074219,499.46875 C176.417969,505.800781 181.199219,512 187.75,512 L326.128906,512 C334.578125,512 339.0625,502.265625 333.992188,495.820312 C303.828125,374.511719 350.695312,280.953125 352.996094,271.882812 C368.203125,231.210938 376.5,187.347656 376.5,141.980469 L376.5,70 C376.5,68.921875 376.324219,67.882812 376.007812,66.910156 C380.226562,36.476562 356.460938,10 326.5,10 C316.703125,10 307.355469,12.789062 299.34375,17.992188 C288.152344,6.578125 272.777344,0 256.5,0 C240.222656,0 224.847656,6.578125 213.65625,17.992188 C205.644531,12.789062 196.296875,10 186.5,10 C156.503906,10 132.777344,36.519531 136.992188,66.910156 C136.675781,67.882812 136.49905,68.921875 136.49905,70 L136.49905,141.980469 Z M200.445312,492 C201.898438,485.421875 203.164062,478.738281 204.25,472 L308.75,472 C309.835938,478.738281 311.101562,485.421875 312.554688,492 L200.445312,492 Z M334.265625,264.875 C331.597656,275.105469 295.117188,346.746094 306.089844,452 L206.910156,452 C217.921875,346.386719 181.464844,275.328125 178.738281,264.878906 C166.832031,233.042969 159.664062,199.832031 157.347656,166 L178.21875,166 C182.347656,177.640625 193.464844,186 206.5,186 C219.535156,186 230.652344,177.628906 234.78125,165.988281 L355.652344,165.988281 C353.339844,199.8125 346.167969,233.039062 334.265625,264.875 Z M356.5,141.980469 C356.5,143.316406 356.476562,144.65625 356.460938,146 L236.5,146 L236.5,90 C236.5,84.480469 240.976562,80 246.5,80 C252.019531,80 256.5,84.476562 256.5,90 C256.5,106.542969 269.957031,120 286.5,120 C303.074219,120 316.5,106.574219 316.5,90 C316.5,84.484375 320.984375,80 326.5,80 L356.5,80 L356.5,141.980469 Z M186.5,30 C194.625,30 202.234375,33.195312 207.929688,39.003906 C210.03125,41.144531 212.984375,42.234375 215.96875,41.960938 C218.957031,41.6875 221.667969,40.09375 223.347656,37.609375 C230.820312,26.582031 243.210938,20 256.5,20 C269.789062,20 282.179688,26.582031 289.652344,37.609375 C291.335938,40.09375 294.042969,41.6875 297.027344,41.960938 C300.015625,42.230469 302.96875,41.144531 305.066406,39.003906 C310.765625,33.195312 318.375,30 326.5,30 C343.042969,30 356.5,43.457031 356.5,60 L326.5,60 C309.957031,60 296.5,73.457031 296.5,90 C296.5,95.519531 292.023438,100 286.5,100 C280.984375,100 276.5,95.515625 276.5,90 C276.5,73.425781 263.074219,60 246.5,60 C229.925781,60 216.5,73.425781 216.5,90 L216.5,156 C216.5,161.515625 212.015625,166 206.5,166 C200.984375,166 196.5,161.515625 196.5,156 L196.5,90 C196.5,73.457031 183.042969,60 166.5,60 L156.5,60 C156.5,43.457031 169.957031,30 186.5,30 Z M156.5,80 L166.5,80 C172.015625,80 176.5,84.484375 176.5,90 L176.5,146 L156.539062,146 C156.523438,144.660156 156.5,143.328125 156.5,141.980469 L156.5,80 Z M316.5,226 C310.980469,226 306.5,221.519531 306.5,216 C306.5,210.480469 310.980469,206 316.5,206 C322.019531,206 326.5,210.480469 326.5,216 C326.5,221.519531 322.019531,226 316.5,226 Z M281.152344,346.003906 C274.828125,346.003906 270.117188,340.234375 271.328125,334.074219 C279.621094,291.789062 292.246094,264.097656 296.703125,251.113281 C298.644531,245.941406 304.402344,243.316406 309.578125,245.257812 C314.75,247.191406 317.371094,252.957031 315.433594,258.128906 C310.972656,271.101562 298.878906,297.519531 290.953125,337.925781 C290.019531,342.695312 285.835938,346.003906 281.152344,346.003906 Z" id="Shape" fill="#F4E7D9" fill-rule="nonzero"></path>
    </g>
</svg>