<?xml version="1.0" encoding="UTF-8"?>
<svg width="512px" height="512px" viewBox="0 0 512 512" version="1.1" xmlns="http://www.w3.org/2000/svg" xmlns:xlink="http://www.w3.org/1999/xlink">
    <!-- Generator: Sketch 56.3 (81716) - https://sketch.com -->
    <title>icon / bitter</title>
    <desc>Created with Sketch.</desc>
    <g id="icon-/-bitter" stroke="none" stroke-width="1" fill="none" fill-rule="evenodd">
        <path d="M16.742188,386.136255 C24.230469,448.655786 99.574219,495.796411 192,495.796411 C275.09375,495.796411 345.679688,457.448755 363.675781,402.538598 L363.691406,402.511255 C366.507812,394.034692 367.960938,385.171411 368,376.241724 C367.957031,373.550317 367.769531,370.866724 367.4375,368.198755 L367.34375,367.347192 L367.34375,367.343286 C364.070312,343.679224 352.347656,322.003442 334.332031,306.312036 C354.84375,315.33938 376.945312,320.187036 399.351562,320.581567 C417.953125,320.929224 436.3125,316.319848 452.542969,307.230005 L452.550781,307.218286 C458.78125,303.679224 464.523438,299.343286 469.628906,294.315942 C473.46875,290.405786 476.898438,286.116724 479.875,281.515161 L479.882812,281.503442 C513.625,230.730005 492.035156,145.40188 429.65625,83.0268802 C371.894531,25.2651612 292.480469,1.76906722 240.808594,27.1675052 C232.5,31.1870362 224.910156,36.5464112 218.34375,43.0307862 C215.949219,45.4839112 213.714844,48.0854742 211.648438,50.8237552 L211.644531,50.8276612 C173.207031,100.323755 193.71875,189.718286 258.34375,254.343286 C264.730469,260.710474 271.449219,266.737817 278.464844,272.40188 C250.855469,261.897974 221.542969,256.569848 192,256.687036 C109.480469,256.687036 37.121094,296.323755 19.945312,350.93313 C17.351562,359.116724 16.0195312,367.65188 16,376.241724 C16.046875,379.550317 16.292969,382.851098 16.738281,386.132348 L16.742188,386.136255 Z M192,479.796411 C114.179688,479.796411 47.753906,442.847192 34.53125,394.030786 C34.847656,394.062036 35.171875,394.097192 35.480469,394.128442 C38.339844,394.452661 41.0625,394.80813 43.605469,395.21438 C43.976562,395.272974 44.320312,395.33938 44.6875,395.40188 C47.0625,395.796411 49.328125,396.222192 51.511719,396.675317 C51.875,396.749536 52.253906,396.819848 52.617188,396.897974 C54.953125,397.397974 57.207031,397.921411 59.421875,398.46438 C59.902344,398.581567 60.378906,398.702661 60.851562,398.819848 C62.984375,399.355005 65.09375,399.894067 67.222656,400.448755 C87.847656,406.300317 109.222656,409.077661 130.65625,408.687036 C152.066406,409.081567 173.417969,406.296411 194.011719,400.429224 C213.285156,394.894067 233.28125,392.284692 253.328125,392.687036 C273.382812,392.284692 293.386719,394.894067 312.667969,400.425317 C314.671875,400.944848 316.703125,401.468286 318.765625,401.987817 C319.242188,402.108911 319.71875,402.226098 320.199219,402.347192 C322.386719,402.890161 324.632812,403.421411 326.96875,403.93313 C327.253906,403.99563 327.558594,404.054224 327.847656,404.116724 C330.007812,404.577661 332.261719,405.019067 334.613281,405.437036 C335.03125,405.511255 335.429688,405.58938 335.851562,405.659692 C338.402344,406.097192 341.097656,406.491724 343.945312,406.851098 C344.199219,406.886255 344.410156,406.929224 344.667969,406.960474 C323.992188,449.694848 262.023438,479.796411 192,479.796411 L192,479.796411 Z M418.34375,94.3432862 C470.753906,146.757348 492.695312,218.472192 471.71875,263.429224 C471.503906,263.179224 471.285156,262.929224 471.078125,262.679224 C468.957031,260.18313 466.992188,257.772974 465.242188,255.483911 C465.085938,255.280786 464.953125,255.08938 464.800781,254.890161 C463.132812,252.687036 461.609375,250.562036 460.183594,248.491724 C459.953125,248.155786 459.710938,247.812036 459.484375,247.480005 C458.03125,245.335474 456.671875,243.237817 455.363281,241.159692 C455.113281,240.761255 454.867188,240.366724 454.617188,239.968286 C453.355469,237.944848 452.121094,235.929224 450.882812,233.894067 C440.167969,215.33938 426.765625,198.476098 411.117188,183.847192 C396.03125,168.663598 378.769531,155.804224 359.90625,145.694848 C342.226562,136.253442 326.066406,124.218286 311.960938,109.983911 C297.300781,96.3198482 284.769531,80.5346922 274.785156,63.1596922 C273.769531,61.4839112 272.734375,59.7885982 271.679688,58.0815672 L270.871094,56.7807862 C269.738281,54.9604742 268.570312,53.1167242 267.320312,51.2221922 C267.183594,51.0112552 267.03125,50.7925052 266.890625,50.5815672 C265.761719,48.8784422 264.558594,47.1323482 263.28125,45.3393802 C262.984375,44.9253172 262.699219,44.5151612 262.394531,44.0932862 C260.96875,42.1245362 259.445312,40.0971922 257.789062,37.9956302 C257.679688,37.8510982 257.589844,37.7221922 257.476562,37.5815672 C303.191406,22.2026612 368.859375,44.8550052 418.34375,94.3432862 L418.34375,94.3432862 Z M229.65625,54.3432862 C233.5,50.5346922 237.800781,47.2143802 242.457031,44.4643802 C242.59375,44.6245362 242.707031,44.7768802 242.839844,44.9370362 C244.605469,47.0854742 246.210938,49.1401612 247.707031,51.1323482 C247.949219,51.4565672 248.210938,51.7925052 248.449219,52.1128172 C249.945312,54.1440672 251.320312,56.1089112 252.621094,58.0307862 C252.878906,58.4135982 253.136719,58.7925052 253.386719,59.1714112 C254.65625,61.0776612 255.871094,62.9565672 257.03125,64.8159422 C257.242188,65.1518802 257.449219,65.4878172 257.65625,65.8237552 C258.820312,67.7026612 259.960938,69.5698482 261.109375,71.4643802 C271.804688,89.9995362 285.1875,106.851098 300.820312,121.468286 C315.90625,136.647974 333.167969,149.507348 352.03125,159.62063 C369.710938,169.05813 385.871094,181.093286 399.976562,195.331567 C414.65625,209.011255 427.207031,224.812036 437.214844,242.206567 C438.039062,243.55813 438.867188,244.917505 439.707031,246.288598 C439.992188,246.749536 440.289062,247.222192 440.578125,247.687036 C441.167969,248.636255 441.757812,249.585474 442.367188,250.546411 C442.726562,251.112817 443.105469,251.687036 443.472656,252.257348 C444.046875,253.15188 444.628906,254.046411 445.238281,254.960474 C445.644531,255.569848 446.070312,256.194848 446.496094,256.815942 C447.101562,257.706567 447.726562,258.608911 448.371094,259.522974 C448.839844,260.18313 449.324219,260.855005 449.8125,261.530786 C450.476562,262.440942 451.160156,263.366724 451.871094,264.304224 C452.40625,265.011255 452.953125,265.730005 453.515625,266.452661 C454.253906,267.40188 455.035156,268.374536 455.828125,269.355005 C456.433594,270.105005 457.039062,270.855005 457.683594,271.624536 C458.519531,272.632348 459.417969,273.671411 460.320312,274.71438 C461.015625,275.515161 461.691406,276.30813 462.421875,277.128442 C462.601562,277.331567 462.753906,277.519067 462.9375,277.722192 C461.507812,279.573755 459.964844,281.33938 458.316406,283.003442 C455.730469,285.565942 452.917969,287.894067 449.914062,289.960474 L449.636719,289.655786 C449.125,289.073755 448.667969,288.522974 448.179688,287.956567 C447.253906,286.882348 446.332031,285.815942 445.480469,284.784692 C444.953125,284.144067 444.460938,283.52688 443.957031,282.90188 C443.21875,281.980005 442.488281,281.065942 441.800781,280.175317 C441.308594,279.538598 440.839844,278.917505 440.371094,278.292505 C439.734375,277.444848 439.113281,276.605005 438.515625,275.77688 C438.074219,275.171411 437.644531,274.569848 437.226562,273.972192 C436.640625,273.140161 436.070312,272.315942 435.519531,271.499536 C435.140625,270.940942 434.757812,270.382348 434.390625,269.827661 C433.832031,268.980005 433.285156,268.140161 432.746094,267.304224 C432.417969,266.796411 432.085938,266.284692 431.765625,265.77688 C431.1875,264.866724 430.625,263.960474 430.066406,263.05813 C429.800781,262.632348 429.53125,262.202661 429.269531,261.772974 C428.476562,260.483911 427.6875,259.194848 426.902344,257.90188 C416.175781,239.347192 402.769531,222.480005 387.117188,207.847192 C372.03125,192.663598 354.769531,179.804224 335.90625,169.694848 C318.226562,160.257348 302.066406,148.218286 287.960938,133.983911 C273.289062,120.30813 260.746094,104.515161 250.746094,87.1323482 C249.511719,85.1050052 248.25,83.0503172 246.960938,80.9721922 C246.6875,80.5346922 246.417969,80.0971922 246.140625,79.6557862 C244.824219,77.5620362 243.425781,75.4214112 241.945312,73.2260982 C241.636719,72.7651612 241.320312,72.3042242 241,71.8393802 C239.457031,69.5932862 237.796875,67.2807862 235.976562,64.8706302 C235.671875,64.4721922 235.34375,64.0581302 235.035156,63.6557862 C233.0625,61.0893802 230.949219,58.4487552 228.550781,55.6440672 L228.488281,55.5659422 C228.875,55.1440672 229.261719,54.7378172 229.65625,54.3432862 L229.65625,54.3432862 Z M269.65625,243.030786 C214.210938,187.581567 193.265625,113.52688 218.765625,68.8979742 C218.957031,69.1323482 219.160156,69.3706302 219.347656,69.6010982 C221.066406,71.7182862 222.671875,73.7651612 224.136719,75.7378172 C224.414062,76.1089112 224.664062,76.4682862 224.933594,76.8354742 C226.253906,78.6440672 227.496094,80.4096922 228.660156,82.1323482 C228.867188,82.4448482 229.089844,82.7573482 229.292969,83.0659422 C230.578125,84.9917242 231.789062,86.8823482 232.964844,88.7612552 C233.222656,89.1714112 233.472656,89.5776612 233.726562,89.9839112 C234.851562,91.8003172 235.960938,93.6128172 237.074219,95.4448482 C247.785156,113.983911 261.179688,130.843286 276.820312,145.468286 C291.90625,160.647974 309.167969,173.507348 328.03125,183.616724 C345.710938,193.05813 361.871094,205.093286 375.976562,219.327661 C390.660156,233.015161 403.21875,248.819848 413.234375,266.21438 C414.464844,268.237817 415.722656,270.280786 417.007812,272.351098 C417.308594,272.835474 417.605469,273.315942 417.914062,273.800317 C419.253906,275.925317 420.664062,278.097192 422.175781,280.327661 C422.480469,280.77688 422.804688,281.237817 423.117188,281.694848 C424.683594,283.96438 426.34375,286.292505 428.199219,288.733911 L428.4375,289.062036 C430.320312,291.52688 432.453125,294.136255 434.726562,296.827661 C435.019531,297.171411 435.234375,297.476098 435.535156,297.827661 C390.125,316.62063 320.992188,294.355005 269.65625,243.030786 L269.65625,243.030786 Z M192,272.687036 C270.511719,272.687036 337.070312,310.038598 349.679688,359.362817 C349.367188,359.327661 349.046875,359.296411 348.742188,359.265161 C345.835938,358.940942 343.070312,358.581567 340.492188,358.171411 C340.148438,358.116724 339.828125,358.054224 339.488281,357.999536 C337.117188,357.608911 334.855469,357.18313 332.679688,356.733911 C332.246094,356.644067 331.796875,356.562036 331.371094,356.468286 C329.078125,355.980005 326.863281,355.46438 324.6875,354.93313 C324.117188,354.792505 323.542969,354.65188 322.976562,354.507348 C320.902344,353.987817 318.84375,353.46438 316.769531,352.925317 C296.144531,347.073755 274.765625,344.296411 253.328125,344.687036 C231.917969,344.292505 210.566406,347.073755 189.972656,352.944848 C170.699219,358.476098 150.703125,361.085474 130.65625,360.687036 C110.597656,361.085474 90.59375,358.476098 71.308594,352.948755 C69.328125,352.43313 67.324219,351.917505 65.292969,351.405786 C64.738281,351.265161 64.183594,351.128442 63.621094,350.987817 C61.457031,350.452661 59.238281,349.929224 56.925781,349.425317 C56.5625,349.343286 56.179688,349.269067 55.808594,349.190942 C53.671875,348.737817 51.441406,348.304224 49.117188,347.894067 C48.6875,347.819848 48.277344,347.737817 47.839844,347.663598 C45.273438,347.230005 42.550781,346.83938 39.691406,346.480005 C39.402344,346.444848 39.160156,346.397974 38.867188,346.362817 C59.109375,303.144067 121.292969,272.687036 192,272.687036 L192,272.687036 Z M33.574219,361.874536 L33.875,361.909692 C36.96875,362.226098 39.824219,362.608911 42.546875,363.022974 C42.933594,363.085474 43.34375,363.136255 43.726562,363.198755 C46.351562,363.62063 48.820312,364.081567 51.207031,364.573755 C51.6875,364.671411 52.171875,364.769067 52.644531,364.874536 C54.949219,365.366724 57.179688,365.878442 59.363281,366.413598 C59.867188,366.538598 60.363281,366.663598 60.863281,366.788598 C63.007812,367.327661 65.136719,367.874536 67.277344,368.43313 C87.878906,374.296411 109.238281,377.077661 130.65625,376.687036 C152.066406,377.081567 173.417969,374.296411 194.011719,368.429224 C213.285156,362.894067 233.28125,360.284692 253.328125,360.687036 C273.410156,360.288598 293.4375,362.894067 312.75,368.413598 C314.167969,368.780786 315.59375,369.147974 317.03125,369.515161 C317.578125,369.655786 318.136719,369.792505 318.6875,369.929224 C319.671875,370.179224 320.660156,370.425317 321.667969,370.667505 C322.253906,370.80813 322.859375,370.948755 323.457031,371.08938 C324.453125,371.323755 325.460938,371.554224 326.488281,371.780786 C327.125,371.921411 327.773438,372.05813 328.425781,372.194848 C329.449219,372.413598 330.496094,372.624536 331.5625,372.831567 C332.25,372.96438 332.945312,373.097192 333.648438,373.226098 C334.75,373.425317 335.886719,373.62063 337.035156,373.80813 C337.753906,373.925317 338.46875,374.042505 339.207031,374.155786 C340.449219,374.347192 341.746094,374.519067 343.058594,374.694848 C343.765625,374.788598 344.457031,374.886255 345.191406,374.972192 C346.722656,375.155786 348.328125,375.319848 349.960938,375.480005 C350.550781,375.534692 351.101562,375.601098 351.707031,375.655786 L351.996094,375.687036 C352,375.87063 352,376.05813 352,376.241724 C351.984375,381.374536 351.375,386.487817 350.183594,391.480005 L349.859375,391.440942 C346.820312,391.124536 344.015625,390.74563 341.335938,390.335474 C340.921875,390.269067 340.488281,390.21438 340.082031,390.147974 C337.5,389.730005 335.066406,389.272974 332.71875,388.788598 C332.210938,388.687036 331.707031,388.581567 331.207031,388.476098 C328.941406,387.987817 326.738281,387.480005 324.585938,386.952661 C324.066406,386.823755 323.550781,386.690942 323.035156,386.562036 C320.917969,386.030786 318.820312,385.491724 316.703125,384.940942 C296.101562,379.073755 274.746094,376.292505 253.328125,376.687036 C231.917969,376.292505 210.566406,379.073755 189.972656,384.944848 C170.699219,390.476098 150.703125,393.085474 130.65625,392.687036 C110.578125,393.081567 90.550781,390.476098 71.242188,384.960474 C69.792969,384.585474 68.335938,384.206567 66.867188,383.831567 C66.433594,383.722192 65.984375,383.612817 65.542969,383.499536 C64.484375,383.233911 63.417969,382.968286 62.328125,382.702661 C61.726562,382.55813 61.105469,382.417505 60.492188,382.272974 C59.53125,382.046411 58.5625,381.823755 57.574219,381.605005 C56.894531,381.452661 56.195312,381.30813 55.496094,381.159692 C54.53125,380.956567 53.546875,380.757348 52.546875,380.562036 C51.796875,380.413598 51.039062,380.272974 50.265625,380.132348 C49.257812,379.948755 48.21875,379.772974 47.167969,379.597192 C46.355469,379.46438 45.542969,379.327661 44.699219,379.202661 C43.617188,379.034692 42.484375,378.882348 41.347656,378.733911 C40.472656,378.616724 39.609375,378.49563 38.703125,378.386255 C37.449219,378.237817 36.128906,378.105005 34.808594,377.972192 C33.949219,377.886255 33.125,377.788598 32.230469,377.710474 L32.027344,377.690942 C32.011719,377.206567 32,376.722192 32,376.241724 C32.007812,371.409692 32.535156,366.593286 33.574219,361.874536 Z M107.679688,429.081567 C111.605469,431.112817 113.136719,435.940942 111.105469,439.866724 C109.074219,443.788598 104.246094,445.323755 100.320312,443.292505 C96.621094,441.37063 93.109375,439.362817 89.78125,437.265161 C86.058594,434.905786 84.945312,429.976098 87.292969,426.24563 C89.640625,422.515161 94.566406,421.386255 98.304688,423.726098 C101.265625,425.597192 104.390625,427.382348 107.679688,429.081567 Z M296.308594,416.05813 C299.746094,413.280786 304.785156,413.819848 307.558594,417.261255 C310.332031,420.698755 309.792969,425.733911 306.355469,428.511255 C278.554688,450.937036 236.875,463.796411 192,463.796411 C169.449219,463.96438 147.015625,460.577661 125.523438,453.757348 C121.332031,452.382348 119.042969,447.874536 120.410156,443.679224 C121.777344,439.483911 126.28125,437.187036 130.476562,438.546411 C150.371094,444.843286 171.132812,447.96438 192,447.796411 C233.285156,447.796411 271.304688,436.230005 296.308594,416.05813 Z M244.765625,142.530786 C245.957031,146.784692 243.472656,151.198755 239.21875,152.390161 C234.964844,153.577661 230.550781,151.097192 229.359375,146.843286 C228.367188,143.284692 227.523438,139.784692 226.832031,136.335474 C225.964844,132.003442 228.773438,127.788598 233.105469,126.921411 C237.4375,126.054224 241.652344,128.862817 242.519531,133.194848 C243.132812,136.265161 243.882812,139.378442 244.765625,142.530786 Z M401.628906,280.687036 C401.367188,284.90188 397.875,288.187036 393.652344,288.194848 C393.488281,288.194848 393.320312,288.190942 393.152344,288.179224 C355.972656,285.890161 314.035156,264.780786 280.972656,231.71438 C264.675781,215.601098 251.117188,196.937036 240.832031,176.456567 C238.882812,172.499536 240.503906,167.710474 244.457031,165.753442 C248.410156,163.796411 253.199219,165.405786 255.167969,169.355005 C264.679688,188.27688 277.21875,205.519067 292.285156,220.40188 C322.210938,250.331567 361.238281,270.18313 394.136719,272.210474 C398.546875,272.480005 401.902344,276.27688 401.628906,280.687036 Z" id="Shape" fill="#F4E7D9" fill-rule="nonzero"></path>
    </g>
</svg>