<?xml version="1.0" encoding="UTF-8"?>
<svg width="512px" height="512px" viewBox="0 0 512 512" version="1.1" xmlns="http://www.w3.org/2000/svg" xmlns:xlink="http://www.w3.org/1999/xlink">
    <!-- Generator: Sketch 56.3 (81716) - https://sketch.com -->
    <title>icon / calendar</title>
    <desc>Created with Sketch.</desc>
    <g id="icon-/-calendar" stroke="none" stroke-width="1" fill="none" fill-rule="evenodd">
        <g id="appointment" fill="#F4E7D9" fill-rule="nonzero">
            <path d="M462,44 L414.333,44 L414.333,30 C414.333,13.458 400.875,0 384.333,0 C367.791,0 354.333,13.458 354.333,30 L354.333,44 L186.333,44 L186.333,30 C186.333,13.458 172.875,0 156.333,0 C139.791,0 126.333,13.458 126.333,30 L126.333,44.37 C125.483,44.135 124.592,44 123.667,44 L83.823,44 C56.253,44 33.823,66.43 33.823,94 L33.823,264.333 C33.823,269.856 38.301,274.333 43.823,274.333 C49.345,274.333 53.823,269.856 53.823,264.333 L53.823,147 L414.333,147 C419.855,147 424.333,142.523 424.333,137 C424.333,131.477 419.855,127 414.333,127 L53.823,127 L53.823,94 C53.823,77.458 67.281,64 83.823,64 L123.667,64 C124.592,64 125.483,63.864 126.333,63.63 L126.333,76.5 C126.333,93.042 139.791,106.5 156.333,106.5 C172.875,106.5 186.333,93.042 186.333,76.5 L186.333,64 L354.333,64 L354.333,76.5 C354.333,93.042 367.791,106.5 384.333,106.5 C400.875,106.5 414.333,93.042 414.333,76.5 L414.333,64 L462,64 C478.542,64 492,77.458 492,94 L492,473.994 C492,483.922 483.923,492 473.994,492 C464.065,492 455.988,483.922 455.988,473.994 L455.988,448.125 C455.988,442.602 451.51,438.125 445.988,438.125 L329.667,438.125 C324.145,438.125 319.667,442.602 319.667,448.125 C319.667,453.648 324.145,458.125 329.667,458.125 L435.988,458.125 L435.988,473.994 C435.988,480.505 437.636,486.637 440.533,492 L38,492 C28.075,492 20,483.925 20,474 L20,458.125 L243.825,458.125 C249.347,458.125 253.825,453.648 253.825,448.125 C253.825,442.602 249.347,438.125 243.825,438.125 L143.909,438.125 C161.383,423.076 172.479,400.816 172.479,376 C172.479,330.785 135.694,294 90.479,294 C45.264,294 8.479,330.785 8.479,376 C8.479,400.816 19.575,423.076 37.049,438.125 L10,438.125 C4.478,438.125 0,442.602 0,448.125 L0,474 C0,494.953 17.047,512 38,512 L473.994,512 C494.95,512 512,494.951 512,473.994 L512,94 C512,66.43 489.57,44 462,44 Z M166.333,76.5 C166.333,82.014 161.847,86.5 156.333,86.5 C150.819,86.5 146.333,82.014 146.333,76.5 L146.333,30 C146.333,24.486 150.819,20 156.333,20 C161.847,20 166.333,24.486 166.333,30 L166.333,76.5 Z M394.333,76.5 C394.333,82.014 389.847,86.5 384.333,86.5 C378.819,86.5 374.333,82.014 374.333,76.5 L374.333,30 C374.333,24.486 378.819,20 384.333,20 C389.847,20 394.333,24.486 394.333,30 L394.333,76.5 Z M28.479,376 C28.479,341.813 56.292,314 90.479,314 C124.666,314 152.479,341.813 152.479,376 C152.479,410.187 124.666,438 90.479,438 C56.292,438 28.479,410.187 28.479,376 Z" id="Shape"></path>
            <path d="M468.309,129.93 C466.45,128.07 463.87,127 461.24,127 C458.609,127 456.03,128.07 454.17,129.93 C452.31,131.79 451.24,134.37 451.24,137 C451.24,139.63 452.309,142.21 454.17,144.07 C456.031,145.93 458.609,147 461.24,147 C463.87,147 466.45,145.93 468.309,144.07 C470.169,142.21 471.24,139.63 471.24,137 C471.24,134.37 470.17,131.79 468.309,129.93 Z" id="Path"></path>
            <path d="M298.649,441.05 C296.79,439.19 294.21,438.13 291.58,438.13 C288.95,438.13 286.37,439.19 284.51,441.05 C282.65,442.92 281.58,445.49 281.58,448.12 C281.58,450.76 282.649,453.33 284.51,455.2 C286.37,457.06 288.95,458.12 291.58,458.12 C294.21,458.12 296.79,457.06 298.649,455.2 C300.509,453.33 301.58,450.75 301.58,448.12 C301.58,445.49 300.51,442.92 298.649,441.05 Z" id="Path"></path>
            <path d="M226.245,304 C205.292,304 188.245,321.047 188.245,342 C188.245,362.953 205.292,380 226.245,380 C247.198,380 264.245,362.953 264.245,342 C264.245,321.047 247.198,304 226.245,304 Z M226.245,360 C216.32,360 208.245,351.925 208.245,342 C208.245,332.075 216.32,324 226.245,324 C236.17,324 244.245,332.075 244.245,342 C244.245,351.925 236.17,360 226.245,360 Z" id="Shape"></path>
            <path d="M319.578,304 C298.625,304 281.578,321.047 281.578,342 C281.578,362.953 298.625,380 319.578,380 C340.531,380 357.578,362.953 357.578,342 C357.578,321.047 340.531,304 319.578,304 Z M319.578,360 C309.653,360 301.578,351.925 301.578,342 C301.578,332.075 309.653,324 319.578,324 C329.503,324 337.578,332.075 337.578,342 C337.578,351.925 329.503,360 319.578,360 Z" id="Shape"></path>
            <path d="M412.912,304 C391.959,304 374.912,321.047 374.912,342 C374.912,362.953 391.959,380 412.912,380 C433.865,380 450.912,362.953 450.912,342 C450.912,321.047 433.865,304 412.912,304 Z M412.912,360 C402.987,360 394.912,351.925 394.912,342 C394.912,332.075 402.987,324 412.912,324 C422.837,324 430.912,332.075 430.912,342 C430.912,351.925 422.837,360 412.912,360 Z" id="Shape"></path>
            <path d="M132.912,200 C111.959,200 94.912,217.047 94.912,238 C94.912,258.953 111.959,276 132.912,276 C153.865,276 170.912,258.953 170.912,238 C170.912,217.047 153.865,200 132.912,200 Z M132.912,256 C122.987,256 114.912,247.925 114.912,238 C114.912,228.075 122.987,220 132.912,220 C142.837,220 150.912,228.075 150.912,238 C150.912,247.925 142.837,256 132.912,256 Z" id="Shape"></path>
            <path d="M319.578,200 C298.625,200 281.578,217.047 281.578,238 C281.578,258.953 298.625,276 319.578,276 C340.531,276 357.578,258.953 357.578,238 C357.578,217.047 340.531,200 319.578,200 Z M319.578,256 C309.653,256 301.578,247.925 301.578,238 C301.578,228.075 309.653,220 319.578,220 C329.503,220 337.578,228.075 337.578,238 C337.578,247.925 329.503,256 319.578,256 Z" id="Shape"></path>
            <path d="M412.912,200 C391.959,200 374.912,217.047 374.912,238 C374.912,258.953 391.959,276 412.912,276 C433.865,276 450.912,258.953 450.912,238 C450.912,217.047 433.865,200 412.912,200 Z M412.912,256 C402.987,256 394.912,247.925 394.912,238 C394.912,228.075 402.987,220 412.912,220 C422.837,220 430.912,228.075 430.912,238 C430.912,247.925 422.837,256 412.912,256 Z" id="Shape"></path>
            <path d="M226.245,200 C205.292,200 188.245,217.047 188.245,238 C188.245,258.953 205.292,276 226.245,276 C247.198,276 264.245,258.953 264.245,238 C264.245,217.047 247.198,200 226.245,200 Z M226.245,256 C216.32,256 208.245,247.925 208.245,238 C208.245,228.075 216.32,220 226.245,220 C236.17,220 244.245,228.075 244.245,238 C244.245,247.925 236.17,256 226.245,256 Z" id="Shape"></path>
            <path d="M126.104,351.629 C122.198,347.724 115.868,347.724 111.961,351.629 L79.395,384.196 L68.266,373.067 C64.36,369.162 58.03,369.162 54.123,373.067 C50.218,376.972 50.218,383.304 54.123,387.21 L72.324,405.409 C74.2,407.284 76.743,408.338 79.395,408.338 C82.047,408.338 84.59,407.284 86.466,405.409 L126.104,365.771 C130.009,361.866 130.009,355.534 126.104,351.629 Z" id="Path"></path>
        </g>
    </g>
</svg>