<?xml version="1.0" encoding="UTF-8"?>
<svg width="512px" height="512px" viewBox="0 0 512 512" version="1.1" xmlns="http://www.w3.org/2000/svg" xmlns:xlink="http://www.w3.org/1999/xlink">
    <!-- Generator: Sketch 56.3 (81716) - https://sketch.com -->
    <title>icon / candy</title>
    <desc>Created with Sketch.</desc>
    <g id="icon-/-candy" stroke="none" stroke-width="1" fill="none" fill-rule="evenodd">
        <path d="M505.007812,134.125 C493.507812,125.933594 487.433594,126.363281 473.929688,112.863281 C456.515625,95.449219 461.753906,89.183594 442.277344,69.707031 C422.871094,50.300781 416.523438,55.453125 399.132812,38.0625 C385.5625,24.492188 386.195312,18.679688 377.871094,6.992188 C371.625,-1.777344 358.867188,-2.433594 352.515625,5.792969 C324.738281,41.769531 324.988281,93.828125 327.164062,119.402344 C270.246094,89.664062 196.695312,97.589844 147.144531,147.140625 C97.535156,196.75 89.695312,270.335938 119.425781,327.199219 C111.425781,326.53125 100.8125,326.054688 88.878906,326.550781 C54.171875,328.011719 26.21875,336.746094 5.792969,352.511719 C-2.480469,358.902344 -1.726562,371.65625 6.996094,377.871094 C18.632812,386.160156 37.855469,391.136719 52.5625,418.910156 C62.015625,436.757812 75.128906,449.917969 93.082031,459.425781 C120.859375,474.136719 125.839844,493.367188 134.128906,505.003906 C140.332031,513.710938 153.082031,514.492188 159.484375,506.203125 C187.261719,470.226562 187.011719,418.164062 184.835938,392.589844 C241.753906,422.328125 315.304688,414.40625 364.855469,364.851562 C414.46875,315.238281 422.300781,241.65625 392.578125,184.800781 C431.191406,188.011719 475.65625,183.066406 506.207031,159.480469 C514.480469,153.089844 513.726562,140.335938 505.007812,134.125 Z M157.75,157.75 L158.207031,157.292969 L158.207031,300.273438 C158.207031,308.496094 173.207031,308.664062 173.207031,300.273438 L173.207031,144.378906 C186.875,134.195312 202.175781,126.699219 218.445312,122.160156 L218.445312,389.835938 C202.175781,385.296875 186.875,377.800781 173.207031,367.617188 L173.207031,330.542969 C173.207031,320.628906 158.207031,320.613281 158.207031,330.542969 L158.207031,354.703125 C103.367188,300.34375 103.375,212.125 157.75,157.75 L157.75,157.75 Z M147.6875,496.980469 C143.015625,498.734375 139.066406,466.808594 100.101562,446.171875 C84.863281,438.101562 73.898438,427.148438 65.820312,411.890625 C45.671875,373.839844 15.035156,369.46875 14.960938,364.386719 C37.199219,347.21875 67.597656,342.492188 89.183594,341.554688 C107.675781,340.746094 123.082031,342.507812 129.195312,343.363281 C130.675781,345.503906 132.214844,347.609375 133.808594,349.679688 C121.695312,353.390625 105.867188,359.296875 91.726562,369.292969 C83.546875,375.078125 92.359375,387.21875 100.386719,381.542969 C115.382812,370.9375 132.582031,365.507812 144.527344,362.175781 C147.414062,365.203125 150.417969,368.113281 153.546875,370.910156 C150.464844,382.367188 145.046875,399.867188 134.070312,415.152344 C128.234375,423.277344 140.507812,431.902344 146.253906,423.902344 C156.792969,409.230469 162.667969,393.242188 166.257812,381.121094 C167.042969,381.6875 167.835938,382.25 168.632812,382.800781 C170.570312,396.722656 177.171875,458.75 147.6875,496.980469 L147.6875,496.980469 Z M233.445312,393.132812 L233.445312,118.863281 C248.355469,116.445312 263.757812,116.445312 278.683594,118.882812 L278.683594,393.109375 C263.777344,395.546875 248.375,395.554688 233.445312,393.132812 L233.445312,393.132812 Z M354.25,354.246094 C354.140625,354.355469 354.03125,354.464844 353.921875,354.570312 L353.921875,220.976562 C353.921875,211.0625 338.921875,211.046875 338.921875,220.976562 L338.921875,367.519531 C325.257812,377.726562 309.957031,385.242188 293.683594,389.800781 L293.683594,122.195312 C309.957031,126.753906 325.257812,134.269531 338.921875,144.476562 L338.921875,190.960938 C338.921875,200.871094 353.921875,200.890625 353.921875,190.960938 L353.921875,157.425781 C354.03125,157.53125 354.140625,157.640625 354.25,157.75 C408.550781,212.046875 408.554688,299.9375 354.25,354.246094 L354.25,354.246094 Z M382.804688,168.632812 C382.253906,167.835938 381.691406,167.042969 381.125,166.253906 C393.859375,162.488281 410.777344,156.226562 426.054688,144.667969 C433.960938,138.683594 424.925781,126.714844 417,132.703125 C401.257812,144.617188 382.882812,150.324219 370.910156,153.546875 C368.117188,150.421875 365.210938,147.421875 362.175781,144.523438 C365.640625,132.105469 371.316406,114.167969 382.6875,98.804688 C388.582031,90.835938 376.539062,81.902344 370.628906,89.882812 C359.796875,104.515625 353.554688,121.152344 349.679688,133.804688 C347.609375,132.210938 345.503906,130.675781 343.367188,129.195312 C338.257812,92.613281 341.617188,44.46875 364.3125,15.015625 C367.3125,13.894531 371.476562,31.621094 388.523438,48.667969 C407.953125,68.097656 414.257812,62.902344 431.671875,80.316406 C449.085938,97.730469 443.851562,103.992188 463.324219,123.46875 C473.472656,133.617188 480.496094,137.339844 486.695312,140.625 C489.265625,141.988281 497.015625,145.988281 497.039062,147.609375 C467.515625,170.402344 419.367188,173.734375 382.804688,168.632812 L382.804688,168.632812 Z" id="Shape" fill="#F4E7D9" fill-rule="nonzero"></path>
    </g>
</svg>