<?xml version="1.0" encoding="UTF-8"?>
<svg width="512px" height="511px" viewBox="0 0 512 511" version="1.1" xmlns="http://www.w3.org/2000/svg" xmlns:xlink="http://www.w3.org/1999/xlink">
    <!-- Generator: Sketch 56.3 (81716) - https://sketch.com -->
    <title>icon / clean</title>
    <desc>Created with Sketch.</desc>
    <g id="icon-/-clean" stroke="none" stroke-width="1" fill="none" fill-rule="evenodd">
        <path d="M273.41544,43 C270.208903,43 267.209909,44.5797037 265.395206,47.2250908 C260.091189,54.9548652 135.492834,237.604696 135.492834,329.984262 C135.492834,406.086519 197.363954,468 273.414143,468 C349.464331,468 411.334154,406.086519 411.334154,329.984262 C411.334154,237.604696 286.737097,54.9548652 281.43308,47.2250908 C279.620971,44.5810017 276.62068,43 273.41544,43 Z M273.41544,448.529536 C208.09392,448.529536 154.951274,395.350505 154.951274,329.984262 C154.951274,256.507921 245.58524,112.702965 273.41544,70.2833128 C301.24564,112.702965 391.878309,256.506623 391.878309,329.984262 C391.878309,395.350505 338.735663,448.529536 273.41544,448.529536 Z M478.32229,131.40269 L477.962466,131.40269 C473.644579,131.40269 434.783601,132.849987 434.783601,178.439814 C434.783601,180.972582 432.624658,183.143527 430.465714,182.781703 C427.946947,182.781703 425.788004,180.610758 425.788004,178.07799 C425.788004,132.488163 387.286849,131.040866 382.609139,131.040866 C380.090372,131.040866 377.931429,128.869922 377.931429,126.337154 C377.931429,123.804386 379.730548,121.995266 382.249315,121.633442 C382.249315,121.633442 382.249315,121.633442 382.609139,121.633442 C386.927025,121.633442 425.788004,120.186146 425.788004,74.5963179 C425.788004,72.0635497 427.946947,69.8926055 430.465714,69.8926055 C432.984481,69.8926055 435.143425,72.0635497 435.143425,74.5963179 C435.143425,120.186146 474.004403,121.633442 478.32229,121.633442 C480.841057,121.633442 483,123.804386 483,126.337154 C483,129.231746 480.841057,131.40269 478.32229,131.40269 Z M429.817143,152.966587 C435.582222,139.803456 445.310794,131.393678 455.76,127.005968 C446.031429,122.618258 435.582222,114.939765 429.817143,101.045349 C424.052063,114.20848 414.323492,122.618258 403.874286,127.005968 C413.602857,131.393678 424.052063,139.072171 429.817143,152.966587 Z M109.560568,297.104517 C111.5818,297.104517 113.314286,298.849699 113.314286,300.885743 C113.314286,303.212652 111.5818,304.957833 109.560568,304.957833 L109.27182,304.957833 C105.806849,304.957833 74.6221135,306.121287 74.6221135,342.770091 C74.6221135,345.096999 72.8896282,346.84218 71.1571429,346.260453 C69.13591,346.260453 67.4034247,344.515272 67.4034247,342.479228 C67.4034247,305.830423 36.5074364,304.666969 32.7537182,304.666969 C30.7324853,304.666969 29,302.921788 29,300.885743 C29,298.849699 30.4437378,297.395381 32.4649706,297.104517 C32.4649706,297.104517 32.4649706,297.104517 32.7537182,297.104517 C36.2186888,297.104517 67.4034247,295.941063 67.4034247,259.292259 C67.4034247,257.256214 69.13591,255.511033 71.1571429,255.511033 C73.1783757,255.511033 74.9108611,257.256214 74.9108611,259.292259 C74.9108611,295.941063 106.095597,297.104517 109.560568,297.104517 Z M70.5085714,321.710612 C75.1206349,311.180108 82.9034921,304.452285 91.2628571,300.942117 C83.48,297.431949 75.1206349,291.289154 70.5085714,280.173622 C65.8965079,290.704126 58.1136508,297.431949 49.7542857,300.942117 C57.5371429,304.452285 65.608254,310.59508 70.5085714,321.710612 Z M264,413.294711 C264,418.654619 268.343812,423 273.704673,423 C324.595981,423 366,381.595943 366,330.705289 C366,325.345381 361.656188,321 356.295327,321 C350.934465,321 346.590653,325.345381 346.590653,330.705289 C346.590653,370.894244 313.893667,403.589422 273.704673,403.589422 C268.343812,403.589422 264,407.934803 264,413.294711 Z" id="Shape" fill="#F4E7D9" fill-rule="nonzero"></path>
    </g>
</svg>