<?xml version="1.0" encoding="UTF-8"?>
<svg width="512px" height="512px" viewBox="0 0 512 512" version="1.1" xmlns="http://www.w3.org/2000/svg" xmlns:xlink="http://www.w3.org/1999/xlink">
    <!-- Generator: Sketch 56.3 (81716) - https://sketch.com -->
    <title>icon / cuchillo</title>
    <desc>Created with Sketch.</desc>
    <g id="icon-/-cuchillo" stroke="none" stroke-width="1" fill="none" fill-rule="evenodd">
        <path d="M89.6510719,500.335283 L219.159844,370.818714 C230.85575,382.51462 249.799221,382.51462 261.499025,370.814814 L268.551657,363.762183 L282.660819,377.871345 C286.559454,381.766082 292.875244,381.766082 296.773879,377.871345 L379.471735,295.169591 C394.017544,280.62768 407.467836,264.787525 419.452242,248.085769 C422.664718,243.610137 421.639376,237.376219 417.159844,234.163743 C412.684211,230.951267 406.450292,231.976609 403.237817,236.452241 C391.88499,252.272904 379.140351,267.282652 365.362573,281.060429 L289.717349,356.705653 L219.163742,286.148148 L470.497076,34.8148143 C469.45614,80.7914233 459.526315,126.721248 441.382066,168.923976 C439.202729,173.984406 441.545809,179.851852 446.606238,182.031189 C451.670566,184.206627 457.538012,181.867446 459.71345,176.807018 C482.118908,124.697856 492.65692,67.2046789 490.192982,10.5419103 C490.021442,6.58869346 487.530214,3.11111161 483.842106,1.67641375 C480.150097,0.241715899 475.962962,1.12280702 473.167641,3.92202779 L33.2027285,443.886939 C17.6003899,459.48538 17.5925931,484.729045 33.2066279,500.339181 C48.7660814,515.886939 74.087719,515.886939 89.6510719,500.335283 Z M47.3118906,457.996101 L205.050682,300.261208 L254.438596,349.653022 L247.385965,356.705653 C243.487329,360.604289 237.17154,360.604289 233.269006,356.705653 L226.216375,349.649123 C222.321638,345.758285 215.99805,345.754386 212.103313,349.649123 L75.5419108,486.222222 C67.7602334,493.996102 55.0974654,493.996102 47.31579,486.222222 C39.5107212,478.421053 39.5107212,465.80117 47.3118906,457.996101 Z" id="Shape" fill="#F4E7D9" fill-rule="nonzero"></path>
        <path d="M442.653021,208.549707 C442.653021,214.058479 438.189084,218.526316 432.676414,218.526316 C427.163742,218.526316 422.699805,214.058479 422.699805,208.549707 C422.699805,203.037037 427.163742,198.569201 432.676414,198.569201 C438.189084,198.569201 442.653021,203.037037 442.653021,208.549707 L442.653021,208.549707 Z" id="Path" fill="#F4E7D9" fill-rule="nonzero"></path>
    </g>
</svg>