<?xml version="1.0" encoding="UTF-8"?>
<svg width="512px" height="512px" viewBox="0 0 512 512" version="1.1" xmlns="http://www.w3.org/2000/svg" xmlns:xlink="http://www.w3.org/1999/xlink">
    <!-- Generator: Sketch 56.3 (81716) - https://sketch.com -->
    <title>icon / culture</title>
    <desc>Created with Sketch.</desc>
    <g id="icon-/-culture" stroke="none" stroke-width="1" fill="none" fill-rule="evenodd">
        <g id="signal" transform="translate(56.000000, 0.000000)" fill="#F4E7D9" fill-rule="nonzero">
            <path d="M70,346 C75.519531,346 80,341.519531 80,336 C80,330.480469 75.519531,326 70,326 C64.480469,326 60,330.480469 60,336 C60,341.519531 64.480469,346 70,346 Z" id="Path"></path>
            <path d="M360,0 C350.21875,0 340.824219,3.601562 333.570312,10 L10,10 C4.476562,10 0,14.476562 0,20 L0,60 C0,65.523438 4.476562,70 10,70 L80,70 L80,100 L30,100 C24.476562,100 20,104.476562 20,110 L20,502 C20,505.742188 22.089844,509.167969 25.410156,510.886719 C28.738281,512.601562 32.738281,512.320312 35.789062,510.152344 L170.785156,414.289062 L304.164062,510.121094 C307.214844,512.3125 311.230469,512.609375 314.5625,510.898438 C317.902344,509.1875 320,505.75 320,502 L320,110 C320,104.476562 315.523438,100 310,100 L260,100 L260,70 L333.574219,70 C340.824219,76.398438 350.21875,80 360,80 C382.054688,80 400,62.054688 400,40 C400,17.945312 382.054688,0 360,0 Z M300,120 L300,482.5 L176.65625,393.878906 C173.183594,391.386719 168.515625,391.371094 165.03125,393.847656 L40,482.632812 L40,120 L300,120 Z M100,100 L100,70 L240,70 L240,100 L100,100 Z M321.277344,50 L20,50 L20,29.988281 L321.28125,29.988281 C320.441406,33.230469 320,36.597656 320,40 C320,43.40625 320.441406,46.761719 321.277344,50 Z M360,60 C349.019531,60 340,51.058594 340,40 C340,28.933594 349.03125,20 360,20 C371.027344,20 380,28.972656 380,40 C380,51.027344 371.027344,60 360,60 Z" id="Shape"></path>
            <path d="M130,346 L210,346 C215.523438,346 220,341.523438 220,336 L220,326 L230,326 C246.542969,326 260,312.542969 260,296 L260,276 C260,259.457031 246.542969,246 230,246 L220,246 C220,243.367188 220,223.566406 220,216 C220,199.457031 206.542969,186 190,186 L150,186 C133.457031,186 120,199.457031 120,216 L120,336 C120,341.523438 124.476562,346 130,346 Z M220,266 L230,266 C235.515625,266 240,270.484375 240,276 L240,296 C240,301.515625 235.515625,306 230,306 L220,306 L220,266 Z M140,216 C140,210.484375 144.484375,206 150,206 L190,206 C195.515625,206 200,210.484375 200,216 L200,226 L140,226 L140,216 Z M140,246 L200,246 L200,326 L140,326 L140,246 Z" id="Shape"></path>
            <path d="M70,306 C75.523438,306 80,301.523438 80,296 L80,216 C80,210.476562 75.523438,206 70,206 C64.476562,206 60,210.476562 60,216 L60,296 C60,301.523438 64.476562,306 70,306 Z" id="Path"></path>
        </g>
    </g>
</svg>