<?xml version="1.0" encoding="UTF-8"?>
<svg width="512px" height="512px" viewBox="0 0 512 512" version="1.1" xmlns="http://www.w3.org/2000/svg" xmlns:xlink="http://www.w3.org/1999/xlink">
    <!-- Generator: Sketch 56.3 (81716) - https://sketch.com -->
    <title>icon / dificultad</title>
    <desc>Created with Sketch.</desc>
    <g id="icon-/-dificultad" stroke="none" stroke-width="1" fill="none" fill-rule="evenodd">
        <path d="M314.687917,391.211315 C310.231485,380.745588 299.93953,373.984197 288.465497,373.984197 L259.650387,373.984197 C252.116613,373.984197 244.75621,377.017855 239.452622,382.309208 L236.37134,385.381858 C234.401211,387.343207 231.698193,388.177657 228.951833,387.65905 C226.205473,387.144343 223.994987,385.393556 222.891715,382.851211 L190.278196,307.91832 C185.778421,297.57737 175.517988,290.897865 164.142462,290.897865 L112.59206,290.897865 L66.1600541,186.786496 C61.6129963,176.585921 51.3959063,170 40.1307071,170 L11.0870617,170 C5.5155357,170 1,174.468601 1,179.982214 C1,185.491928 5.5155357,189.964427 11.0870617,189.964427 L40.1307071,189.964427 C43.4090022,189.964427 46.3799565,191.878985 47.7038834,194.850253 L90.7039248,291.260501 C75.916134,293.178957 63.1536376,302.689355 57.306293,316.590369 L39.8194264,358.133534 C37.6798658,363.222123 40.1110061,369.067177 45.2530431,371.184499 C46.5218059,371.707005 47.8339127,371.952661 49.1302575,371.952661 C53.0783959,371.952661 56.829522,369.644274 58.4450285,365.807361 L75.9279551,324.264195 C79.3559804,316.122452 87.3271226,310.862293 96.2399877,310.862293 L164.142462,310.862293 C167.452279,310.862293 170.438994,312.804146 171.747161,315.814407 L204.36068,390.747298 C208.103925,399.353058 215.893816,405.529553 225.192826,407.27644 C234.495777,409.019429 244.027262,406.091052 250.690239,399.442742 L253.771521,396.370091 C255.316103,394.833767 257.455663,393.948625 259.650387,393.948625 L288.465497,393.948625 C291.806836,393.948625 294.797493,395.917773 296.093837,398.963128 L341.615643,505.889793 C343.23903,509.703311 346.978336,512 350.914653,512 C352.222819,512 353.546746,511.746546 354.827331,511.212341 C359.961487,509.071624 362.368985,503.218771 360.205783,498.13798 L314.687917,391.211315 Z" id="Path" fill="#F4E7D9" fill-rule="nonzero"></path>
        <path d="M502.466562,306.40451 L488.284867,292.367896 C488.111488,292.196241 487.930226,292.028489 487.745025,291.868539 L486.75203,291.021972 C482.535744,287.417238 476.16403,287.881484 472.523049,292.055797 C468.88601,296.23011 469.350983,302.538393 473.57121,306.143127 L474.284432,306.747818 L488.198177,320.526951 C493.048877,325.329362 493.048877,333.135716 488.198177,337.938127 L459.417098,366.432688 C454.570339,371.235099 446.681549,371.235099 441.826909,366.428787 L434.745912,359.433887 L456.000723,338.285336 C459.933297,334.372405 459.917536,328.052418 455.96526,324.158994 C452.016925,320.269471 445.629447,320.285074 441.700814,324.194104 L421.02525,344.769176 L254.478001,153.332069 L272.954792,135.043117 L404.841803,247.527193 C409.06203,251.128026 415.433744,250.655976 419.066844,246.477763 C422.703884,242.299549 422.231029,235.991265 418.006862,232.394333 L287.258641,120.877762 L390.872892,18.2989011 C393.62333,15.5719443 394.549337,11.5224702 393.241105,7.88652675 C391.936815,4.25448424 388.634714,1.69137841 384.761247,1.30125571 C383.882526,1.21152824 362.879903,-0.785899937 332.380786,6.83319598 C306.247692,13.3599484 267.914951,28.473301 229.92897,63.4087883 L225.842718,59.3593152 C221.902264,55.4619893 215.514788,55.4619893 211.574333,59.3593152 L178.94737,91.6653751 C175.006916,95.562701 175.006916,101.88659 178.94737,105.787817 L183.037561,109.83729 C147.746851,147.445117 132.481531,185.396253 125.88915,211.269189 C118.197383,241.464687 120.214895,262.258226 120.301586,263.1282 C120.699572,266.963106 123.288451,270.232334 126.957013,271.52364 C128.060341,271.913763 129.203073,272.101022 130.337924,272.101022 C132.970147,272.101022 135.547204,271.082802 137.474087,269.175101 L240.174151,167.497424 L412.848806,365.980146 C413.014306,366.167405 413.183746,366.350762 413.365006,366.530219 L427.566404,380.562932 C433.922358,386.855611 442.27218,390 450.622003,390 C458.971827,390 467.32559,386.855611 473.681543,380.562932 L502.462622,352.064469 C515.178469,339.47521 515.178469,318.993769 502.466562,306.40451 L502.466562,306.40451 Z M336.388229,26.43296 C344.564671,24.3497044 351.980607,23.0388921 358.368083,22.2274369 L273.352778,106.400309 L244.201296,77.5429336 C278.565999,46.1224525 312.942524,32.4135406 336.388229,26.43296 Z M218.706555,80.5468789 L222.64701,84.4481058 C222.654891,84.4559077 222.658831,84.4598087 222.662771,84.4637097 L259.084392,120.52275 L240.725815,138.702468 L204.300254,102.643428 L200.347978,98.7265953 L218.706555,80.5468789 Z M197.305948,123.967534 L226.457429,152.828811 L141.446065,236.99388 C144.854558,210.914179 156.900527,167.243844 197.305948,123.967534 Z" id="Shape" fill="#F4E7D9" fill-rule="nonzero"></path>
        <path d="M82.8769973,172.023695 C84.8107553,174.572409 87.8175113,176 90.9264572,176 C91.9483623,176 92.9781267,175.844827 93.9882393,175.526723 C98.0679954,174.242667 100.878232,170.545673 100.984352,166.321091 L102.996717,88.1837782 C103.079256,84.9872165 101.601426,81.9497078 99.0191518,80.0178047 C96.4408092,78.0859017 93.0763864,77.5001247 89.9831611,78.4389202 L40.1063811,93.5682778 C36.9738523,94.5187125 34.5055608,96.9161333 33.491517,99.9885566 C32.4814044,103.064859 33.047382,106.432111 35.0125822,109.019619 L82.8769973,172.023695 Z M82.5232617,101.482096 L81.6035486,137.24169 L59.6954965,108.406686 L82.5232617,101.482096 Z" id="Shape" fill="#F4E7D9" fill-rule="nonzero"></path>
        <path d="M268.703453,223.68681 C267.651232,220.679182 265.205209,218.350696 262.119216,217.427062 C259.037148,216.50343 255.692026,217.097194 253.128217,219.022076 L196.975704,261.152153 C193.536352,263.732893 192.150403,268.191943 193.524574,272.235747 C194.90267,276.275672 198.738567,279 203.053461,279 L273.948857,279 C277.19975,279 280.250408,277.447676 282.134984,274.828129 C284.023486,272.212463 284.510335,268.855562 283.446335,265.820768 L268.703453,223.68681 Z M232.916139,259.130251 L254.239332,243.13355 L259.834167,259.130251 L232.916139,259.130251 Z" id="Shape" fill="#F4E7D9" fill-rule="nonzero"></path>
        <path d="M45.2540414,402.182127 C43.6420183,398.313921 39.6667381,395.787266 35.4684356,396.014117 C31.297521,396.240969 27.6391684,399.115723 26.4223255,403.101266 C25.209395,407.082898 26.6688244,411.584723 30.033726,414.056621 C33.3164625,416.462027 37.816042,416.657588 41.2826736,414.514235 C45.3909854,411.975846 47.1125634,406.640929 45.2540414,402.182127 L45.2540414,402.182127 Z" id="Path" fill="#F4E7D9" fill-rule="nonzero"></path>
        <path d="M436.747565,273.822377 C438.363316,277.692328 442.306843,280.184906 446.492928,279.989256 C450.671189,279.793607 454.360422,276.89799 455.577126,272.89891 C456.797741,268.884177 455.315006,264.388146 451.915279,261.91122 C448.644654,259.532119 444.157328,259.356035 440.718478,261.484704 C436.610637,264.024237 434.885344,269.353736 436.747565,273.822377 Z" id="Path" fill="#F4E7D9" fill-rule="nonzero"></path>
        <path d="M219.635182,308.512741 C217.69154,313.684007 220.358122,319.436797 225.592527,321.356994 L277.359793,340.367739 C278.521238,340.797052 279.710336,341 280.883633,341 C284.988195,341 288.847828,338.509986 290.364818,334.486157 C292.308461,329.310987 289.641877,323.562101 284.407474,321.637999 L232.640207,302.631158 C227.401852,300.703154 221.582775,303.341474 219.635182,308.512741 L219.635182,308.512741 Z" id="Path" fill="#F4E7D9" fill-rule="nonzero"></path>
        <path d="M131.882598,117.77414 C132.591884,117.926011 133.293376,118 133.987074,118 C138.589639,118 142.728441,114.799014 143.733913,110.122148 L152.775364,68.0615094 C153.932825,62.6798032 150.503309,57.3798748 145.113514,56.2233145 C139.723718,55.0706482 134.423557,58.4936002 133.266096,63.8753054 L124.224645,105.935945 C123.067183,111.317651 126.496699,116.617579 131.882598,117.77414 Z" id="Path" fill="#F4E7D9" fill-rule="nonzero"></path>
    </g>
</svg>