<?xml version="1.0" encoding="UTF-8"?>
<svg width="512px" height="512px" viewBox="0 0 512 512" version="1.1" xmlns="http://www.w3.org/2000/svg" xmlns:xlink="http://www.w3.org/1999/xlink">
    <!-- Generator: Sketch 56.3 (81716) - https://sketch.com -->
    <title>icon / event copy</title>
    <desc>Created with Sketch.</desc>
    <defs>
        <path d="M455.383988,150.123917 C455.327591,150.106292 455.271195,150.085144 455.214798,150.071045 L417.207092,140.342651 C352.122025,120.907013 292.528564,89.2580111 240.023438,46.2662663 L240.023438,9.0234375 C240.023438,4.03939774 235.98404,0 231,0 C226.01596,0 221.976562,4.03939774 221.976562,9.0234375 L221.976562,46.2662663 C169.6512,89.0923462 110.297424,120.656754 45.4837646,140.092392 C36.7740324,142.341202 7.31391929,149.926529 6.59838867,150.127441 C2.71408036,151.209549 0.0845947266,154.71318 0.0105743859,158.636261 C0.00704956055,158.692658 0,158.752579 0,158.8125 L0,231 C0,235.98404 4.03939774,240.023438 9.0234375,240.023438 L23.4609375,240.023438 L23.4609375,443.953125 L14.4375,443.953125 C9.45346024,443.953125 5.4140625,447.992523 5.4140625,452.976562 C5.4140625,457.960602 9.45346024,462 14.4375,462 L140.765625,462 C145.749665,462 149.789062,457.960602 149.789062,452.976562 C149.789062,447.992523 145.749665,443.953125 140.765625,443.953125 L131.742188,443.953125 L131.742188,289.338639 C137.099854,292.429871 143.285843,294.164062 149.789062,294.164062 C160.109619,294.164062 169.859162,289.853256 176.86995,281.915451 C183.489486,289.419709 193.161484,294.164062 203.929688,294.164062 C214.271393,294.164062 224.013885,289.839157 231.010575,281.915451 C237.630111,289.419709 247.302109,294.164062 258.070312,294.164062 C268.412018,294.164062 278.15451,289.839157 285.1512,281.915451 C291.770736,289.419709 301.442734,294.164062 312.210938,294.164062 C318.650711,294.164062 324.829651,292.479217 330.257812,289.331589 L330.257812,443.953125 L321.234375,443.953125 C316.250335,443.953125 312.210938,447.992523 312.210938,452.976562 C312.210938,457.960602 316.250335,462 321.234375,462 L447.5625,462 C452.54654,462 456.585938,457.960602 456.585938,452.976562 C456.585938,447.992523 452.54654,443.953125 447.5625,443.953125 L438.539062,443.953125 L438.539062,240.023437 L452.976562,240.023437 C457.960602,240.023437 462,235.98404 462,231 L462,158.8125 C462,158.752579 461.992951,158.692658 461.989425,158.632736 C461.911881,154.642685 459.218949,151.181351 455.383988,150.123917 L455.383988,150.123917 Z M231.059947,62 C278.259035,100.360337 330.934417,129.884905 388,150 L247.591088,150 C242.611999,138.571934 240.087191,126.400177 240.087191,113.736166 C240.087191,108.72864 236.046089,104.670208 231.059947,104.670208 C226.073804,104.670208 222.032702,108.72864 222.032702,113.736166 C222.032702,126.400177 219.507895,138.575476 214.528806,150 L74,150 C131.111426,129.895529 183.82207,100.374502 231.059947,62 Z M69,444 L42,444 L42,240 L69,240 L69,444 Z M114,444 L87,444 L87,240 L114,240 L114,444 Z M123.523435,203.641476 C121.001821,203.420035 118.501365,204.26362 116.632196,205.968366 C114.766553,207.673111 113.701479,210.080843 113.701479,212.60457 L113.701479,222 C83.1811145,222 48.4674633,222 18,222 L18,204.003515 L50.5023891,204.003515 C55.4891927,204.003515 59.5308305,199.975396 59.5308305,195.005273 C59.5308305,190.035149 55.4891927,186.00703 50.5023891,186.00703 L18,186.00703 L18,168 L204,168 C185.435267,192.720563 155.299318,206.432338 123.523435,203.641476 Z M150,276 C142.230469,276 135.371485,271.049385 132.917578,263.667382 C132.309375,261.850869 132,259.946516 132,258 L168,258 C168,267.964474 159.921094,276 150,276 Z M204,276 C194.07539,276 186,267.922311 186,258 L222,258 C222,267.964474 213.921094,276 204,276 Z M258,276 C248.07539,276 240,267.922311 240,258 L276,258 C276,267.964474 267.921094,276 258,276 Z M312,276 C302.07539,276 294,267.922311 294,258 L330,258 C330,267.795823 322.079297,276 312,276 Z M330,240 L132,240 L132,221.949166 C175.214063,221.928016 213.885938,196.386844 231,157 C248.078906,196.337495 286.729688,221.931541 330,221.949166 L330,240 Z M375,444 L348,444 C348,441.260302 348,245.010439 348,240 L375,240 L375,444 Z M420,444 L393,444 L393,240 L420,240 L420,444 Z M444,186 L411.497611,186 C406.510807,186 402.46917,190.028906 402.46917,195 C402.46917,199.971094 406.510807,204 411.497611,204 L444,204 L444,222 C412.234698,222 366.619909,222 348.298521,222 L348.298521,212.602735 C348.298521,210.078515 347.233447,207.670312 345.367804,205.965235 C343.498635,204.260156 340.998179,203.41289 338.476565,203.63789 C306.693629,206.425781 276.557679,192.721875 258,168 L444,168 L444,186 Z M86,186 C90.9675779,186 95,190.032422 95,195 C95,199.967578 90.9675779,204 86,204 C81.0324221,204 77,199.967578 77,195 C77,190.032422 81.0324221,186 86,186 Z" id="path-1"></path>
    </defs>
    <g id="icon-/-event-copy" stroke="none" stroke-width="1" fill="none" fill-rule="evenodd">
        <g id="Rectangle" transform="translate(27.000000, 23.000000)">
            <mask id="mask-2" fill="white">
                <use xlink:href="#path-1"></use>
            </mask>
            <use id="Mask" fill="#F4E7D9" fill-rule="nonzero" xlink:href="#path-1"></use>
            <rect fill="#7A0404" mask="url(#mask-2)" x="-27" y="-23" width="512" height="512"></rect>
        </g>
    </g>
</svg>