<?xml version="1.0" encoding="UTF-8"?>
<svg width="512px" height="512px" viewBox="0 0 512 512" version="1.1" xmlns="http://www.w3.org/2000/svg" xmlns:xlink="http://www.w3.org/1999/xlink">
    <!-- Generator: Sketch 56.3 (81716) - https://sketch.com -->
    <title>icon / event</title>
    <desc>Created with Sketch.</desc>
    <g id="icon-/-event" stroke="none" stroke-width="1" fill="none" fill-rule="evenodd">
        <path d="M482.383988,173.123917 C482.327591,173.106292 482.271195,173.085144 482.214798,173.071045 L444.207092,163.342651 C379.122025,143.907013 319.528564,112.258011 267.023438,69.2662663 L267.023438,32.0234375 C267.023438,27.0393977 262.98404,23 258,23 C253.01596,23 248.976562,27.0393977 248.976562,32.0234375 L248.976562,69.2662663 C196.6512,112.092346 137.297424,143.656754 72.4837646,163.092392 C63.7740324,165.341202 34.3139193,172.926529 33.5983887,173.127441 C29.7140804,174.209549 27.0845947,177.71318 27.0105744,181.636261 C27.0070496,181.692658 27,181.752579 27,181.8125 L27,254 C27,258.98404 31.0393977,263.023438 36.0234375,263.023438 L50.4609375,263.023438 L50.4609375,466.953125 L41.4375,466.953125 C36.4534602,466.953125 32.4140625,470.992523 32.4140625,475.976562 C32.4140625,480.960602 36.4534602,485 41.4375,485 L167.765625,485 C172.749665,485 176.789062,480.960602 176.789062,475.976562 C176.789062,470.992523 172.749665,466.953125 167.765625,466.953125 L158.742188,466.953125 L158.742188,312.338639 C164.099854,315.429871 170.285843,317.164062 176.789062,317.164062 C187.109619,317.164062 196.859162,312.853256 203.86995,304.915451 C210.489486,312.419709 220.161484,317.164062 230.929688,317.164062 C241.271393,317.164062 251.013885,312.839157 258.010575,304.915451 C264.630111,312.419709 274.302109,317.164062 285.070312,317.164062 C295.412018,317.164062 305.15451,312.839157 312.1512,304.915451 C318.770736,312.419709 328.442734,317.164062 339.210938,317.164062 C345.650711,317.164062 351.829651,315.479217 357.257812,312.331589 L357.257812,466.953125 L348.234375,466.953125 C343.250335,466.953125 339.210938,470.992523 339.210938,475.976562 C339.210938,480.960602 343.250335,485 348.234375,485 L474.5625,485 C479.54654,485 483.585938,480.960602 483.585938,475.976562 C483.585938,470.992523 479.54654,466.953125 474.5625,466.953125 L465.539062,466.953125 L465.539062,263.023437 L479.976562,263.023437 C484.960602,263.023437 489,258.98404 489,254 L489,181.8125 C489,181.752579 488.992951,181.692658 488.989425,181.632736 C488.911881,177.642685 486.218949,174.181351 482.383988,173.123917 L482.383988,173.123917 Z M258.059947,85 C305.259035,123.360337 357.934417,152.884905 415,173 L274.591088,173 C269.611999,161.571934 267.087191,149.400177 267.087191,136.736166 C267.087191,131.72864 263.046089,127.670208 258.059947,127.670208 C253.073804,127.670208 249.032702,131.72864 249.032702,136.736166 C249.032702,149.400177 246.507895,161.575476 241.528806,173 L101,173 C158.111426,152.895529 210.82207,123.374502 258.059947,85 Z M96,467 L69,467 L69,263 L96,263 L96,467 Z M141,467 L114,467 L114,263 L141,263 L141,467 Z M150.523435,226.641476 C148.001821,226.420035 145.501365,227.26362 143.632196,228.968366 C141.766553,230.673111 140.701479,233.080843 140.701479,235.60457 L140.701479,245 C110.181114,245 75.4674633,245 45,245 L45,227.003515 L77.5023891,227.003515 C82.4891927,227.003515 86.5308305,222.975396 86.5308305,218.005273 C86.5308305,213.035149 82.4891927,209.00703 77.5023891,209.00703 L45,209.00703 L45,191 L231,191 C212.435267,215.720563 182.299318,229.432338 150.523435,226.641476 Z M177,299 C169.230469,299 162.371485,294.049385 159.917578,286.667382 C159.309375,284.850869 159,282.946516 159,281 L195,281 C195,290.964474 186.921094,299 177,299 Z M231,299 C221.07539,299 213,290.922311 213,281 L249,281 C249,290.964474 240.921094,299 231,299 Z M285,299 C275.07539,299 267,290.922311 267,281 L303,281 C303,290.964474 294.921094,299 285,299 Z M339,299 C329.07539,299 321,290.922311 321,281 L357,281 C357,290.795823 349.079297,299 339,299 Z M357,263 L159,263 L159,244.949166 C202.214063,244.928016 240.885938,219.386844 258,180 C275.078906,219.337495 313.729688,244.931541 357,244.949166 L357,263 Z M402,467 L375,467 C375,464.260302 375,268.010439 375,263 L402,263 L402,467 Z M447,467 L420,467 L420,263 L447,263 L447,467 Z M471,209 L438.497611,209 C433.510807,209 429.46917,213.028906 429.46917,218 C429.46917,222.971094 433.510807,227 438.497611,227 L471,227 L471,245 C439.234698,245 393.619909,245 375.298521,245 L375.298521,235.602735 C375.298521,233.078515 374.233447,230.670312 372.367804,228.965235 C370.498635,227.260156 367.998179,226.41289 365.476565,226.63789 C333.693629,229.425781 303.557679,215.721875 285,191 L471,191 L471,209 Z M113,209 C117.967578,209 122,213.032422 122,218 C122,222.967578 117.967578,227 113,227 C108.032422,227 104,222.967578 104,218 C104,213.032422 108.032422,209 113,209 Z" id="Shape" fill="#F4E7D9" fill-rule="nonzero"></path>
    </g>
</svg>