<?xml version="1.0" encoding="UTF-8"?>
<svg width="512px" height="512px" viewBox="0 0 512 512" version="1.1" xmlns="http://www.w3.org/2000/svg" xmlns:xlink="http://www.w3.org/1999/xlink">
    <!-- Generator: Sketch 56.3 (81716) - https://sketch.com -->
    <title>icon / fruit</title>
    <desc>Created with Sketch.</desc>
    <g id="icon-/-fruit" stroke="none" stroke-width="1" fill="none" fill-rule="evenodd">
        <path d="M508.88,201.58 C508.464,199.302 507.271,197.238 505.502,195.742 C488.942,181.733 486.146,166.286 483.899,153.875 L483.605,152.258 C482.829,148.022 479.427,144.758 475.163,144.158 C473.691,143.951 472.133,143.845 470.532,143.845 C461.015,143.845 447.607,147.855 439.106,156.812 C437.656,158.341 436.725,160.289 436.447,162.378 C435.732,167.752 435.364,172.67 435.04,177.009 C433.815,193.36 432.732,195.094 427.751,196.67 C424.629,197.658 422.189,200.111 421.218,203.237 C416.527,218.339 410.302,232.791 402.768,246.426 C399.047,239.322 394.935,232.932 391.108,226.986 C381.748,212.444 374.354,200.956 376.88,186.719 C385.066,140.575 380.911,105.815 364.527,83.403 C355.403,70.922 342.405,62.413 326.609,58.438 C329.753,33.906 346.801,22.784 356.238,20.255 C361.573,18.826 364.739,13.342 363.309,8.007 C361.879,2.673 356.395,-0.496 351.062,0.936 C331.577,6.157 310.764,25.324 306.789,55.938 C290.829,55.893 276.334,60.767 264.406,70.297 C242.61,87.712 229.441,120.074 225.264,166.482 C224.007,180.447 214.973,188.595 202.468,199.87 C192.261,209.074 180.891,219.35 171.783,234.885 C160.438,230.265 148.268,227.268 135.56,226.183 C139.162,202.631 155.727,191.877 164.981,189.398 C170.316,187.969 173.482,182.485 172.052,177.151 C170.622,171.816 165.138,168.648 159.805,170.08 C154.78,171.426 149.669,173.711 144.778,176.869 C142.503,165.64 136.999,155.108 128.665,146.775 C117.499,135.609 102.652,129.46 86.86,129.46 C81.691,129.46 76.543,130.135 71.558,131.465 C68.101,132.388 65.4,135.089 64.477,138.546 C59.044,158.892 64.91,180.774 79.786,195.653 C90.137,206.004 103.656,212.034 118.156,212.861 C116.892,216.999 115.952,221.403 115.406,226.073 C50.957,230.915 0,284.899 0,350.563 C0,419.402 56.005,475.407 124.843,475.407 C150.427,475.407 174.797,467.803 195.66,453.379 C198.946,454.821 202.243,456.209 205.555,457.515 C235.651,469.386 266.067,475.407 295.956,475.407 C344.032,475.407 388.652,459.698 424.992,429.979 C462.975,398.916 490.969,352.953 505.945,297.059 C510.832,278.829 515.143,235.875 508.88,201.58 Z M215.863,214.724 C229.314,202.594 243.223,190.051 245.184,168.276 C248.853,127.511 259.52,99.803 276.891,85.924 C287.203,77.685 299.949,74.508 314.779,76.49 C329.425,78.445 340.731,84.742 348.382,95.208 C361.422,113.046 364.385,142.66 357.187,183.226 C353.29,205.187 363.966,221.772 374.29,237.812 C380.076,246.801 386.032,256.07 390.082,266.858 C356.379,315.528 305.238,351.021 248.965,364.018 C249.445,359.556 249.689,355.061 249.689,350.563 C249.689,305.454 225.638,265.857 189.688,243.916 C197.17,231.602 206.644,223.038 215.863,214.724 Z M93.926,181.51 C85.525,173.108 81.467,161.327 82.693,149.679 C84.075,149.533 85.464,149.458 86.858,149.458 C97.307,149.458 107.132,153.527 114.52,160.915 C122.922,169.317 126.981,181.099 125.754,192.746 C124.373,192.892 122.983,192.966 121.592,192.966 L121.59,192.966 C111.138,192.967 101.314,188.898 93.926,181.51 Z M124.843,455.407 C67.032,455.407 20,408.375 20,350.563 C20,292.751 67.032,245.719 124.843,245.719 C182.655,245.719 229.688,292.751 229.688,350.563 C229.688,356.327 229.217,362.081 228.286,367.742 C221.853,368.572 215.376,369.099 208.869,369.321 C210.239,363.188 210.955,356.921 210.955,350.563 C210.955,339.301 208.788,328.307 204.515,317.888 C202.42,312.78 196.581,310.334 191.468,312.431 C186.359,314.527 183.915,320.368 186.011,325.478 C189.292,333.477 190.955,341.916 190.955,350.563 C190.955,356.851 190.064,363.028 188.322,369.009 C174.01,368.088 159.677,365.723 145.555,361.939 C142.679,361.168 139.607,361.72 137.178,363.444 C128.29,369.754 119.332,377.691 114.02,392.909 C112.651,396.831 113.849,401.191 117.03,403.863 C135.4,419.294 154.593,432.375 174.363,442.994 C159.23,451.145 142.38,455.407 124.843,455.407 Z M486.627,291.884 C459.19,394.277 387.912,455.407 295.957,455.407 C242.275,455.407 185.61,433.398 135.665,393.288 C138.312,388.536 141.585,385.265 145.102,382.473 C163.88,387.106 182.976,389.452 201.939,389.452 C255.608,389.452 307.357,371.163 351.591,336.562 C374.08,318.971 393.571,297.774 409.184,274.27 C409.37,274.018 409.545,273.758 409.706,273.49 C422.031,254.791 431.903,234.644 438.865,213.694 C452.88,206.642 453.949,192.358 454.986,178.502 C455.223,175.335 455.466,172.087 455.837,168.66 C458.497,166.734 462.022,165.209 465.556,164.425 C468.221,177.14 473.403,193.461 489.778,208.532 C494.411,237.994 491.047,275.387 486.627,291.884 Z M322.502,97.069 C346.798,107.255 345.078,147.824 339.356,180.064 C338.496,184.91 334.278,188.318 329.521,188.318 C328.941,188.318 328.353,188.267 327.762,188.162 C322.323,187.197 318.697,182.006 319.662,176.568 C326.06,140.515 322.043,118.564 314.768,115.514 C309.674,113.378 307.277,107.518 309.413,102.425 C311.549,97.332 317.412,94.937 322.502,97.069 Z M186.042,289.983 C189.926,293.909 189.892,300.242 185.966,304.125 C184.017,306.053 181.474,307.016 178.933,307.016 C176.356,307.016 173.78,306.027 171.824,304.049 L171.609,303.834 C167.693,299.939 167.676,293.607 171.571,289.691 C175.467,285.775 181.798,285.76 185.713,289.653 L186.042,289.983 Z" id="Shape" fill="#F4E7D9" fill-rule="nonzero"></path>
    </g>
</svg>