<?xml version="1.0" encoding="UTF-8"?>
<svg width="512px" height="512px" viewBox="0 0 512 512" version="1.1" xmlns="http://www.w3.org/2000/svg" xmlns:xlink="http://www.w3.org/1999/xlink">
    <!-- Generator: Sketch 56.3 (81716) - https://sketch.com -->
    <title>icon / gastro copy</title>
    <desc>Created with Sketch.</desc>
    <g id="icon-/-gastro-copy" stroke="none" stroke-width="1" fill="none" fill-rule="evenodd">
        <g id="Rectangle" transform="translate(6.000000, 0.000000)">
            <g id="Mask" fill="#F4E7D9" fill-rule="nonzero">
                <path d="M67.6875,392.820312 C70.238281,398.554688 74.851562,402.945312 80.683594,405.183594 C83.402344,406.230469 86.234375,406.75 89.066406,406.75 C92.3125,406.75 95.554688,406.066406 98.617188,404.703125 C104.351562,402.15625 108.742188,397.539062 110.984375,391.710938 L117.332031,375.191406 C133.625,394.164062 153.707031,409.582031 176.074219,420.144531 C177.109375,420.632812 178.199219,420.863281 179.273438,420.863281 C182.085938,420.863281 184.777344,419.277344 186.058594,416.566406 C187.828125,412.820312 186.226562,408.347656 182.480469,406.582031 C159.578125,395.765625 139.277344,379.382812 123.527344,359.078125 L171.375,234.574219 C172.089844,232.71875 172.035156,230.652344 171.226562,228.835938 C170.417969,227.019531 168.921875,225.597656 167.066406,224.882812 L158.113281,221.445312 L174.933594,177.679688 C178.292969,178.421875 181.71875,178.800781 185.1875,178.800781 C195.871094,178.800781 206.9375,175.289062 217.5,168.402344 C233.046875,158.265625 245.761719,141.871094 253.308594,122.234375 C257.308594,111.828125 259.605469,101.125 260.183594,90.6875 C279.140625,91.914062 297.5,96.492188 314.851562,104.34375 C315.855469,104.800781 316.90625,105.015625 317.9375,105.015625 C320.792969,105.015625 323.523438,103.375 324.777344,100.605469 C326.484375,96.832031 324.808594,92.386719 321.035156,90.679688 C301.609375,81.886719 281.035156,76.847656 259.789062,75.640625 C259.34375,71.652344 258.636719,67.75 257.636719,63.972656 C252.648438,45.160156 241.390625,31.53125 225.941406,25.59375 C210.488281,19.652344 193.003906,22.238281 176.699219,32.867188 C161.152344,43 148.4375,59.394531 140.890625,79.03125 C135.691406,92.558594 133.347656,106.582031 133.945312,119.867188 C133.757812,120.003906 133.574219,120.152344 133.398438,120.3125 C95.3125,154.625 73.472656,204.082031 73.472656,256 C73.472656,279.714844 77.890625,302.726562 86.589844,324.453125 L67.207031,374.886719 C64.96875,380.714844 65.136719,387.085938 67.6875,392.820312 Z M154.890625,84.410156 C161.3125,67.699219 171.96875,53.855469 184.890625,45.429688 C192.949219,40.175781 201.230469,37.492188 209.054688,37.492188 C213.035156,37.492188 216.902344,38.1875 220.558594,39.59375 C231.394531,43.757812 239.410156,53.78125 243.136719,67.816406 C247.089844,82.726562 245.730469,100.140625 239.304688,116.855469 C226.367188,150.511719 196.910156,170.617188 173.636719,161.671875 C162.800781,157.507812 154.78125,147.484375 151.0625,133.449219 C147.105469,118.539062 148.46875,101.125 154.890625,84.410156 Z M88.472656,256 C88.472656,211.46875 105.957031,168.929688 136.726562,137.863281 C140.949219,153.300781 149.429688,165.183594 161,172.113281 L144.109375,216.0625 L137.289062,213.441406 C133.421875,211.957031 129.085938,213.886719 127.597656,217.753906 L94.964844,302.667969 C90.65625,287.601562 88.472656,271.976562 88.472656,256 L88.472656,256 Z M81.210938,380.269531 L138.910156,230.132812 L154.679688,236.195312 L107.96875,357.738281 C107.964844,357.753906 107.957031,357.765625 107.953125,357.78125 L96.980469,386.328125 C96.175781,388.421875 94.59375,390.078125 92.519531,391 C90.445312,391.921875 88.152344,391.988281 86.0625,391.183594 C83.972656,390.382812 82.316406,388.796875 81.394531,386.726562 C80.472656,384.652344 80.40625,382.359375 81.210938,380.269531 L81.210938,380.269531 Z" id="Shape"></path>
                <path d="M448.722656,410.925781 C482.054688,366.105469 499.648438,312.652344 499.648438,256 C499.648438,187.65625 473.6875,123.390625 426.542969,75.046875 C379.351562,26.652344 316.589844,-5.68434189e-14 249.824219,-5.68434189e-14 C197.878906,-5.68434189e-14 148.078125,16.183594 105.804688,46.796875 C64.5,76.707031 33.351562,118.070312 15.726562,166.417969 C14.308594,170.3125 16.3125,174.613281 20.203125,176.035156 C24.097656,177.453125 28.398438,175.449219 29.816406,171.554688 C46.414062,126.03125 75.730469,87.09375 114.601562,58.945312 C154.300781,30.195312 201.058594,15 249.824219,15 C312.511719,15 371.460938,40.042969 415.804688,85.519531 C460.199219,131.046875 484.648438,191.589844 484.648438,256 C484.648438,307.050781 469.496094,355.328125 440.726562,396.363281 L407.503906,335.855469 C408.148438,335.230469 408.703125,334.496094 409.105469,333.636719 C420.433594,309.289062 426.175781,283.167969 426.175781,256 C426.175781,195.679688 396.949219,139.566406 347.996094,105.902344 C344.585938,103.554688 339.914062,104.421875 337.566406,107.832031 C335.21875,111.246094 336.085938,115.914062 339.496094,118.261719 C384.378906,149.128906 411.175781,200.617188 411.175781,256 C411.175781,278.222656 406.988281,299.671875 398.734375,319.878906 L397.789062,318.15625 C395.796875,314.527344 391.238281,313.199219 387.605469,315.191406 L380.199219,319.257812 L348.976562,262.386719 C348.292969,261.140625 347.300781,260.175781 346.15625,259.511719 L346.808594,259.152344 C356.074219,254.066406 362.8125,245.644531 365.78125,235.441406 C368.753906,225.234375 367.589844,214.511719 362.503906,205.25 L330.453125,146.871094 C325.195312,137.300781 313.132812,133.789062 303.558594,139.042969 C298.878906,141.613281 295.648438,145.808594 294.179688,150.546875 C289.394531,149.242188 284.121094,149.714844 279.441406,152.28125 C274.976562,154.734375 271.832031,158.664062 270.277344,163.132812 C265.675781,162.046875 260.667969,162.589844 256.207031,165.039062 C251.582031,167.578125 248.21875,171.78125 246.734375,176.867188 C245.253906,181.957031 245.835938,187.308594 248.375,191.933594 L268.832031,229.191406 C268.957031,229.523438 269.105469,229.847656 269.277344,230.164062 L280.359375,250.347656 C287.574219,263.492188 301.195312,270.933594 315.226562,270.933594 C321.679688,270.933594 328.21875,269.359375 334.265625,266.039062 L334.917969,265.683594 C334.859375,267.007812 335.144531,268.359375 335.828125,269.605469 L367.050781,326.476562 L359.644531,330.542969 C357.902344,331.5 356.609375,333.113281 356.054688,335.023438 C355.496094,336.933594 355.722656,338.984375 356.679688,340.726562 L370.519531,365.929688 C339.859375,401.390625 296.085938,421.65625 249.824219,421.65625 C238.015625,421.65625 226.234375,420.34375 214.816406,417.75 C210.777344,416.832031 206.757812,419.363281 205.839844,423.402344 C204.921875,427.441406 207.453125,431.460938 211.492188,432.378906 C224,435.21875 236.898438,436.65625 249.820312,436.65625 C298.628906,436.65625 344.890625,416.078125 378.175781,379.886719 L407.960938,434.136719 C364.628906,474.6875 308.585938,497 249.824219,497 C187.136719,497 128.191406,471.957031 83.847656,426.480469 C39.449219,380.953125 15,320.410156 15,256 C15,238.847656 16.765625,221.730469 20.242188,205.121094 C21.089844,201.066406 18.492188,197.09375 14.4375,196.242188 C10.386719,195.394531 6.410156,197.992188 5.558594,202.046875 C1.871094,219.664062 -1.70530257e-13,237.816406 -1.70530257e-13,256 C-1.70530257e-13,324.34375 25.960938,388.609375 73.105469,436.953125 C120.300781,485.347656 183.058594,512 249.824219,512 C311.148438,512 369.679688,489.210938 415.40625,447.6875 L437.699219,488.289062 C440.703125,493.765625 445.675781,497.746094 451.703125,499.5 C453.886719,500.136719 456.109375,500.453125 458.320312,500.453125 C462.203125,500.453125 466.046875,499.476562 469.535156,497.558594 C475.011719,494.554688 478.992188,489.582031 480.746094,483.554688 C482.5,477.53125 481.8125,471.195312 478.804688,465.722656 L448.722656,410.925781 Z M327.046875,252.890625 C315.109375,259.445312 300.0625,255.066406 293.507812,243.128906 L282.941406,223.878906 C282.816406,223.546875 282.667969,223.222656 282.492188,222.90625 L261.523438,184.714844 C260.269531,182.429688 261.140625,179.441406 263.425781,178.1875 C265.710938,176.933594 268.695312,177.804688 269.949219,180.089844 L290.921875,218.28125 C292.914062,221.910156 297.472656,223.242188 301.105469,221.246094 L302.765625,220.335938 C304.507812,219.378906 305.800781,217.765625 306.355469,215.855469 C306.910156,213.945312 306.6875,211.894531 305.730469,210.152344 L284.761719,171.957031 C283.507812,169.675781 284.378906,166.6875 286.660156,165.433594 C288.941406,164.179688 291.933594,165.046875 293.1875,167.332031 L314.15625,205.523438 C316.148438,209.15625 320.707031,210.484375 324.339844,208.488281 L326.882812,207.09375 C328.625,206.136719 329.917969,204.527344 330.472656,202.617188 C331.027344,200.707031 330.804688,198.652344 329.847656,196.910156 L308.878906,158.71875 C307.625,156.433594 308.492188,153.445312 310.777344,152.191406 C311.890625,151.578125 313.1875,151.441406 314.429688,151.804688 C315.671875,152.164062 316.691406,152.976562 317.304688,154.089844 L349.351562,212.46875 C352.511719,218.21875 353.230469,224.890625 351.378906,231.246094 C349.527344,237.605469 345.339844,242.847656 339.589844,246.003906 L327.046875,252.890625 Z M462.316406,484.414062 C458.234375,486.652344 453.089844,485.15625 450.847656,481.074219 L373.441406,340.082031 L388.253906,331.953125 L433.253906,413.917969 C433.261719,413.9375 433.273438,413.960938 433.285156,413.980469 L465.65625,472.941406 C467.898438,477.023438 466.402344,482.171875 462.316406,484.414062 L462.316406,484.414062 Z" id="Shape"></path>
            </g>
            <rect fill="#7A0404" x="-6" y="0" width="512" height="512"></rect>
        </g>
    </g>
</svg>