<?xml version="1.0" encoding="UTF-8"?>
<svg width="512px" height="512px" viewBox="0 0 512 512" version="1.1" xmlns="http://www.w3.org/2000/svg" xmlns:xlink="http://www.w3.org/1999/xlink">
    <!-- Generator: Sketch 56.3 (81716) - https://sketch.com -->
    <title>icon / gps</title>
    <desc>Created with Sketch.</desc>
    <g id="icon-/-gps" stroke="none" stroke-width="1" fill="none" fill-rule="evenodd">
        <path d="M492.46618,485.304289 L423.85148,319.201672 C422.773042,316.59018 420.241501,314.888852 417.433843,314.888852 L349.058073,314.888852 C362.357261,296.761805 373.427057,278.706344 382.072227,260.978133 C397.393487,229.560273 405.161031,199.048859 405.161031,170.289906 C405.160101,86.8681172 337.798621,19 254.999669,19 C172.200718,19 104.839237,86.8681172 104.839237,170.288977 C104.839237,199.04793 112.606781,229.560273 127.928041,260.977203 C136.572281,278.705414 147.642077,296.761805 160.942195,314.887922 L92.5664248,314.887922 C89.7587668,314.887922 87.2262964,316.59018 86.1487879,319.200742 L39.3929143,432.386477 C37.9174993,435.958336 39.5946566,440.058258 43.1395573,441.543898 C44.0134641,441.910195 44.9171209,442.084047 45.8077621,442.084047 C48.5317482,442.084047 51.1172108,440.460813 52.2281881,437.769367 L58.8996299,421.618836 L106.226332,421.618836 L81.70116,480.990539 L34.3753876,480.990539 L41.4847125,463.779234 C42.9601275,460.207375 41.2829702,456.107453 37.7380695,454.621813 C34.1913094,453.133383 30.1229943,454.825414 28.648509,458.396344 L17.5340878,485.304289 C16.6406575,487.465813 16.8786577,489.935063 18.1690648,491.881828 C19.4576125,493.829523 21.6275045,495 23.9517247,495 L486.047614,495 C488.370904,495 490.541726,493.829523 491.831203,491.881828 C493.120681,489.935063 493.359611,487.465813 492.46618,485.304289 Z M119,171.174296 C119,95.5358116 180.009354,34 255,34 C329.990646,34 391,95.5367406 391,171.174296 C391,202.892072 380.073492,253.576601 329.528531,318.165933 C329.477494,318.226316 329.432025,318.290415 329.383772,318.352656 C326.802239,321.647707 324.120489,324.97806 321.328314,328.345571 C293.553176,361.846038 265.445835,386.308569 254.999072,395 C244.582931,386.338296 216.608286,361.998389 188.852635,328.562021 C185.990864,325.114618 183.246014,321.706232 180.604165,318.334076 C180.56148,318.280196 180.521578,318.224458 180.477037,318.171507 C129.933932,253.58682 119,202.904149 119,171.174296 Z M97.3713188,329 L145,329 L127.627746,371 L80,371 L97.3713188,329 Z M138,481 L181.424366,376 L305,481 L138,481 Z M326.408717,482 L326.408717,482 L183.143905,359.205712 C181.452781,357.755186 179.180622,357.211824 177.032838,357.741158 C174.883197,358.269557 173.108537,359.807993 172.259262,361.881374 L123.013375,482 L97.020918,482 L123.284401,417.934675 C124.176372,415.76029 123.93876,413.277283 122.650461,411.317999 C121.364018,409.358715 119.196743,408.181274 116.876319,408.181274 L65,408.181274 L74.4506214,385.128119 L132.106652,385.128119 C134.909723,385.128119 137.438057,383.415732 138.513805,380.789637 L159.74661,329 L171.792393,329 C173.883559,331.64667 176.009067,334.294276 178.191193,336.940947 C214.004612,380.363177 249.268554,408.241128 250.752697,409.407346 C252.003869,410.390261 253.501935,410.880316 255,410.880316 C256.498065,410.880316 257.997059,410.389326 259.247303,409.407346 C260.063164,408.766721 271.087961,400.046737 286.788876,385.129054 L365.387193,385.129054 C369.220533,385.129054 372.328044,381.97456 372.328044,378.083112 C372.328044,374.191665 369.220533,371.03717 365.387193,371.03717 L301.093823,371.03717 C310.717084,361.214563 321.2351,349.761868 331.809735,336.941882 C333.991861,334.295211 336.118298,331.648541 338.208535,329 L412.53913,329 L429.772452,371.03717 L393.14967,371.03717 C389.31633,371.03717 386.208819,374.191665 386.208819,378.083112 C386.208819,381.97456 389.315402,385.129054 393.14967,385.129054 L435.549379,385.129054 L445,408.182209 L301.996932,408.182209 C299.100115,408.182209 296.508666,410.007757 295.494177,412.762913 C294.481544,415.518069 295.25935,418.622061 297.447045,420.549548 L367.183201,482 L326.408717,482 L326.408717,482 Z M388.479304,481 L321,422 L450.622103,422 L475,481 L388.479304,481 Z M255.000464,106 C290.290058,106 319,134.934406 319,170.499536 C319,206.065594 290.290058,235 255.000464,235 C219.710871,235 191,206.065594 191,170.499536 C191,160.16144 193.487916,149.87908 198.193505,140.764389 C199.964485,137.334769 204.155589,136.003608 207.559178,137.78623 C210.961837,139.569782 212.284268,143.795498 210.514217,147.225119 C206.781878,154.454075 204.889241,162.284981 204.889241,170.499536 C204.889241,198.346161 227.368712,221.001908 255.000464,221.001908 C282.632216,221.001908 305.111688,198.346161 305.111688,170.499536 C305.111688,142.65291 282.632216,119.998092 255.000464,119.998092 C244.803629,119.998092 234.994979,123.063571 226.633203,128.8629 C223.473856,131.053324 219.149952,130.248868 216.974998,127.064485 C214.800974,123.880103 215.599633,119.522478 218.75898,117.331125 C229.447084,109.918239 241.979533,106 255.000464,106 Z" id="Shape" fill="#F4E7D9" fill-rule="nonzero"></path>
    </g>
</svg>