<?xml version="1.0" encoding="UTF-8"?>
<svg width="512px" height="512px" viewBox="0 0 512 512" version="1.1" xmlns="http://www.w3.org/2000/svg" xmlns:xlink="http://www.w3.org/1999/xlink">
    <!-- Generator: Sketch 56.3 (81716) - https://sketch.com -->
    <title>icon / hop</title>
    <desc>Created with Sketch.</desc>
    <g id="icon-/-hop" stroke="none" stroke-width="1" fill="none" fill-rule="evenodd">
        <path d="M510.044652,388.008865 C518.275792,359.85545 498.48603,328.895464 488.416018,315.564252 C489.189877,314.080936 489.52372,312.407956 489.379237,310.740459 C484.212883,278.903419 455.228762,256.889378 439.7297,247.241791 C441.305876,245.136863 442.269095,243.645872 442.444225,243.382756 C445.08432,239.324191 443.939403,233.890845 439.887318,231.246529 C439.610393,231.065637 439.323616,230.901189 439.029178,230.753186 C426.120955,224.404416 411.902536,221.190015 397.523216,221.368715 C358.469083,221.368715 323.618086,244.43522 309.257373,255.310682 L266.087671,213.475234 L266.087671,48.7705342 C266.087671,43.9270067 262.166933,40 257.331139,40 C252.495344,40 248.574606,43.9270067 248.574606,48.7705342 L248.574606,213.124413 L205.404904,256.450852 C191.306887,245.663095 156.45589,222.59659 117.139061,222.59659 C102.702823,222.51327 88.450473,225.849361 75.5455339,232.331883 C71.2997105,234.651689 69.7355749,239.979788 72.0516777,244.231305 C72.1053114,244.329973 72.1600397,244.426449 72.2180518,244.522925 L73.0061396,245.663095 C57.507078,255.222977 27.9975651,277.324723 22.8312112,309.074057 C22.5772718,310.707569 22.7896177,312.379452 23.4441685,313.897851 C13.3741566,327.66759 -6.59073635,358.715281 2.16579566,386.78099 C3.07538043,389.905493 5.63666604,392.269152 8.82075999,392.920364 L9.43371723,392.920364 C4.70518995,408.005683 -0.89899054,435.720571 13.3741566,455.717389 C13.3741566,455.717389 14.0746792,456.243621 14.4249405,456.594443 C14.9481433,457.396947 15.5983158,458.10736 16.3513775,458.699371 C25.7712168,464.879309 36.8876342,467.946803 48.1375887,467.469905 C58.6410489,467.294494 69.0591328,465.550254 79.0481467,462.29529 L79.0481467,462.909227 C79.6983192,466.098413 82.0582046,468.663794 85.1777191,469.574833 C89.7311158,470.888221 94.449792,471.53724 99.1881704,471.504351 C123.005937,471.504351 146.473443,456.243621 157.594239,447.823908 C158.640644,448.302999 159.771332,448.571596 160.921721,448.613256 L162.322766,448.613256 C194.108977,443.438641 216.087873,414.408173 225.720058,398.972033 L229.572932,401.690898 C230.982734,402.603034 232.623489,403.089799 234.301459,403.094184 C235.05671,403.193949 235.822907,403.193949 236.578158,403.094184 C238.981826,402.429816 240.988166,400.771089 242.094773,398.533506 C269.064891,344.857837 232.812849,288.200186 218.01431,268.554189 L257.6814,229.086785 L297.085794,267.326314 C282.637516,286.358373 245.860082,343.016024 273.092896,397.305631 C275.259043,401.636083 280.51953,403.389093 284.844162,401.219482 C285.139695,401.071479 285.426471,400.907032 285.702302,400.72614 L286.840651,399.936792 C296.297706,415.285226 318.451732,444.929632 350.588204,450.104247 L351.98925,450.104247 C353.139639,450.062587 354.270326,449.79399 355.316732,449.314899 C366.437527,458.085433 390.34286,472.995342 413.7228,472.995342 C418.461179,473.023846 423.17876,472.37373 427.733251,471.065824 C430.852766,470.154785 433.212651,467.589404 433.862824,464.400218 L433.862824,463.786281 C443.851838,467.041245 454.269922,468.785485 464.773382,468.960896 C476.023336,469.437794 487.139754,466.370299 496.559593,460.190362 C497.312655,459.598351 497.962827,458.887937 498.48603,458.085433 C498.48603,458.085433 499.274118,457.559201 499.536814,457.20838 C513.809961,437.211562 508.293346,409.496674 503.477253,394.411355 L504.090211,394.411355 C507.07181,393.492642 509.339752,391.053337 510.044652,388.008865 Z M38.0405949,324 C46.6516726,328.12201 56.0321211,330.322847 65.5507736,330.455494 L68.6848446,330.455494 C68.5662287,332.635329 68.5662287,334.819585 68.6848446,336.99942 C68.9242528,340.052515 70.703491,342.762939 73.385951,344.162366 C74.885517,344.899663 76.4264352,345.549634 78,346.107858 C73.7820628,353.663218 70.8395184,361.884025 69.2942472,370.426501 C55.4521004,379.269644 30.9889351,378.739055 17.0597307,376.881995 C16.0150404,358.046101 28.8995545,335.849812 38.0405949,324 Z M76.4444293,444.629962 C63.7459818,449.119089 40.7300459,454.048326 26.4442926,444.629962 C16.920457,430.458405 21.8587421,407.396617 26.4442926,394.721436 C29.3543534,394.721436 32.5289653,394.721436 35.7917608,394.721436 C47.5411315,394.963497 59.2331829,393.02371 70.2715729,389 C70.2715729,390.320331 70.8888585,391.640663 71.3297768,393.049016 C71.8974592,394.812759 73.0085733,396.353146 74.5043887,397.450121 C75.4622837,398.44257 76.6406379,399.196259 77.9435515,399.650673 C79.2663065,399.650673 80.6772451,400.266828 82,400.618916 C77.0154185,414.724456 75.1216743,429.732223 76.4444293,444.629962 Z M72.0194489,312.563299 L72.0194489,312.651687 C61.6253241,313.902381 51.106483,311.765595 42,306.552896 C48.8265802,282.864836 73.2447326,265.805898 84.534846,259 C88.1417747,263.042659 91.9696921,266.87871 96,270.490477 C85.201094,282.68143 77.0343598,297.010276 72.0194489,312.563299 Z M109.544974,281 C117.660053,286.441544 126.590829,290.553594 136,293.180585 C132.587302,303.069586 131.236993,313.553274 132.031746,323.985107 C118.052469,331.904693 101.540123,334.057259 86,329.987134 C86.8818342,309.333099 101.608466,289.914776 109.544974,281 Z M87.2397627,384.831506 C86.0467156,372.450684 89.3322858,360.05237 96.5104345,349.848167 L101.719669,349.848167 C109.966152,349.820837 118.157453,348.523173 126,346 C122.897636,355.413798 121.63837,365.329388 122.291731,375.211088 C112.119376,382.41547 99.703298,385.823065 87.2397627,384.831506 Z M95.2429379,454.775671 C93.3292314,441.008521 92.4593648,416.298253 101.592964,401.825096 C110.000225,400.275188 118.088897,397.291203 125.514295,393 C126.060137,394.624921 126.699488,396.215644 127.428002,397.765552 C128.804566,400.484784 131.470707,402.288413 134.473921,402.531104 L139.432161,402.531104 L140.823947,402.531104 C140.383577,413.239254 142.501702,423.897764 147,433.595441 C135.343788,443.567799 113.597123,456.893694 95.2429379,454.775671 Z M142.00095,385 C138.120043,370.294995 139.925902,354.66115 147.057792,341.238361 C158.40517,342.639828 169.921472,341.533752 180.79913,338 C183.081248,346.180144 186.515323,353.990503 191,361.193669 C182.455682,368.895717 162.838625,384.212291 142.00095,385 Z M164.4417,430 C159.23676,420.953634 157.100776,410.503182 158.345845,400.176011 C174.072444,395.138978 188.550655,386.902115 200.844186,376 C204.32263,380.196982 208.047876,384.189951 212,387.957088 C205.101767,399.028305 188.042667,422.814837 164.4417,430 Z M230.039704,381 C229.384153,380.157786 228.580363,379.443113 227.667863,378.888966 C215.720812,368.333798 198.239465,349.334495 195.604086,326.113125 C195.073716,321.284135 190.734125,317.80093 185.911382,318.331987 C184.979117,318.43424 184.069911,318.686025 183.217805,319.076346 C174.377207,322.949873 164.917295,325.213737 155.282788,325.761286 C153.307352,325.793171 151.33521,325.616152 149.397109,325.233528 C148.481315,313.611848 150.568754,301.949486 155.45848,291.369029 C157.476741,286.951252 155.536444,281.731941 151.12438,279.711066 C150.272274,279.320745 149.363069,279.06896 148.430803,278.966707 C123.131166,276.064035 102.838748,255.833296 93,243.782812 C100.710679,241.246274 108.778233,239.969758 116.894102,240 C158.006013,240 195.51624,270.698492 199.908538,274.3928 C204.740066,279.670385 246.906129,331.478669 230.039704,381 Z M283.70602,379 C267.378219,329.562691 310.041183,277.587892 314.254809,272.512911 C318.468434,267.437931 355.776581,239 397.122786,239 C405.232919,238.969916 413.29477,240.239755 421,242.763026 C420.151788,243.442243 419.437447,244.273489 418.893187,245.213017 C408.359122,257.112971 389.397805,274.437904 366.222862,277.150394 C361.403528,277.678673 357.927286,282.001156 358.457281,286.804888 C358.55933,287.733478 358.810611,288.639099 359.200152,289.487846 C364.079838,300.015149 366.164705,311.614323 365.25724,323.175216 C363.320508,323.554745 361.34976,323.730839 359.37572,323.700214 C349.748024,323.155528 340.294798,320.903506 331.460448,317.050239 C327.051503,315.039935 321.842627,316.972583 319.825793,321.367254 C319.436252,322.216001 319.18497,323.121622 319.082922,324.050212 C315.65935,349.337615 295.469059,369.462537 283.70602,379 Z M347.493603,432 C323.835079,425.17342 306.797412,400.755267 300,389.465154 C304.037618,385.858225 307.868887,382.030308 311.476149,378 C323.693834,388.853606 338.067711,397.050972 353.673068,402.068071 C354.882477,412.443598 352.717457,422.930713 347.493603,432 Z M322,363.408451 C327.438513,355.309859 331.544112,346.394806 334.161472,337 C344.056988,340.167914 354.459233,341.452025 364.829531,340.785211 C372.866678,354.788292 375.080859,371.382702 370.998393,387 C350.288641,386.03169 330.900787,371.242958 322,363.408451 Z M416.786592,455.793037 C398.421935,457.819472 376.662863,444.515488 365,435.528691 C369.51392,425.820528 371.634341,415.147605 371.179576,404.427326 L372.572157,404.427326 L377.620262,404.427326 C380.62519,404.185035 383.292852,402.384372 384.670201,399.66961 C385.400218,398.153088 386.039935,396.593615 386.585,395 C394.041834,399.291856 402.164495,402.270935 410.607015,403.810585 C419.571753,417.378886 418.614354,442.13663 416.786592,455.793037 Z M424.825597,385.760237 C412.390645,386.953284 399.938126,383.667714 389.68931,376.489565 C390.339331,366.51366 389.086503,356.503542 386,347 C393.802452,349.547227 401.951874,350.857262 410.156197,350.884853 L415.338799,350.884853 C422.471466,361.031824 425.830275,373.376165 424.825597,385.760237 Z M382.568519,326.0897 C384.148241,314.668638 382.923194,303.035187 379,292.194654 C387.194537,289.929175 395.020255,286.496104 402.238889,282 C409.898148,290.713379 425.12963,309.969948 426,330.969192 C411.42456,334.860805 395.918912,333.119218 382.568519,326.0897 Z M417,272.181872 C421.091471,268.68098 424.984317,264.948167 428.655618,261 C440.005659,267.891346 464.189976,284.94301 471,308.532618 C461.933064,313.790583 451.424454,315.929772 441.053355,314.628809 C436.056063,298.933327 427.862207,284.473648 417,272.181872 Z M485.549766,446.491414 L485.461592,446.579217 C471.265541,456.061927 448.252066,451.144966 435.466802,446.579217 C436.814766,431.724069 434.950983,416.754777 430,402.677782 C431.322613,402.677782 432.733401,402.150965 434.056015,401.71195 C435.39957,401.245497 436.609761,400.461857 437.582984,399.429076 C439.078639,398.334832 440.189635,396.798282 440.757256,395.038932 C440.757256,393.721889 441.46265,392.317043 441.815347,391 C452.852557,395.015884 464.543358,396.95084 476.291472,396.707187 C479.553918,396.707187 482.728191,396.707187 485.63794,396.707187 C490.134826,409.3508 495.072583,432.267349 485.549766,446.491414 Z M494.789721,377.651622 L494.701576,377.739815 C480.950939,379.680076 456.182164,380.562013 441.814511,371.301677 C440.247732,362.782169 437.268427,354.584567 433,347.048418 C434.595426,346.499412 436.155595,345.851189 437.671691,345.108157 C440.387662,343.712492 442.189128,341.009356 442.431527,337.96447 C442.550523,335.790496 442.550523,333.612112 442.431527,331.438138 L445.604751,331.438138 C455.242316,331.303643 464.73885,329.10762 473.458605,325 C483.771583,337.082533 496.817059,359.219144 494.789721,377.651622 Z" id="Shape" fill="#F4E7D9" fill-rule="nonzero"></path>
    </g>
</svg>