<?xml version="1.0" encoding="UTF-8"?>
<svg width="512px" height="512px" viewBox="0 0 512 512" version="1.1" xmlns="http://www.w3.org/2000/svg" xmlns:xlink="http://www.w3.org/1999/xlink">
    <!-- Generator: Sketch 56.3 (81716) - https://sketch.com -->
    <title>icon / olla</title>
    <desc>Created with Sketch.</desc>
    <g id="icon-/-olla" stroke="none" stroke-width="1" fill="none" fill-rule="evenodd">
        <circle id="Oval" fill="#F4E7D9" fill-rule="nonzero" cx="128" cy="325.818" r="11.636"></circle>
        <path d="M430.545,197.818 C423.563,197.818 418.909,202.473 418.909,209.454 L418.909,418.909 C418.909,438.691 403.782,453.818 384,453.818 L128,453.818 C108.218,453.818 93.091,438.691 93.091,418.909 L93.091,162.909 C93.091,130.327 118.691,104.727 151.273,104.727 L221.091,104.727 C226.909,104.727 231.564,101.236 232.727,95.418 L239.709,66.327 C240.873,61.672 245.527,57.018 251.345,57.018 L285.09,57.018 C290.908,57.018 295.563,60.509 296.726,66.327 L299.053,81.454 L267.635,81.454 C260.653,81.454 255.999,86.109 255.999,93.09 C255.999,100.072 260.654,104.726 267.635,104.726 L360.726,104.726 C377.017,104.726 393.308,111.708 403.781,124.508 C406.108,126.835 409.599,127.999 411.926,127.999 C414.253,127.999 417.744,126.835 420.071,124.508 C424.726,119.853 424.726,112.872 421.235,108.217 C406.109,91.927 384,81.455 360.727,81.455 L323.491,81.455 L318.836,61.673 C314.181,45.382 300.218,34.909 283.927,34.909 L250.182,34.909 C233.891,34.909 219.927,45.382 216.437,61.673 L211.782,81.455 L151.273,81.455 C110.546,81.455 76.8,111.71 70.982,151.273 L27.927,151.273 C12.8,151.273 0,164.073 0,179.2 C0,186.182 3.491,194.327 8.145,198.982 L26.764,217.6 C29.091,219.927 31.419,221.091 34.91,221.091 C38.401,221.091 40.728,219.927 43.055,217.6 C47.71,212.945 47.71,205.964 43.055,201.309 L24.437,182.691 C23.273,181.527 23.273,180.364 23.273,179.2 C23.273,176.873 25.6,174.545 27.928,174.545 L69.819,174.545 L69.819,418.909 C69.819,451.491 95.419,477.091 128.001,477.091 L384.001,477.091 C416.583,477.091 442.183,451.491 442.183,418.909 L442.183,209.455 C442.183,202.473 437.527,197.818 430.545,197.818 Z" id="Path" fill="#F4E7D9" fill-rule="nonzero"></path>
        <path d="M128,209.455 C121.018,209.455 116.364,214.11 116.364,221.091 L116.364,290.909 C116.364,297.891 121.019,302.545 128,302.545 C134.981,302.545 139.636,297.89 139.636,290.909 L139.636,221.091 C139.636,214.109 134.982,209.455 128,209.455 Z" id="Path" fill="#F4E7D9" fill-rule="nonzero"></path>
        <path d="M484.073,151.273 L128,151.273 C121.018,151.273 116.364,155.928 116.364,162.909 C116.364,169.891 121.019,174.545 128,174.545 L484.073,174.545 C486.4,174.545 488.728,176.872 488.728,179.2 C488.728,180.364 488.728,181.527 487.564,182.691 L468.946,201.309 C464.291,205.964 464.291,212.945 468.946,217.6 C471.273,219.927 474.764,221.091 477.091,221.091 C479.418,221.091 482.909,219.927 485.237,217.6 L503.855,198.982 C508.51,194.327 512,186.182 512,179.2 C512,164.073 499.2,151.273 484.073,151.273 Z" id="Path" fill="#F4E7D9" fill-rule="nonzero"></path>
    </g>
</svg>