<?xml version="1.0" encoding="UTF-8"?>
<svg width="512px" height="512px" viewBox="0 0 512 512" version="1.1" xmlns="http://www.w3.org/2000/svg" xmlns:xlink="http://www.w3.org/1999/xlink">
    <!-- Generator: Sketch 56.3 (81716) - https://sketch.com -->
    <title>icon / pais</title>
    <desc>Created with Sketch.</desc>
    <g id="icon-/-pais" stroke="none" stroke-width="1" fill="none" fill-rule="evenodd">
        <g id="flag" transform="translate(46.000000, 0.000000)" fill="#F4E7D9" fill-rule="nonzero">
            <path d="M416.173478,94.707868 C413.814309,93.3789999 410.910638,93.42503 408.592506,94.8289471 C408.327262,94.9890517 381.693765,110.884435 344.89592,113.836364 C311.785466,116.490097 288.216788,109.492526 264.401884,89.7596356 L264.401884,55.6623615 C264.401884,53.2137619 263.207786,50.919263 261.201941,49.5133446 C218.174366,19.3686526 179.344652,21.028737 154.349662,27.7331167 C140.645057,31.407517 129.583883,36.9101116 121.90482,41.5281283 L121.90482,25.446623 C121.90482,11.4154572 110.486318,0 96.4524102,0 C82.4175014,0 71,11.4154572 71,25.446623 L71,103.952907 C71,108.100617 74.3620923,111.460812 78.5099073,111.460812 C82.6577224,111.460812 86.0198147,108.100617 86.0198147,103.952907 L86.0198147,25.446623 C86.0198147,19.6948657 90.7001195,15.0158091 96.4524102,15.0158091 C102.205702,15.0158091 106.886007,19.6948657 106.886007,25.446623 L106.886007,315.492095 C106.886007,319.639805 110.248099,323 114.395914,323 C118.543729,323 121.905821,319.638804 121.905821,315.492095 L121.905821,231.897487 C126.875392,228.183061 139.83331,219.511396 158.242242,214.576172 C168.974113,211.698292 179.69097,210.544538 190.358782,211.091896 L190.358782,250.082366 C190.358782,250.442602 190.392813,250.797834 190.442859,251.151065 C190.458874,251.260136 190.481895,251.366205 190.501914,251.473275 C190.548957,251.719436 190.606009,251.961594 190.676074,252.20075 C190.709104,252.311823 190.741134,252.420894 190.779169,252.529965 C190.868251,252.789135 190.973347,253.040299 191.090455,253.28746 C191.122484,253.355505 191.148508,253.426551 191.18254,253.493595 C191.341686,253.805799 191.522853,254.105995 191.724038,254.393183 C191.762073,254.447218 191.806113,254.49625 191.84615,254.549285 C192.015306,254.776433 192.19447,254.994575 192.38965,255.202711 C192.462717,255.280762 192.539788,255.355811 192.616859,255.43086 C192.796024,255.606975 192.984197,255.773084 193.182379,255.931187 C193.267457,255.999232 193.351535,256.069277 193.439616,256.13432 C193.490663,256.171344 193.535704,256.215373 193.587752,256.251396 C193.710865,256.336452 193.843988,256.398493 193.971105,256.475543 C194.127248,256.570605 194.28139,256.668669 194.446542,256.753725 C194.636717,256.851789 194.832897,256.92984 195.030079,257.010893 C195.153192,257.060925 195.268298,257.126968 195.395415,257.170997 C195.625626,257.25205 218.868004,265.450406 249.341032,283.421145 C269.228323,295.147806 304.803044,308.542556 340.771126,308.542556 C341.721,308.542556 342.673876,308.532549 343.624751,308.513537 C347.771565,308.431483 351.065595,305.002243 350.982518,300.858536 C350.901444,296.762861 347.554365,293.499729 343.477615,293.499729 C343.426568,293.499729 343.375521,293.50073 343.325475,293.50173 C311.679368,294.121135 277.170629,282.397476 256.973051,270.488697 C241.72803,261.497824 228.336713,254.898513 218.401575,250.418586 L259.523397,235.033536 C259.676538,234.976499 259.817668,234.899448 259.964803,234.832404 C260.094923,234.773366 260.229046,234.728336 260.357164,234.662293 C260.37418,234.653287 260.390194,234.64128 260.40721,234.631273 C260.579368,234.540214 260.738515,234.432143 260.901665,234.329076 C261.028782,234.249023 261.160903,234.175976 261.282015,234.088919 C261.435156,233.978847 261.574284,233.852764 261.717415,233.731685 C261.833522,233.633621 261.955634,233.543563 262.065736,233.439495 C262.20086,233.311411 262.319969,233.168317 262.445084,233.031228 C262.546177,232.919155 262.655278,232.813085 262.749364,232.696009 C262.867473,232.548913 262.968566,232.388808 263.074664,232.233707 C263.15774,232.112628 263.248824,231.995551 263.324894,231.869469 C263.422984,231.706362 263.502057,231.532249 263.588136,231.361137 C263.654197,231.231052 263.728265,231.10497 263.785317,230.970882 C263.858384,230.801771 263.911433,230.624656 263.971488,230.450542 C264.022535,230.303446 264.08159,230.160352 264.123628,230.010254 C264.169671,229.843145 264.195695,229.670032 264.230727,229.49892 C264.264758,229.332812 264.306797,229.169705 264.329818,229.000595 C264.33182,228.984584 264.336824,228.969575 264.338826,228.953564 C264.360847,228.781452 264.358845,228.611341 264.368854,228.440229 C264.376861,228.295134 264.398882,228.153041 264.398882,228.005945 L264.398882,108.642971 C288.286853,125.327871 313.530071,131.41985 346.094022,128.805142 C371.887746,126.736791 392.844021,119.028756 404.979182,113.511151 L404.979182,274.763489 C400.096692,278.155705 388.636151,285.147273 371.753623,289.556153 C367.739931,290.604838 365.336721,294.707518 366.385685,298.718138 C367.43465,302.729758 371.538425,305.13533 375.550115,304.084644 C401.930378,297.193142 416.741,284.763022 417.358568,284.237678 C419.03511,282.810746 420,280.721381 420,278.520944 L420,101.246139 C420,98.536369 418.535651,96.0387374 416.173478,94.707868 Z M205.375594,239.257295 L205.375594,213.061182 C206.677792,213.323354 207.974985,213.621548 209.272178,213.935754 C209.612491,214.017807 209.952804,214.102863 210.292116,214.188919 C211.459189,214.483111 212.624261,214.794315 213.788332,215.129534 C213.930462,215.17056 214.073594,215.206584 214.215725,215.248611 C215.501908,215.623856 216.785088,216.031122 218.067267,216.4564 C218.397571,216.565472 218.726874,216.679546 219.058179,216.79262 C220.150183,217.165864 221.243188,217.556119 222.333191,217.966387 C222.559399,218.051442 222.786608,218.131495 223.012816,218.217551 C224.283985,218.703868 225.552152,219.217204 226.820318,219.752554 C227.134607,219.88464 227.448896,220.02273 227.762184,220.158819 C228.815153,220.613116 229.869122,221.084424 230.920089,221.573743 C231.197344,221.702828 231.474599,221.826909 231.751854,221.957994 C233.014015,222.555384 234.272172,223.177791 235.529328,223.823213 C235.808585,223.966306 236.087842,224.116404 236.367099,224.2625 C237.416064,224.810858 238.465028,225.377228 239.51099,225.958608 C239.700164,226.063676 239.888338,226.167744 240.077512,226.273814 L205.375594,239.257295 Z M249.380068,93.2419104 L249.380068,214.280979 C248.289064,213.646565 247.193056,213.029161 246.098049,212.427769 C245.828801,212.280673 245.559554,212.140581 245.290306,211.994486 C245.255274,211.975473 245.219241,211.956461 245.183208,211.937448 C245.025062,211.852393 244.865916,211.767337 244.70777,211.682282 C243.989109,211.29703 243.270448,210.915781 242.549785,210.543538 C242.145414,210.335402 241.740041,210.132269 241.333667,209.928136 C240.533931,209.525873 239.732194,209.131615 238.930457,208.744362 C238.514074,208.544232 238.097691,208.344101 237.679306,208.148973 C236.815511,207.743709 235.948714,207.351452 235.082918,206.966201 C234.753615,206.820105 234.424312,206.668006 234.095009,206.523912 C232.904914,206.006574 231.713819,205.505246 230.51872,205.024933 C230.306525,204.939877 230.094329,204.860825 229.882134,204.777771 C228.895226,204.386516 227.906317,204.007268 226.917407,203.641029 C226.521043,203.494933 226.122676,203.354842 225.725311,203.212749 C224.902554,202.918557 224.077796,202.631369 223.254038,202.355189 C222.834652,202.214097 222.415266,202.075006 221.99488,201.938917 C221.132086,201.659734 220.268292,201.391559 219.404497,201.131389 C219.053174,201.02532 218.701851,200.915248 218.349527,200.812181 C217.139414,200.459951 215.929301,200.12273 214.715184,199.809526 C214.596075,199.778505 214.476965,199.752488 214.358856,199.722469 C213.26485,199.443286 212.170844,199.180115 211.075837,198.931952 C210.689481,198.844896 210.303126,198.763843 209.91577,198.680788 C209.070993,198.497669 208.225215,198.323555 207.379437,198.159448 C206.958049,198.077394 206.535661,197.997342 206.112272,197.920292 C205.255483,197.76419 204.397695,197.619095 203.539906,197.481005 C203.165561,197.420965 202.791217,197.356924 202.414871,197.300887 C201.193748,197.117767 199.973625,196.948657 198.7505,196.803562 C198.427203,196.765537 198.103906,196.756531 197.781609,196.760534 C193.340525,196.272215 189.035565,196.036061 184.89876,196.036061 C173.324114,196.036061 163.004623,197.754183 154.34766,200.074699 C140.843239,203.696065 129.898172,209.094591 122.235124,213.66958 L122.235124,59.3097441 C127.43791,55.4692353 140.23468,47.0647451 158.23924,42.2355904 C189.000533,33.9882028 219.642716,39.8380242 249.380068,59.6239494 L249.380068,93.2419104 L249.380068,93.2419104 Z" id="Shape"></path>
            <path d="M193.809346,502.807569 C187.775577,476.562645 164.93345,458.23284 138.260581,458.23284 L122.486584,458.23284 L122.486584,345.127805 C122.486584,340.978548 119.119901,337.617099 114.966422,337.617099 C110.812944,337.617099 107.446261,340.979549 107.446261,345.127805 L107.446261,458.233841 L86.5525806,458.233841 L86.5525806,133.510705 C86.5525806,129.361449 83.1858976,126 79.0324192,126 C74.8789407,126 71.5122578,129.361449 71.5122578,133.510705 L71.5122578,458.23284 L55.7382607,458.23284 C29.0653919,458.23284 6.22426734,476.562645 0.190497972,502.80857 C-0.321670823,505.037857 0.211546005,507.37926 1.63780079,509.169096 C3.06305329,510.957931 5.22799379,512 7.51922249,512 L186.479619,512 C188.769845,512 190.935788,510.957931 192.363045,509.169096 C193.7893,507.37926 194.321515,505.037857 193.809346,502.807569 Z M18.0743097,496.977588 C25.0031216,482.642882 39.3959668,473.25425 55.7372585,473.25425 L79.0314169,473.25425 L114.966422,473.25425 L138.260581,473.25425 C154.599868,473.25425 168.994718,482.642882 175.92353,496.977588 L18.0743097,496.977588 Z" id="Shape"></path>
        </g>
    </g>
</svg>