<?xml version="1.0" encoding="UTF-8"?>
<svg width="512px" height="512px" viewBox="0 0 512 512" version="1.1" xmlns="http://www.w3.org/2000/svg" xmlns:xlink="http://www.w3.org/1999/xlink">
    <!-- Generator: Sketch 56.3 (81716) - https://sketch.com -->
    <title>icon / PERFIL</title>
    <desc>Created with Sketch.</desc>
    <g id="icon-/-PERFIL" stroke="none" stroke-width="1" fill="none" fill-rule="evenodd">
        <path d="M437.051701,74.8955576 C337.227026,-24.9651859 174.797227,-24.9651859 74.9725519,74.8955576 C39.9482086,109.931946 15.9902171,153.948505 5.68628353,202.188471 C-4.3449857,249.160199 -1.05911981,297.825807 15.1878545,342.921237 C17.1399228,348.336441 23.1124877,351.143939 28.5240935,349.192937 C33.9391727,347.240197 36.7457051,341.267315 34.7936368,335.852111 C19.8665663,294.418937 16.8481546,249.705715 26.0666409,206.542177 C35.5265308,162.247649 57.5341907,121.820378 89.7085836,89.63492 C181.408903,-2.09693663 330.61535,-2.09693663 422.315669,89.63492 C465.985383,133.321389 490.431391,191.391072 491.148655,253.150807 C491.865918,314.797617 468.899592,373.331162 426.483787,417.966204 C425.981876,418.494347 425.485175,419.025965 424.988475,419.557582 C424.109697,420.497469 423.232655,421.439092 422.315669,422.356393 C330.61535,514.08825 181.408903,514.08825 89.7085836,422.356393 C89.2205666,421.868209 88.7447065,421.371337 88.2740566,420.874466 C88.2497425,419.911994 88.228902,418.963421 88.228902,418.028747 C88.228902,415.930073 88.2688464,413.840086 88.3452619,411.757048 C88.3713126,411.060385 88.4234141,410.370672 88.4581484,409.675747 C88.5258803,408.291108 88.5901388,406.90647 88.6908683,405.528781 C88.7516534,404.707032 88.8402258,403.89397 88.9131679,403.075695 C89.022581,401.833517 89.1250472,400.591338 89.260511,399.356108 C89.3560304,398.483977 89.4810739,397.618796 89.590487,396.750139 C89.7381078,395.577453 89.8787818,394.401292 90.0524533,393.233818 C90.1844437,392.344314 90.3407481,391.463496 90.4866322,390.579204 C90.6724608,389.441264 90.8530792,388.303324 91.0632218,387.172333 C91.2282098,386.277617 91.4175118,385.391588 91.5981302,384.502083 C91.8221665,383.39194 92.0427294,382.28006 92.289343,381.176867 C92.4890653,380.28215 92.7113649,379.392646 92.9249809,378.503142 C93.1854882,377.417322 93.4442589,376.331501 93.7256068,375.254367 C93.9600634,374.361388 94.2136239,373.475359 94.4602375,372.587592 C94.7572159,371.524356 95.0524575,370.459384 95.3702765,369.403097 C95.6359939,368.517068 95.9208153,367.637987 96.2021632,366.758907 C96.5356126,365.714782 96.869062,364.66892 97.2216153,363.633481 C97.5203303,362.759613 97.8329392,361.890956 98.145548,361.0223 C98.5154684,359.993811 98.8871255,358.965322 99.2761498,357.943782 C99.6061258,357.080337 99.9482587,356.225579 100.292128,355.369084 C100.696783,354.359705 101.104911,353.350326 101.52867,352.349634 C101.889907,351.498351 102.261564,350.654017 102.636694,349.809683 C103.076084,348.817677 103.520683,347.829146 103.979176,346.847564 C104.369937,346.011917 104.769381,345.181481 105.174036,344.352783 C105.649896,343.378151 106.130966,342.405255 106.624193,341.441047 C107.042742,340.62451 107.468237,339.811447 107.900679,339.001859 C108.411274,338.042863 108.930552,337.087341 109.46025,336.137031 C109.906586,335.337867 110.358132,334.542177 110.816625,333.7517 C111.361954,332.811814 111.915966,331.877139 112.480398,330.94594 C112.954522,330.164149 113.433855,329.385833 113.920136,328.610991 C114.500199,327.690215 115.088945,326.774652 115.686375,325.866037 C116.186549,325.103357 116.690197,324.344151 117.202528,323.590157 C117.815589,322.686754 118.442543,321.793776 119.074708,320.902534 C119.600932,320.160701 120.127157,319.420606 120.665539,318.689197 C121.313334,317.806643 121.975023,316.932774 122.640185,316.064118 C123.190723,315.34487 123.739526,314.625623 124.302221,313.915062 C124.984751,313.051617 125.68291,312.198597 126.382807,311.349051 C126.954186,310.654125 127.525566,309.9592 128.109102,309.272962 C128.828102,308.428628 129.562733,307.596455 130.2991,306.766019 C130.893057,306.095416 131.48354,305.423076 132.087917,304.762898 C132.841652,303.939411 133.611017,303.131561 134.382119,302.32371 C134.996916,301.67743 135.60824,301.029412 136.233458,300.391818 C137.023663,299.58918 137.831236,298.803914 138.637072,298.015174 C139.269236,297.398428 139.896191,296.774733 140.538775,296.166673 C141.368925,295.381408 142.218179,294.615253 143.06396,293.847361 C143.710018,293.261886 144.347393,292.669463 145.002135,292.092675 C145.875702,291.323045 146.771848,290.576001 147.662783,289.823744 C148.315788,289.273016 148.961846,288.713601 149.623535,288.17156 C150.545731,287.417566 151.490504,286.686157 152.431804,285.949536 C153.088282,285.437029 153.73434,284.912361 154.397766,284.40854 C155.38943,283.656284 156.401936,282.930087 157.412704,282.200415 C158.050079,281.73829 158.675296,281.265741 159.321355,280.812302 C160.436326,280.028774 161.577348,279.273043 162.714897,278.513837 C163.275856,278.140315 163.824658,277.752894 164.389091,277.384584 C165.872246,276.420375 167.381452,275.487438 168.901078,274.566663 C169.137271,274.424203 169.366517,274.271319 169.604448,274.12886 C171.362004,273.076048 173.143874,272.054508 174.946585,271.060765 C175.563119,270.721989 176.19702,270.404061 176.820501,270.072234 C178.017098,269.432903 179.210221,268.78836 180.427659,268.176826 C181.207444,267.784193 182.006334,267.415883 182.793066,267.035411 C183.786467,266.554176 184.776395,266.067728 185.781953,265.603866 C204.668735,283.651072 229.863268,293.868209 256.014732,293.868209 C282.166195,293.868209 307.362465,283.649334 326.249247,265.600391 C363.117982,282.66949 393.293415,313.296578 409.675853,350.541092 C411.992632,355.808624 418.138868,358.204379 423.4098,355.885066 C428.677259,353.565753 431.068716,347.413928 428.750201,342.146396 C410.830769,301.406409 379.634147,268.850903 340.146445,249.19842 C351.603557,232.386444 357.801895,212.534169 357.801895,192.047776 C357.801895,135.903036 312.140169,90.2256064 256.014732,90.2256064 C250.260993,90.2256064 245.594438,94.893766 245.594438,100.649484 C245.594438,106.405201 250.260993,111.073361 256.014732,111.073361 C300.650059,111.073361 336.961308,147.398835 336.961308,192.047776 C336.961308,212.012976 329.543796,231.23808 316.077303,246.177233 C316.075567,246.17897 316.07383,246.180708 316.072093,246.182445 C300.695213,263.239383 278.80565,273.022191 256.012995,273.022191 C233.220339,273.022191 211.329039,263.239383 195.953896,246.182445 C195.95216,246.17897 195.948686,246.177233 195.945213,246.175496 C182.480457,231.23113 175.064681,212.011238 175.064681,192.049513 C175.064681,170.256661 183.593692,149.811963 199.081721,134.485389 C203.173423,130.435713 203.208157,123.835661 199.159873,119.744289 C195.113326,115.649443 188.515544,115.618171 184.423842,119.664373 C164.95005,138.931173 154.224094,164.638191 154.224094,192.042564 C154.224094,212.50811 160.406802,232.346485 171.844811,249.149775 C171.742344,249.200157 171.643352,249.255751 171.542622,249.307871 C170.729839,249.714402 169.93616,250.145256 169.130324,250.560473 C167.895519,251.199805 166.657241,251.835661 165.439804,252.501052 C164.578393,252.970126 163.736086,253.463523 162.883358,253.944759 C161.745809,254.589302 160.606524,255.23037 159.484606,255.895761 C158.614511,256.41348 157.75831,256.948573 156.8969,257.478453 C155.820136,258.142107 154.743372,258.804023 153.682239,259.486787 C152.815618,260.044464 151.964627,260.617778 151.108427,261.187616 C150.078554,261.873855 149.050419,262.563568 148.036177,263.268917 C147.183449,263.863078 146.341142,264.4694 145.498835,265.075722 C144.508907,265.789758 143.522453,266.507268 142.548155,267.238677 C141.712795,267.865847 140.887855,268.501703 140.064652,269.141035 C139.109459,269.882867 138.161212,270.629912 137.223385,271.389117 C136.410602,272.045822 135.604766,272.711212 134.802404,273.380078 C133.880208,274.151445 132.964959,274.931498 132.058393,275.720238 C131.271661,276.403002 130.490139,277.090978 129.715564,277.787641 C128.821155,278.592017 127.938904,279.405079 127.061862,280.225091 C126.304654,280.932177 125.549183,281.641001 124.802396,282.361985 C123.935774,283.19937 123.083047,284.048916 122.232056,284.901937 C121.506109,285.629871 120.780162,286.356068 120.068109,287.094426 C119.225802,287.968294 118.399125,288.857798 117.574185,289.747302 C116.884709,290.490872 116.190023,291.230968 115.512704,291.986699 C114.687764,292.904 113.885401,293.840412 113.079565,294.773349 C112.43177,295.523868 111.778765,296.267438 111.143127,297.026643 C110.325134,298.00475 109.533192,299.001968 108.73604,299.995711 C108.14382,300.735806 107.539443,301.465478 106.957643,302.21426 C106.120546,303.291394 105.311236,304.389375 104.498454,305.483882 C103.987859,306.171858 103.463371,306.847673 102.963197,307.542598 C101.935061,308.967195 100.939923,310.412639 99.9534689,311.865033 C99.6946983,312.247241 99.4202972,312.619026 99.1632633,313.002972 C97.9354054,314.837575 96.7422818,316.693025 95.580419,318.569323 C95.1792377,319.217341 94.8023705,319.879257 94.4098727,320.530749 C93.6578749,321.779877 92.9024036,323.027268 92.1781932,324.293769 C91.7266472,325.084246 91.2994151,325.888622 90.8600261,326.686049 C90.2261249,327.832675 89.5887503,328.975827 88.9808998,330.136352 C88.5293538,330.996322 88.1021217,331.866716 87.6627327,332.733635 C87.0965634,333.852464 86.5286574,334.969556 85.9850654,336.100547 C85.5526232,337.000475 85.1410216,337.910827 84.7224732,338.815967 C84.2084054,339.933059 83.6926008,341.048414 83.1993736,342.17593 C82.7929822,343.105392 82.4039579,344.043541 82.0131969,344.979953 C81.5425469,346.103994 81.0753705,347.228036 80.6272978,348.360764 C80.2504306,349.312811 79.8891937,350.270071 79.5279569,351.22733 C79.1007248,352.363533 78.6787029,353.501473 78.2723115,354.646362 C77.9284418,355.61752 77.5949924,356.59389 77.2650165,357.571997 C76.8777289,358.72036 76.5008616,359.872199 76.1361513,361.030987 C75.8252792,362.016043 75.5248274,363.004574 75.2295858,363.994842 C74.8822427,365.164054 74.5470566,366.33674 74.2222907,367.514638 C73.9478897,368.508381 73.6786988,369.503861 73.4199281,370.504554 C73.1125295,371.694613 72.8207613,372.889884 72.5359399,374.08863 C72.2980099,375.089322 72.0618166,376.088277 71.8412537,377.092444 C71.5737995,378.306826 71.3254491,379.528157 71.082309,380.751225 C70.8825867,381.751917 70.679391,382.752609 70.4952991,383.758514 C70.2677894,385.005904 70.0628569,386.260244 69.8596612,387.516321 C69.6998834,388.50659 69.5314219,389.495121 69.3872746,390.488864 C69.1979726,391.784899 69.0381947,393.087884 68.8749435,394.390868 C68.7551101,395.356814 68.6231197,396.321023 68.51718,397.290443 C68.3678225,398.655971 68.2531993,400.030186 68.1333659,401.4044 C68.053477,402.319964 67.9579576,403.232053 67.8919624,404.152829 C67.7808126,405.686877 67.7078706,407.227873 67.6331918,408.770607 C67.5967208,409.536762 67.5394092,410.297705 67.5116217,411.065597 C67.4282594,413.379698 67.3813681,415.702485 67.3813681,418.033959 C67.3813681,420.551325 67.4664671,422.931444 67.5689333,425.559998 C67.5932474,426.168058 67.6783464,426.758744 67.7999165,427.335532 C67.8103368,427.380702 67.8155469,427.425872 67.8259672,427.471043 C67.9544842,428.039144 68.1351026,428.58466 68.3521921,429.112803 C68.3730327,429.164923 68.3921365,429.217042 68.4147138,429.269161 C68.6387501,429.790355 68.9062043,430.287227 69.2083928,430.759776 C69.2466006,430.818844 69.2830716,430.877913 69.3212794,430.935244 C69.6321515,431.399107 69.9777579,431.835172 70.3546251,432.241704 C70.3824126,432.271238 70.4015165,432.307722 70.4293039,432.337256 L71.8047827,433.801811 C72.8433386,434.913691 73.8818945,436.022096 74.965605,437.104442 C124.878811,487.034814 190.441561,512 256.006048,512 C321.570535,512 387.133285,487.034814 437.046491,437.104442 C438.130201,436.022096 439.168757,434.911954 440.207313,433.801811 L441.582792,432.337256 C487.760323,383.742878 512.76208,320.025191 511.982295,252.91627 C511.205983,185.673575 484.592554,122.45276 437.051701,74.8955576 Z" id="Path" fill="#F4E7D9" fill-rule="nonzero"></path>
    </g>
</svg>