<?xml version="1.0" encoding="UTF-8"?>
<svg width="512px" height="512px" viewBox="0 0 512 512" version="1.1" xmlns="http://www.w3.org/2000/svg" xmlns:xlink="http://www.w3.org/1999/xlink">
    <!-- Generator: Sketch 56.3 (81716) - https://sketch.com -->
    <title>icon / personas</title>
    <desc>Created with Sketch.</desc>
    <g id="icon-/-personas" stroke="none" stroke-width="1" fill="none" fill-rule="evenodd">
        <path d="M441.943213,236.324089 C456.907202,225.693986 466.815789,208.011218 466.815789,188.079776 C466.815789,155.473979 440.729917,129.103147 408.476454,129.103147 C376.222992,129.103147 350.137119,155.473979 350.137119,188.079776 C350.137119,208.011218 359.944598,225.693986 375.009695,236.324089 C362.168975,240.82144 350.440443,247.771892 340.531856,256.766594 C326.882271,245.012153 310.806094,236.017451 293.213296,230.7024 C314.547091,217.619196 328.904432,193.803677 328.904432,166.717357 C328.904432,125.423496 295.842105,92 254.99446,92 C214.146814,92 181.084488,125.525709 181.084488,166.717357 C181.084488,193.803677 195.34072,217.619196 216.775623,230.7024 C199.385042,236.017451 183.51108,244.909941 169.962604,256.459956 C160.054017,247.669679 148.527701,240.82144 135.889197,236.426301 C150.853186,225.796198 160.761773,208.113431 160.761773,188.181988 C160.761773,155.576192 134.6759,129.20536 102.422438,129.20536 C70.1689751,129.20536 44.0831025,155.576192 44.0831025,188.181988 C44.0831025,208.113431 53.8905817,225.796198 68.9556787,236.426301 C28.8157895,250.429417 0,288.96354 0,334.24369 L0,340.989716 C0,341.194141 0.202216066,341.398567 0.404432133,341.398567 L124.059557,341.398567 C123.351801,347.020256 122.947368,352.84637 122.947368,358.672484 L122.947368,365.622935 C122.947368,395.673419 147.01108,420 176.736842,420 L333.454294,420 C363.180055,420 387.243767,395.673419 387.243767,365.622935 L387.243767,358.672484 C387.243767,352.84637 386.839335,347.020256 386.131579,341.398567 L510.595568,341.398567 C510.797784,341.398567 511,341.194141 511,340.989716 L511,334.24369 C510.797784,288.861328 482.083102,250.327205 441.943213,236.324089 Z M366.314404,187.977563 C366.314404,164.468682 385.221607,145.354939 408.476454,145.354939 C431.731302,145.354939 450.638504,164.468682 450.638504,187.977563 C450.638504,211.179807 432.135734,230.089124 409.285319,230.600187 C408.981994,230.600187 408.779778,230.600187 408.476454,230.600187 C408.17313,230.600187 407.970914,230.600187 407.66759,230.600187 C384.716066,230.191337 366.314404,211.282019 366.314404,187.977563 Z M197.059557,166.717357 C197.059557,134.520411 222.943213,108.354004 254.792244,108.354004 C286.641274,108.354004 312.524931,134.520411 312.524931,166.717357 C312.524931,197.789966 288.360111,223.240885 258.128809,224.978498 C257.01662,224.978498 255.904432,224.978498 254.792244,224.978498 C253.680055,224.978498 252.567867,224.978498 251.455679,224.978498 C221.224377,223.240885 197.059557,197.789966 197.059557,166.717357 Z M59.9570637,187.977563 C59.9570637,164.468682 78.8642659,145.354939 102.119114,145.354939 C125.373961,145.354939 144.281163,164.468682 144.281163,187.977563 C144.281163,211.179807 125.778393,230.089124 102.927978,230.600187 C102.624654,230.600187 102.422438,230.600187 102.119114,230.600187 C101.815789,230.600187 101.613573,230.600187 101.310249,230.600187 C78.4598338,230.191337 59.9570637,211.282019 59.9570637,187.977563 Z M126.890582,324.94235 L16.3795014,324.94235 C20.9293629,281.399813 57.3282548,247.260829 101.512465,246.954191 C101.714681,246.954191 101.916898,246.954191 102.119114,246.954191 C102.32133,246.954191 102.523546,246.954191 102.725762,246.954191 C123.756233,247.056404 142.966759,254.926768 157.82964,267.703334 C143.270083,283.648489 132.451524,303.273294 126.890582,324.94235 Z M370.864266,365.622935 C370.864266,386.576504 353.979224,403.645996 333.252078,403.645996 L176.534626,403.645996 C155.807479,403.645996 138.922438,386.576504 138.922438,365.622935 L138.922438,358.672484 C138.922438,295.198504 189.072022,243.27454 251.455679,241.434715 C252.567867,241.536927 253.781163,241.536927 254.893352,241.536927 C256.00554,241.536927 257.218837,241.536927 258.331025,241.434715 C320.714681,243.27454 370.864266,295.198504 370.864266,358.672484 L370.864266,365.622935 L370.864266,365.622935 Z M382.896122,324.94235 C377.33518,303.375506 366.718837,284.057339 352.260388,268.112184 C367.224377,255.028981 386.637119,247.158616 407.869806,246.954191 C408.072022,246.954191 408.274238,246.954191 408.476454,246.954191 C408.67867,246.954191 408.880886,246.954191 409.083102,246.954191 C453.267313,247.260829 489.666205,281.399813 494.216066,324.94235 L382.896122,324.94235 Z" id="Shape" fill="#F4E7D9" fill-rule="nonzero"></path>
    </g>
</svg>