<?xml version="1.0" encoding="UTF-8"?>
<svg width="55px" height="55px" viewBox="0 0 55 55" version="1.1" xmlns="http://www.w3.org/2000/svg" xmlns:xlink="http://www.w3.org/1999/xlink">
    <!-- Generator: Sketch 56.3 (81716) - https://sketch.com -->
    <title>Icon/search</title>
    <desc>Created with Sketch.</desc>
    <g id="Icon/search" stroke="none" stroke-width="1" fill="none" fill-rule="evenodd">
        <g id="magnifying-glass" fill="#F4E7D9" fill-rule="nonzero">
            <path d="M42.7708984,13.7892439 C43.0763498,13.5082358 43.0763498,13.052713 42.7710026,12.7717049 C40.8288316,10.9843438 38.246672,10 35.5,10 C32.753341,10 30.1710772,10.9843438 28.2290104,12.7717049 C27.9236632,13.052713 27.9236632,13.5082358 28.2290104,13.7892439 C28.5342534,14.070252 29.029335,14.070252 29.3346822,13.7892439 C30.9814097,12.2736807 33.1710693,11.4390991 35.5,11.4390991 C37.8289437,11.4390991 40.0184991,12.2736807 41.6652266,13.7892439 C41.9704695,14.0701561 42.4655511,14.070348 42.7708984,13.7892439 Z" id="Path"></path>
            <path d="M49.1662362,5.82125238 C41.4060745,-1.94047118 28.7796986,-1.94036374 21.0199666,5.82125238 C13.8189363,13.0238241 13.3274808,24.27842 19.3133541,32.0327297 L16.9730595,34.3735602 C16.1782445,33.9947037 15.2019939,34.0998938 14.5063293,34.7089008 L1.77994353,45.85143 C-0.489130315,47.8381166 -0.605468286,51.3384027 1.52707226,53.4713241 C3.66262061,55.6074688 7.15888281,55.4880957 9.14522208,53.2183949 L20.2852005,40.4890952 C20.894283,39.7932714 20.9993416,38.8167972 20.6205718,38.0218002 L22.9608664,35.6809697 C30.7058816,41.662304 41.9590827,41.1828776 49.166451,33.9739665 C56.944015,26.1944068 56.9450892,13.6018865 49.1662362,5.82125238 Z M7.93275053,52.1569305 C6.56204645,53.7232862 4.14924205,53.8150456 2.66628203,52.3318535 C1.1979314,50.8631666 1.26002129,48.448413 2.84116497,47.0641791 L12.098896,38.9586266 L16.036555,42.8970797 L7.93275053,52.1569305 Z M19.0728364,39.4275233 L17.1001397,41.6816444 L13.3139457,37.8946909 L15.5676582,35.9214351 C15.8254709,35.6957974 16.2161645,35.7097654 16.4573268,35.9509829 L19.0434028,38.537651 C19.2849947,38.7794058 19.2979928,39.1702963 19.0728364,39.4275233 L19.0728364,39.4275233 Z M19.5739598,36.7892809 L18.2051893,35.420197 L20.352017,33.2728778 C20.7777301,33.7411298 21.2237461,34.189934 21.7207874,34.6419616 L19.5739598,36.7892809 Z M48.026919,32.8343884 C41.2639553,39.5989006 30.5852467,39.939721 23.4269703,33.9896537 C23.4184839,33.9823473 23.4099976,33.9749335 23.4012964,33.9680569 C22.5588935,33.2652491 21.7777211,32.4936754 21.0259823,31.5921989 C21.0189998,31.5833883 21.0115877,31.5749 21.004283,31.5664117 C15.0603043,24.4120835 15.391701,13.7300703 22.1593913,6.96083044 C29.2909197,-0.172223382 40.8950683,-0.172760614 48.0270264,6.96083044 C55.1750978,14.110431 55.1760646,25.6838208 48.026919,32.8343884 Z" id="Shape"></path>
            <path d="M33.3158306,33.3752995 C30.3652532,32.9503762 27.688764,31.5780828 25.5758075,29.406446 C20.2585197,23.9416533 20.2585197,15.0498278 25.5758075,9.58514392 C27.6745724,7.42820087 30.3319983,6.05862856 33.2608647,5.62434472 C33.6949787,5.55990963 33.9961791,5.14608829 33.933482,4.69983171 C33.8707848,4.25357514 33.4679135,3.9441343 33.0339054,4.00846055 C29.7630643,4.49346526 26.7956477,6.0226015 24.4525547,8.43075435 C18.5158151,14.5319525 18.5158151,24.4595286 24.4525547,30.5608355 C26.8116397,32.985206 29.8003437,34.5174987 33.0953316,34.9919456 C33.1328228,34.9973878 33.1698903,35 33.2066402,35 C33.596379,35 33.9365533,34.7049264 33.9922605,34.2968738 C34.0529454,33.8505084 33.7501564,33.4378843 33.3158306,33.3752995 L33.3158306,33.3752995 Z" id="Path"></path>
            <path d="M46.3347662,8.46756871 C43.7729664,5.96224044 40.5209476,4.41928119 36.9306993,4.00559708 C36.475066,3.95339822 36.0606017,4.27212598 36.0067824,4.7185836 C35.9529631,5.16493269 36.27943,5.56950099 36.73584,5.62202542 C39.9509066,5.99251795 42.8632533,7.37453976 45.157843,9.61854817 C50.7291973,15.0670891 50.7291973,23.9326478 45.157843,29.3812973 C42.8630314,31.6255227 39.9505737,33.007436 36.7349523,33.37782 C36.2784313,33.430453 35.9520753,33.8349127 36.0057837,34.2812618 C36.0556082,34.69538 36.4150325,35 36.8311613,35 C36.8636748,35 36.8965212,34.9981551 36.9295896,34.9943569 C40.5205037,34.5807813 43.7727444,33.037822 46.3348772,30.5321682 C52.5550594,24.4491018 52.5550594,14.5508522 46.3347662,8.46756871 Z" id="Path"></path>
        </g>
    </g>
</svg>