<?xml version="1.0" encoding="UTF-8"?>
<svg width="512px" height="512px" viewBox="0 0 512 512" version="1.1" xmlns="http://www.w3.org/2000/svg" xmlns:xlink="http://www.w3.org/1999/xlink">
    <!-- Generator: Sketch 56.3 (81716) - https://sketch.com -->
    <title>icon / send</title>
    <desc>Created with Sketch.</desc>
    <g id="icon-/-send" stroke="none" stroke-width="1" fill="none" fill-rule="evenodd">
        <path d="M415.935622,195.333556 C415.902495,194.966031 415.829366,194.602881 415.716861,194.250983 C415.643732,193.936587 415.541852,193.629691 415.413095,193.333421 C415.263713,193.044026 415.084954,192.770258 414.879943,192.517116 C414.674308,192.216471 414.436171,191.939577 414.170532,191.690185 C414.084903,191.615805 414.048026,191.513923 413.957396,191.439543 L362.664167,151.602484 L362.664167,110.314702 C362.664167,101.477856 355.500053,94.3136237 346.663354,94.3136237 L288.862919,94.3136237 L265.719869,76.3442878 C260.002703,71.8852374 251.985421,71.8852374 246.268256,76.3442878 L223.120205,94.3136237 L165.31977,94.3136237 C156.483071,94.3136237 149.318958,101.477231 149.318958,110.314702 L149.318958,151.603109 L98.0419787,191.440168 C97.9513491,191.515173 97.9138472,191.61643 97.8288429,191.69081 C97.5632044,191.939577 97.3250673,192.217096 97.1194318,192.517741 C96.9144214,192.770883 96.7356624,193.044026 96.5862798,193.334046 C96.4568982,193.629691 96.3556431,193.937212 96.2825143,194.251608 C96.1712587,194.598506 96.09813,194.95603 96.0637532,195.318555 C96.0637532,195.430437 96,195.526694 96,195.638576 L96,376.998922 C96.0075004,380.39165 97.1050561,383.691873 99.130784,386.412681 C99.1626606,386.460809 99.1682859,386.519563 99.2051628,386.562066 C99.2426647,386.604569 99.3226687,386.652697 99.3757964,386.711451 C102.372199,390.654217 107.032435,392.978749 111.984562,393 L399.999187,393 C404.97069,392.984999 409.650303,390.649217 412.650455,386.685199 C412.692957,386.632071 412.757335,386.61582 412.794212,386.562691 C412.831714,386.509563 412.836714,386.461434 412.869216,386.413306 C414.894944,383.691873 415.9925,380.39165 416,376.999547 L416,195.653577 C416,195.541695 415.941247,195.445438 415.935622,195.333556 Z M252.293395,84.1452019 C254.159922,82.618266 256.803124,82.618266 258.66965,84.1452019 L271,94 L240,94 L252.293395,84.1452019 Z M113,382 L252.30381,274.103733 C254.165523,272.632089 256.798267,272.632089 258.659355,274.103733 L398,382 L113,382 Z M405,374 L265.238663,265.580682 C259.51416,261.125993 251.490846,261.125993 245.766343,265.580682 L106,374 L106,203.78249 L193.494981,271.644634 C195.826328,273.450134 199.181316,273.026413 200.988955,270.697825 C202.796594,268.369238 202.372371,265.018221 200.041024,263.212722 L111.152616,194.273777 L148.714464,165.11831 L148.714464,206.326062 C148.714464,209.271482 151.105253,211.658816 154.053538,211.658816 C157.002448,211.658816 159.392611,209.270857 159.392611,206.326062 L159.392611,110.332753 C159.392611,107.387334 161.782774,105 164.731685,105 L346.267064,105 C349.215974,105 351.606137,107.387334 351.606137,110.332753 L351.606137,206.326062 C351.606137,209.271482 353.9963,211.658816 356.945211,211.658816 C359.894121,211.658816 362.284284,209.270857 362.284284,206.326062 L362.284284,165.11831 L399.846133,194.273777 L310.803177,263.335839 C309.271471,264.495133 308.481215,266.387501 308.735249,268.290493 C308.989282,270.193486 310.247558,271.813373 312.030169,272.531448 C313.812781,273.249523 315.844419,272.955793 317.349221,271.761501 L405,203.78249 L405,374 L405,374 Z" id="Shape" fill="#F4E7D9" fill-rule="nonzero"></path>
        <path d="M320.001,201.303125 L320.001,179.97 C320.001,144.62375 291.347167,115.97 256.000946,115.97 C220.654726,115.97 192.001,144.62375 192.001,179.97 C192.001,215.31625 220.654726,243.97 256.000946,243.97 C258.946569,243.97 261.334067,241.5825 261.334067,238.636875 C261.334067,235.69125 258.946569,233.30375 256.000946,233.30375 C226.545971,233.30375 202.667866,209.425625 202.667866,179.970625 C202.667866,150.515625 226.545971,126.6375 256.000946,126.6375 C285.455922,126.6375 309.334027,150.515625 309.334027,179.970625 L309.334027,201.30375 C309.334027,207.195 304.558406,211.970625 298.667161,211.970625 C292.775916,211.970625 288.000295,207.195 288.000295,201.30375 L288.000295,179.970625 C288.000295,177.025 285.612797,174.6375 282.667174,174.6375 C279.721552,174.6375 277.334054,177.025 277.334054,179.970625 C277.334054,191.7525 267.782812,201.30375 256.000946,201.30375 C244.219081,201.30375 234.667839,191.7525 234.667839,179.970625 C234.667839,168.18875 244.219081,158.6375 256.000946,158.6375 C258.946569,158.6375 261.334067,156.25 261.334067,153.304375 C261.334067,150.35875 258.946569,147.97125 256.000946,147.97125 C241.679083,147.939375 229.079719,157.4275 225.154722,171.20125 C221.229726,184.975 226.934096,199.679375 239.121586,207.201875 C251.309075,214.724375 267.010312,213.233125 277.563428,203.55 C278.724677,214.82875 288.527794,223.215 299.850285,222.615625 C311.1734,222.015625 320.036518,212.641875 320.001,201.303125 Z" id="Path" fill="#F4E7D9" fill-rule="nonzero"></path>
        <path d="M391.166777,39.1100294 C289.679627,-24.3533031 159.511325,-9.36890517 74.7916173,75.2488715 C-24.9305391,174.851046 -24.9305391,337.475836 74.7916173,437.07801 C124.652696,486.879098 190.398719,512 255.703494,512 C321.008269,512 386.754293,486.879098 436.615371,437.07801 C521.776327,352.019516 536.337527,221.56711 472.356498,120.202065 C467.061516,111.828431 456.030304,109.184126 447.646583,114.472737 C439.262862,119.761348 436.615371,130.779287 441.910353,139.152922 C497.066413,226.415004 484.270207,338.357271 411.022959,411.51639 C325.420754,497.015602 185.544986,497.015602 99.9427807,411.51639 C14.3405756,326.017178 14.3405756,186.309703 99.9427807,100.810492 C173.190028,28.0920897 284.825894,15.3112797 372.193093,69.5195429 C380.576814,74.8081539 391.608026,72.1638484 396.903008,63.7902142 C402.197989,55.4165801 399.550498,44.3986404 391.166777,39.1100294 Z" id="Path" fill="#F4E7D9" fill-rule="nonzero"></path>
    </g>
</svg>