<?xml version="1.0" encoding="UTF-8"?>
<svg width="512px" height="512px" viewBox="0 0 512 512" version="1.1" xmlns="http://www.w3.org/2000/svg" xmlns:xlink="http://www.w3.org/1999/xlink">
    <!-- Generator: Sketch 56.3 (81716) - https://sketch.com -->
    <title>icon / sour</title>
    <desc>Created with Sketch.</desc>
    <g id="icon-/-sour" stroke="none" stroke-width="1" fill="none" fill-rule="evenodd">
        <path d="M480.438,320.000998 L457.056,320.000998 C447.46,292.969793 427.905,268.294986 400.974,249.07752 C419.76,232.160561 433.47,212.308335 441.025,190.999953 L464.406,190.999953 C481.809,190.999953 495.968,176.868554 495.968,159.499478 L495.968,143.499727 C495.968,126.130651 481.809,111.999251 464.406,111.999251 L441.024,111.999251 C429.823,80.4309084 405.116,52.1661131 370.897,31.9466043 C367.33,29.8377232 362.718,31.0134269 360.603,34.58046 C358.489,38.143501 359.67,42.7445146 363.242,44.8543938 C396.128,64.2854425 419.265,91.5651618 428.391,121.669365 C429.35,124.833185 432.272,126.996959 435.584,126.996959 L464.405,126.996959 C473.521,126.996959 480.937,134.397505 480.937,143.496733 L480.937,159.496483 C480.937,168.594713 473.52,175.996257 464.405,175.996257 L435.583,175.996257 C432.27,175.996257 429.349,178.160031 428.39,181.323852 C421.78,203.127267 407.824,223.524429 387.935,240.552172 C352.375,219.254768 309.551,207.996756 264.014,207.996756 C216.086,207.996756 173.283,230.28722 145.443,265.019384 C106.124,245.563384 77.861,215.258573 67.575,181.32485 C66.616,178.161029 63.694,175.997255 60.382,175.997255 L31.562,175.997255 C22.445,175.997255 15.03,168.594713 15.03,159.497481 L15.03,143.497731 C15.03,134.399501 22.445,126.997957 31.562,126.997957 L60.384,126.997957 C63.697,126.997957 66.618,124.834183 67.577,121.670363 C86.315,59.8600858 162.187,14.9977076 247.984,14.9977076 C277.907,14.9977076 306.465,20.1296842 332.865,30.2519142 C336.741,31.7360156 341.086,29.8067836 342.574,25.9403353 C344.062,22.0728889 342.129,17.7353606 338.254,16.2502612 C310.129,5.46831969 279.757,0 247.984,0 C202.1,0 158.966,11.4246862 123.247,33.0394698 C89.997,53.1581754 65.937,81.034729 54.944,112.001248 L31.562,112.001248 C14.159,112.00025 0,126.131649 0,143.500725 L0,159.500476 C0,176.869552 14.159,191.000951 31.562,191.000951 L54.945,191.000951 C67.402,226.052491 96.682,257.015018 136.542,277.335329 C121.163,301.02007 112.219,329.236959 112.219,359.501848 C112.219,443.039688 180.315,511.002947 264.015,511.002947 C309.9,511.002947 353.033,499.578261 388.753,477.963478 C422.003,457.844772 446.063,429.968218 457.056,399.0017 L480.438,399.0017 C497.841,399.0017 512,384.8703 512,367.501224 L512,351.501474 C512,334.132398 497.841,320.000998 480.438,320.000998 Z M264.016,496.002246 C188.602,496.002246 127.249,434.768842 127.249,359.501848 C127.249,284.234854 188.602,223.00145 264.016,223.00145 C339.43,223.00145 400.783,284.234854 400.783,359.501848 C400.783,434.768842 339.43,496.002246 264.016,496.002246 Z M496.971,367.501224 C496.971,376.599454 489.554,384.000998 480.439,384.000998 L451.617,384.000998 C448.304,384.000998 445.383,386.164772 444.424,389.328593 C433.468,425.469006 402.974,455.808749 362.39,474.780694 C395.059,446.972008 415.813,405.612788 415.813,359.499852 C415.813,313.387914 395.058,272.028694 362.39,244.21901 C402.974,263.190955 433.469,293.531696 444.424,329.671111 C445.383,332.834932 448.305,334.998706 451.617,334.998706 L480.439,334.998706 C489.555,334.998706 496.971,342.401248 496.971,351.49848 L496.971,367.501224 Z M223.937,71.0003275 C219.78658,71.0003275 216.422,67.642306 216.422,63.4999766 C216.422,59.3576472 219.78658,55.9996257 223.937,55.9996257 C228.08742,55.9996257 231.452,59.3576472 231.452,63.4999766 C231.452,67.642306 228.08742,71.0003275 223.937,71.0003275 Z M168.329,158.501427 C164.17858,158.501427 160.814,155.143405 160.814,151.001076 C160.814,146.858747 164.17858,143.500725 168.329,143.500725 C172.47942,143.500725 175.844,146.858747 175.844,151.001076 C175.844,155.143405 172.47942,158.501427 168.329,158.501427 Z M120.235,126.500928 C116.08458,126.500928 112.72,123.142906 112.72,119.000577 C112.72,114.858248 116.08458,111.500226 120.235,111.500226 C124.38542,111.500226 127.75,114.858248 127.75,119.000577 C127.75,123.142906 124.38542,126.500928 120.235,126.500928 Z M167.327,94.5004288 C163.17658,94.5004288 159.812,91.1424074 159.812,87.000078 C159.812,82.8577486 163.17658,79.4997271 167.327,79.4997271 C171.47742,79.4997271 174.842,82.8577486 174.842,87.000078 C174.842,91.1424074 171.47742,94.5004288 167.327,94.5004288 Z M223.436,134.501302 C219.28558,134.501302 215.921,131.143281 215.921,127.000951 C215.921,122.858622 219.28558,119.5006 223.436,119.5006 C227.58642,119.5006 230.951,122.858622 230.951,127.000951 C230.951,131.143281 227.58642,134.501302 223.436,134.501302 Z M279.546,102.500803 C275.39558,102.500803 272.031,99.1427816 272.031,95.0004522 C272.031,90.8581228 275.39558,87.5001014 279.546,87.5001014 C283.69642,87.5001014 287.061,90.8581228 287.061,95.0004522 C287.061,99.1427816 283.69642,102.500803 279.546,102.500803 Z M294.138,252.107602 C298.299,253.268335 300.665,257.869349 299.169,261.922433 L271.067,338.092663 C269.991,341.008967 267.128,343.001076 264.015,343.001076 C260.902,343.001076 258.039,341.009965 256.963,338.092663 L228.86,261.922433 C227.364,257.868351 229.732,253.267337 233.891,252.107602 C253.442,246.658246 274.588,246.658246 294.138,252.107602 Z M264.016,313.796117 L282.131,264.695018 C270.228,262.443415 257.804,262.443415 245.902,264.695018 L264.016,313.796117 Z M248.965,342.702659 C253.338,347.943423 248.646,356.061567 241.913,354.89285 L161.767,341.097793 C157.509,340.366222 154.69,336.024702 155.764,331.842869 C158.286,322.034027 162.155,312.582487 167.264,303.751735 C172.373,294.919984 178.64,286.850745 185.89,279.767579 C188.982,276.749474 194.154,277.011961 196.922,280.328483 L248.965,342.702659 Z M172.693,327.754854 L224.358,336.648483 L190.809,296.440016 C186.857,301.02007 183.332,305.978386 180.281,311.251088 C177.23,316.523789 174.691,322.050994 172.693,327.754854 Z M249.699,367.751735 C251.273,370.473419 250.98,373.886752 248.965,376.301037 L196.922,438.675212 C194.156,441.988741 188.982,442.254222 185.891,439.236117 C178.641,432.152951 172.374,424.083712 167.265,415.251961 C162.156,406.421209 158.288,396.969669 155.766,387.160827 C154.69,382.977996 157.51,378.637474 161.768,377.905903 L241.914,364.110846 C245.018,363.575891 248.126,365.030051 249.699,367.751735 Z M190.809,422.562682 L224.357,382.354214 L172.693,391.246846 C174.691,396.951704 177.23,402.47791 180.281,407.75161 C183.332,413.02531 186.858,417.983626 190.809,422.562682 Z M299.169,457.081263 C300.665,461.133349 298.3,465.735361 294.139,466.896094 C284.368,469.619774 274.232,471.002074 264.015,471.002074 C253.801,471.002074 243.665,469.619774 233.89,466.895096 C229.73,465.735361 227.364,461.134347 228.86,457.080265 L256.963,380.911033 C258.039,377.994729 260.902,376.00262 264.015,376.00262 C267.128,376.00262 269.991,377.993731 271.067,380.911033 L299.169,457.081263 Z M245.9,454.30768 C257.802,456.559283 270.232,456.558285 282.13,454.308678 L264.015,405.206581 L245.9,454.30768 Z M366.263,377.905903 C370.521,378.637474 373.34,382.977996 372.265,387.160827 C369.744,396.969669 365.875,406.421209 360.766,415.251961 C355.657,424.083712 349.39,432.152951 342.14,439.236117 C339.049,442.254222 333.873,441.988741 331.108,438.675212 L279.065,376.301037 C274.692,371.059275 279.386,362.946121 286.117,364.110846 L366.263,377.905903 Z M347.75,407.75161 C350.801,402.478908 353.34,396.951704 355.337,391.246846 L303.673,382.354214 L337.222,422.562682 C341.174,417.982628 344.699,413.024312 347.75,407.75161 Z M372.265,331.841871 C373.341,336.0257 370.522,340.365224 366.264,341.096795 L286.118,354.891852 C283.048,355.423813 279.889,353.941708 278.333,351.250963 C276.759,348.528281 277.051,345.115945 279.066,342.700663 L331.108,280.327485 C333.877,277.011961 339.05,276.748476 342.14,279.766581 C349.39,286.849747 355.657,294.918986 360.766,303.750737 C365.875,312.581489 369.743,322.033029 372.265,331.841871 Z M303.674,336.649481 L355.339,327.755852 C353.341,322.050994 350.802,316.524788 347.751,311.251088 C344.7,305.977388 341.174,301.019072 337.223,296.440016 L303.674,336.649481 Z" id="Shape" fill="#F4E7D9" fill-rule="nonzero"></path>
    </g>
</svg>