<?xml version="1.0" encoding="UTF-8"?>
<svg width="512px" height="512px" viewBox="0 0 512 512" version="1.1" xmlns="http://www.w3.org/2000/svg" xmlns:xlink="http://www.w3.org/1999/xlink">
    <!-- Generator: Sketch 56.3 (81716) - https://sketch.com -->
    <title>icon / toast</title>
    <desc>Created with Sketch.</desc>
    <g id="icon-/-toast" stroke="none" stroke-width="1" fill="none" fill-rule="evenodd">
        <path d="M376.925644,216.033328 L376.925644,190.810516 C411.123286,170.458827 427.726207,130.657801 420.447786,85.5012718 C413.247461,40.8408399 376.69136,5.97343657 331.576087,0.719498119 C319.369895,-0.690666591 307.288654,0.00855622782 295.55884,2.81326105 C269.84618,8.98126815 242.630198,8.9890802 216.89411,2.81326105 C202.969836,-0.530509602 188.584803,-0.889886821 174.156818,1.71559827 C132.067712,9.34064537 99.0766325,42.8174141 92.0832573,85.0364249 C85.0508353,127.493719 102.005182,167.880687 135.460925,189.158162 L135.460925,216.005984 C84.8712182,220.306792 45,262.803148 45,314.506592 L45,476.07009 L62.9578625,476.07009 C62.9578625,495.886618 79.0648815,512 98.8696819,512 C118.678387,512 134.785406,495.886618 134.785406,476.07009 L377.214594,476.07009 C377.214594,495.886618 393.321613,512 413.126414,512 C432.935119,512 449.042139,495.886618 449.042139,476.07009 L467,476.07009 L467,314.506592 C467,262.939868 427.331829,220.517731 376.925644,216.033328 Z M109.799027,87.9817561 C115.472602,53.7745138 143.25477,25.5790267 177.346985,19.4110196 C189.322797,17.2469442 201.220516,17.532102 212.704332,20.297744 C241.185447,27.1259112 271.263597,27.1337233 299.744712,20.297744 C309.416733,17.9735107 319.444085,17.3914761 329.483151,18.5672644 C366.679628,22.9032291 396.789015,51.6104374 402.712493,88.3684775 C409.061588,127.685126 394.157226,161.861118 363.825268,177.552621 C360.845958,179.099506 358.967782,182.17765 358.967782,185.537046 L358.967782,215.591919 L153.418788,215.591919 L153.418788,185.189387 C153.418788,181.290925 151.325851,177.681529 147.959972,175.747923 C118.284009,158.646255 103.664693,125.017141 109.799027,87.9817561 Z M98.8696819,494.046764 C88.9672817,494.046764 80.9118195,485.98812 80.9118195,476.081809 L116.827544,476.081809 C116.827544,485.980307 108.775987,494.046764 98.8696819,494.046764 Z M413.130319,494.046764 C403.224013,494.046764 395.172457,485.98812 395.172457,476.081809 L431.084276,476.081809 C431.084276,485.980307 423.032719,494.046764 413.130319,494.046764 L413.130319,494.046764 Z M449.046043,458.116854 L62.9578625,458.116854 L62.9578625,431.171376 L449.046043,431.171376 L449.046043,458.116854 Z M62.9578625,413.206421 L62.9578625,314.510498 C62.9578625,269.865691 99.2562507,233.549061 143.883432,233.549061 L368.136093,233.549061 C412.759369,233.549061 449.061662,269.865691 449.061662,314.510498 L449.061662,413.198608 L62.9578625,413.198608 L62.9578625,413.206421 Z M158.265905,123.379311 C156.520118,125.121253 154.233879,126 151.943749,126 C149.653621,126 147.36738,125.121253 145.621595,123.379311 C142.126135,119.883762 142.126135,114.234115 145.621595,110.738566 L203.737983,52.6245787 C207.233443,49.1251404 212.882945,49.1251404 216.378405,52.6245787 C219.873865,56.1162389 219.873865,61.7697746 216.378405,65.2653228 L158.265905,123.379311 Z M163.629711,177.362054 C160.122778,173.843486 160.122778,168.144895 163.633624,164.638069 L289.632707,38.6389255 C293.151381,35.1203582 298.838405,35.1203582 302.360994,38.6389255 C305.879669,42.1574929 305.879669,47.8443424 302.360994,51.3629098 L176.357997,177.362054 C174.600616,179.115466 172.299192,180 169.993854,180 C167.692429,180 165.387091,179.11938 163.629711,177.362054 Z M208.633123,204.362018 C205.122292,200.843405 205.122292,195.148652 208.633123,191.637867 L343.633756,56.6389603 C347.152415,53.1203466 352.839412,53.1203466 356.358071,56.6389603 C359.880643,60.1575741 359.880643,65.8444986 356.358071,69.3631124 L221.357438,204.362018 C219.603979,206.115454 217.298652,207 214.993323,207 C212.691909,207 210.386581,206.119368 208.633123,204.362018 Z M347.723811,123.62351 C351.221626,120.125497 356.878825,120.125497 360.376639,123.62351 C363.874454,127.121525 363.874454,132.775157 360.376639,136.273171 L293.276189,203.377461 C291.529227,205.120632 289.241445,206 286.949774,206 C284.661994,206 282.370322,205.124524 280.623361,203.377461 C277.125546,199.879448 277.125546,194.225815 280.623361,190.727801 L347.723811,123.62351 Z" id="Shape" fill="#F4E7D9" fill-rule="nonzero"></path>
    </g>
</svg>