<?xml version="1.0" encoding="UTF-8"?>
<svg width="512px" height="512px" viewBox="0 0 512 512" version="1.1" xmlns="http://www.w3.org/2000/svg" xmlns:xlink="http://www.w3.org/1999/xlink">
    <!-- Generator: Sketch 56.3 (81716) - https://sketch.com -->
    <title>icon / user</title>
    <desc>Created with Sketch.</desc>
    <g id="icon-/-user" stroke="none" stroke-width="1" fill="none" fill-rule="evenodd">
        <path d="M256.5,266 C286.84461,266 316.476198,247.651982 339.93628,214.335778 C360.640524,184.934525 373,148.583035 373,117.095575 C373,53.080706 320.737868,1 256.5,1 C192.262132,1 140,53.080706 140,117.095575 C140,148.583035 152.359476,184.934525 173.06372,214.335778 C196.523802,247.651982 226.15539,266 256.5,266 Z M256.5,19.9310956 C310.262898,19.9310956 354.002957,63.5193121 354.002957,117.095575 C354.002957,144.425766 342.654123,177.518583 324.386567,203.461757 C304.871538,231.174357 280.128522,247.068904 256.5,247.068904 C232.871478,247.068904 208.128462,231.174357 188.613433,203.461757 C170.345877,177.518583 158.997043,144.425766 158.997043,117.095575 C158.997043,63.5193121 202.737102,19.9310956 256.5,19.9310956 Z M426.845609,318.318779 C447.883388,350.974804 459,388.86368 459,427.886341 L459,428.050657 C459,430.72649 457.870268,433.275925 455.890078,435.073295 C401.201708,484.680472 330.391282,512 256.5,512 C182.608717,512 111.797028,484.680472 57.1099216,435.073295 C55.1297318,433.275925 54,430.725226 54,428.050657 L54,427.886341 C54,388.86368 65.1216661,350.974804 86.1632365,318.317515 C106.647523,286.524784 135.484748,261.144192 169.556145,244.921089 C173.174067,243.197029 177.48575,243.937717 180.32398,246.770283 C203.146078,269.547089 229.488795,281.585175 256.501263,281.585175 C283.509941,281.585175 309.856449,269.547089 332.692448,246.769019 C335.530678,243.938981 339.839833,243.199557 343.459019,244.922353 C377.530415,261.145456 406.36385,286.524784 426.845609,318.318779 Z M256.501263,493.041658 C324.261161,493.041658 389.257385,468.497816 440.003067,423.846681 C439.26634,389.900139 429.246605,357.048198 410.911841,328.587301 C393.518521,301.587559 369.482024,279.68795 341.128789,264.937377 C315.785645,288.26022 286.653982,300.54478 256.501263,300.54478 C226.34349,300.54478 197.216882,288.262748 171.886375,264.937377 C143.530612,279.690478 119.494115,301.588823 102.097004,328.588565 C83.7584495,357.050726 73.7361868,389.903931 72.9994602,423.847945 C123.745142,468.49908 188.741366,493.041658 256.501263,493.041658 Z" id="Shape" fill="#F4E7D9" fill-rule="nonzero"></path>
    </g>
</svg>