<?xml version="1.0" encoding="UTF-8"?>
<svg width="512px" height="512px" viewBox="0 0 512 512" version="1.1" xmlns="http://www.w3.org/2000/svg" xmlns:xlink="http://www.w3.org/1999/xlink">
    <!-- Generator: Sketch 56.3 (81716) - https://sketch.com -->
    <title>icon / wheat</title>
    <desc>Created with Sketch.</desc>
    <g id="icon-/-wheat" stroke="none" stroke-width="1" fill="none" fill-rule="evenodd">
        <g id="wheat" transform="translate(250.949747, 259.935029) rotate(45.000000) translate(-250.949747, -259.935029) translate(116.949747, -86.564971)" fill="#F4E7D9" fill-rule="nonzero">
            <path d="M267.148035,234.847614 C266.914563,229.03234 262.261078,224.369869 256.451201,224.130123 C255.781253,224.130123 251.437758,223.962488 244.883435,224.186002 C269.213707,193.17345 267.215029,136.792073 267.148035,134.266366 C266.914563,128.451092 262.261078,123.788621 256.451201,123.548875 C231.127505,122.761314 205.907822,127.129908 182.321472,136.389748 C187.352298,125.153279 189.823757,112.937725 189.556909,100.627526 C189.556909,59.9479991 144.156777,6.23761246 142.225094,3.96894653 C140.03886,1.59017625 136.957187,0.236544033 133.727922,0.236544033 C130.498658,0.236544033 127.416984,1.59017625 125.23075,3.96894653 C123.299067,6.23761246 77.8989353,59.9479991 77.8989353,100.627526 C77.6332077,112.937625 80.1046173,125.152935 85.134372,136.389748 C61.5511891,127.11465 36.3314011,122.730829 11.0046434,123.504172 C5.19476628,123.743918 0.541281183,128.406389 0.307809569,134.221663 C0.207317393,136.74737 -1.75786294,193.128748 22.5724095,224.141299 C16.0180864,223.917785 11.6745913,224.063069 11.0046434,224.085421 C5.19476628,224.325166 0.541281183,228.987638 0.307809569,234.802911 C0.196151596,237.485078 -2.03700787,300.739507 27.2620444,330.086881 C29.7297087,332.501667 32.3966373,334.703647 35.2344237,336.669365 C27.1812707,335.914455 19.0904696,335.638303 11.0046434,335.842363 C5.19476628,336.082109 0.541281183,340.74458 0.307809569,346.559854 C0.207317393,349.085561 -1.75786294,405.455763 22.5612437,436.468314 C16.0069206,436.255976 11.6745913,436.40126 11.0046434,436.468314 C5.19476628,436.70806 0.541281183,441.370531 0.307809569,447.185805 C0.196151596,449.867972 -2.03700787,513.122401 27.2620444,542.469774 C52.2064356,567.436275 101.816073,569.514954 117.604511,569.514954 C120.340131,569.514954 122.07083,569.4479 122.461633,569.436724 L122.562125,569.436724 L122.562125,637.06085 C122.562125,643.233016 127.561223,648.236544 133.727922,648.236544 C139.894621,648.236544 144.893719,643.233016 144.893719,637.06085 L144.893719,569.414373 L144.994212,569.414373 C145.39618,569.414373 147.115713,569.492603 149.851333,569.492603 C165.639771,569.492603 215.249408,567.413924 240.1938,542.447423 C269.492852,513.133577 267.259693,449.84562 267.148035,447.163454 C266.914563,441.34818 262.261078,436.685708 256.451201,436.445963 C255.781253,436.445963 251.448923,436.278327 244.8946,436.445963 C269.213707,405.433411 267.227922,349.063209 267.148035,346.537503 C266.914563,340.722229 262.261078,336.059757 256.451201,335.820012 C248.365374,335.615951 240.274573,335.892103 232.22142,336.647013 C235.059207,334.681295 237.726135,332.479316 240.1938,330.064529 C269.492852,300.817737 267.259693,237.529781 267.148035,234.847614 L267.148035,234.847614 Z M224.405362,314.329152 C209.164049,329.583974 176.392434,333.976022 156.651304,334.724794 C157.388247,314.899112 161.787571,282.199031 177.04005,266.899505 C192.292529,251.59998 225.052979,247.252635 244.794108,246.503863 C244.057166,266.329545 239.657841,299.063153 224.405362,314.329152 Z M224.405362,213.747903 C209.164049,229.002726 176.392434,233.394774 156.651304,234.143545 C157.388247,214.317864 161.787571,181.617782 177.04005,166.318257 C192.292529,151.018732 225.052979,146.671386 244.794108,145.922615 C244.057166,165.748297 239.657841,198.481905 224.405362,213.747903 Z M133.727922,29.2148399 C147.473019,47.6435597 167.225314,78.846098 167.225314,100.627526 C167.225314,128.197964 154.395813,145.330303 133.727922,145.330303 C113.060031,145.330303 100.23053,128.197964 100.23053,100.627526 C100.23053,78.8908008 119.982826,47.6659111 133.727922,29.2148399 Z M90.4046284,166.318257 C105.657108,181.584255 110.056432,214.317864 110.793374,234.143545 C90.9964156,233.394774 58.3141268,229.002726 43.039316,213.747903 C27.7645052,198.493081 23.3875127,165.748297 22.6505701,145.922615 C42.4586946,146.671386 75.1744808,151.063434 90.4157942,166.318257 L90.4046284,166.318257 Z M22.6505701,246.503863 C42.4475288,247.252635 75.1298176,251.644683 90.4046284,266.899505 C105.679439,282.154328 110.056432,314.899112 110.793374,334.724794 C90.9964156,333.976022 58.3141268,329.583974 43.039316,314.329152 C27.7645052,299.074329 23.3986785,266.329545 22.6617359,246.503863 L22.6505701,246.503863 Z M90.4046284,378.656448 C105.657108,393.922446 110.056432,426.711933 110.793374,446.481736 C90.9964156,445.732965 58.3141268,441.340917 43.039316,426.086094 C27.7645052,410.831272 23.3875127,378.030609 22.6505701,358.260806 C42.4586946,359.009577 75.1744808,363.401625 90.4157942,378.656448 L90.4046284,378.656448 Z M43.0504818,526.667343 C27.7980026,511.401344 23.3986785,478.611857 22.6617359,458.842054 C42.4586946,459.590826 75.1409834,463.982873 90.4157942,479.237696 C105.690605,494.492519 110.067597,527.293181 110.80454,547.062985 C91.0075814,546.314213 58.2917952,541.922165 43.0504818,526.667343 Z M224.405362,526.667343 C209.164049,541.922165 176.392434,546.314213 156.651304,547.062985 C157.388247,527.237303 161.787571,494.537222 177.04005,479.237696 C192.292529,463.938171 225.052979,459.590826 244.794108,458.842054 C244.057166,478.667736 239.657841,511.401344 224.405362,526.667343 Z M224.405362,426.086094 C209.164049,441.340917 176.392434,445.732965 156.651304,446.481736 C157.388247,426.656055 161.787571,393.955973 177.04005,378.656448 C192.292529,363.356922 225.052979,359.009577 244.794108,358.260806 C244.057166,378.086487 239.657841,410.820096 224.405362,426.086094 Z M161.251613,362.854016 C131.95256,392.167862 134.18572,455.455819 134.297378,458.137985 C134.530849,463.953259 139.184334,468.615731 144.994212,468.855476 C145.39618,468.855476 147.115713,468.933706 149.851333,468.933706 C151.660193,468.933706 153.949181,468.933706 156.550812,468.810773 C138.350562,492.02269 134.866833,529.349509 134.319709,547.778229 C134.107559,547.778229 133.940072,547.655296 133.727922,547.655296 C133.515772,547.655296 133.348285,547.767053 133.136135,547.778229 C132.589011,529.349509 129.105282,492.02269 110.905032,468.810773 C113.506663,468.900179 115.795652,468.933706 117.604511,468.933706 C120.340131,468.933706 122.07083,468.866652 122.461633,468.855476 C128.27151,468.615731 132.924995,463.953259 133.158466,458.137985 C133.270124,455.455819 135.503284,392.201389 106.204232,362.854016 C103.7222,360.438519 101.044408,358.233083 98.1983549,356.260357 C106.382884,356.997952 113.283347,357.176763 117.604511,357.176763 C120.340131,357.176763 122.07083,357.109709 122.461633,357.098534 C128.27151,356.858788 132.924995,352.196317 133.158466,346.381043 C133.258959,343.855336 135.224139,287.485134 110.905032,256.472583 C113.506663,256.561988 115.795652,256.595515 117.604511,256.595515 C120.340131,256.595515 122.07083,256.528461 122.461633,256.517285 C128.27151,256.27754 132.924995,251.615068 133.158466,245.799795 C133.258959,243.564656 134.844502,196.772024 116.8899,164.988349 C127.828486,168.579844 139.627358,168.579844 150.565944,164.988349 C132.611342,196.738497 134.196886,243.508777 134.297378,245.799795 C134.530849,251.615068 139.184334,256.27754 144.994212,256.517285 C145.39618,256.517285 147.115713,256.595515 149.851333,256.595515 C151.660193,256.595515 153.949181,256.595515 156.550812,256.472583 C132.231705,287.485134 134.219217,343.855336 134.297378,346.381043 C134.530849,352.196317 139.184334,356.858788 144.994212,357.098534 C145.39618,357.098534 147.115713,357.176763 149.851333,357.176763 C154.172497,357.176763 161.017131,356.997952 169.257489,356.260357 C166.411436,358.233083 163.733644,360.438519 161.251613,362.854016 L161.251613,362.854016 Z" id="Shape"></path>
            <path d="M135.142136,659.168614 C129.067003,659.168614 124.142136,664.093482 124.142136,670.168614 L124.142136,681.168614 C124.142136,687.243747 129.067003,692.168614 135.142136,692.168614 C141.217268,692.168614 146.142136,687.243747 146.142136,681.168614 L146.142136,670.168614 C146.142136,664.093482 141.217268,659.168614 135.142136,659.168614 Z" id="Path"></path>
        </g>
    </g>
</svg>